<?xml version="1.0" standalone="no"?>
<!DOCTYPE svg PUBLIC "-//W3C//DTD SVG 20010904//EN"
 "http://www.w3.org/TR/2001/REC-SVG-20010904/DTD/svg10.dtd">
<svg version="1.0" xmlns="http://www.w3.org/2000/svg"
 width="237.000000pt" height="264.000000pt" viewBox="0 0 237.000000 264.000000"
 preserveAspectRatio="xMidYMid meet">

<g transform="translate(0.000000,264.000000) scale(0.100000,-0.100000)"
fill="#000000" stroke="none">
<path d="M1014 2566 c-8 -8 -7 -15 0 -22 8 -8 15 -7 22 0 8 8 7 15 0 22 -8 8
-15 7 -22 0z"/>
<path d="M1074 2566 c-8 -9 -7 -15 3 -24 8 -8 13 -9 13 -2 0 5 8 10 18 11 13
0 14 2 2 6 -8 3 -17 9 -20 13 -3 4 -10 2 -16 -4z"/>
<path d="M1144 2566 c-8 -8 -7 -15 0 -22 8 -8 15 -7 22 0 8 8 7 15 0 22 -8 8
-15 7 -22 0z"/>
<path d="M1220 2570 c0 -5 -8 -10 -17 -11 -14 0 -15 -2 -3 -6 8 -3 17 -9 20
-13 3 -4 10 -2 16 4 8 9 7 15 -3 24 -8 8 -13 9 -13 2z"/>
<path d="M1274 2566 c-8 -8 -7 -15 0 -22 8 -8 15 -7 22 0 8 8 7 15 0 22 -8 8
-15 7 -22 0z"/>
<path d="M1344 2566 c-8 -8 -7 -15 0 -22 8 -8 15 -7 22 0 8 8 7 15 0 22 -8 8
-15 7 -22 0z"/>
<path d="M944 2446 c-8 -8 -7 -15 0 -22 8 -8 15 -7 22 0 8 8 7 15 0 22 -8 8
-15 7 -22 0z"/>
<path d="M1014 2446 c-8 -8 -7 -15 0 -22 8 -8 15 -7 22 0 8 8 7 15 0 22 -8 8
-15 7 -22 0z"/>
<path d="M1074 2446 c-8 -9 -7 -15 3 -24 8 -8 13 -9 13 -2 0 5 8 10 18 11 13
0 14 2 2 6 -8 3 -17 9 -20 13 -3 4 -10 2 -16 -4z"/>
<path d="M1144 2446 c-8 -8 -7 -15 0 -22 8 -8 15 -7 22 0 8 8 7 15 0 22 -8 8
-15 7 -22 0z"/>
<path d="M1220 2450 c0 -5 -8 -10 -17 -11 -14 0 -15 -2 -3 -6 8 -3 17 -9 20
-13 3 -4 10 -2 16 4 8 9 7 15 -3 24 -8 8 -13 9 -13 2z"/>
<path d="M1274 2446 c-8 -8 -7 -15 0 -22 8 -8 15 -7 22 0 8 8 7 15 0 22 -8 8
-15 7 -22 0z"/>
<path d="M1344 2446 c-8 -8 -7 -15 0 -22 8 -8 15 -7 22 0 8 8 7 15 0 22 -8 8
-15 7 -22 0z"/>
<path d="M1404 2446 c-8 -9 -7 -15 3 -24 8 -8 13 -9 13 -2 0 5 8 10 18 11 13
0 14 2 2 6 -8 3 -17 9 -20 13 -3 4 -10 2 -16 -4z"/>
<path d="M944 2326 c-8 -8 -7 -15 0 -22 8 -8 15 -7 22 0 8 8 7 15 0 22 -8 8
-15 7 -22 0z"/>
<path d="M1014 2326 c-8 -8 -7 -15 0 -22 8 -8 15 -7 22 0 8 8 7 15 0 22 -8 8
-15 7 -22 0z"/>
<path d="M1074 2326 c-8 -9 -7 -15 3 -24 8 -8 13 -9 13 -2 0 5 8 10 18 11 13
0 14 2 2 6 -8 3 -17 9 -20 13 -3 4 -10 2 -16 -4z"/>
<path d="M1144 2326 c-8 -8 -7 -15 0 -22 8 -8 15 -7 22 0 8 8 7 15 0 22 -8 8
-15 7 -22 0z"/>
<path d="M1220 2330 c0 -5 -8 -10 -17 -11 -14 0 -15 -2 -3 -6 8 -3 17 -9 20
-13 3 -4 10 -2 16 4 8 9 7 15 -3 24 -8 8 -13 9 -13 2z"/>
<path d="M1274 2326 c-8 -8 -7 -15 0 -22 8 -8 15 -7 22 0 8 8 7 15 0 22 -8 8
-15 7 -22 0z"/>
<path d="M1344 2326 c-8 -8 -7 -15 0 -22 8 -8 15 -7 22 0 8 8 7 15 0 22 -8 8
-15 7 -22 0z"/>
<path d="M1404 2326 c-8 -9 -7 -15 3 -24 8 -8 13 -9 13 -2 0 5 8 10 18 11 13
0 14 2 2 6 -8 3 -17 9 -20 13 -3 4 -10 2 -16 -4z"/>
<path d="M744 2206 c-8 -9 -7 -15 3 -24 8 -8 13 -9 13 -2 0 5 8 10 18 11 13 0
14 2 2 6 -8 3 -17 9 -20 13 -3 4 -10 2 -16 -4z"/>
<path d="M814 2206 c-8 -8 -7 -15 0 -22 8 -8 15 -7 22 0 8 8 7 15 0 22 -8 8
-15 7 -22 0z"/>
<path d="M890 2210 c0 -5 -8 -10 -17 -11 -14 0 -15 -2 -3 -6 8 -3 17 -9 20
-13 3 -4 10 -2 16 4 8 9 7 15 -3 24 -8 8 -13 9 -13 2z"/>
<path d="M944 2206 c-8 -8 -7 -15 0 -22 8 -8 15 -7 22 0 8 8 7 15 0 22 -8 8
-15 7 -22 0z"/>
<path d="M1014 2206 c-8 -8 -7 -15 0 -22 8 -8 15 -7 22 0 8 8 7 15 0 22 -8 8
-15 7 -22 0z"/>
<path d="M1074 2206 c-8 -9 -7 -15 3 -24 8 -8 13 -9 13 -2 0 5 8 10 18 11 13
0 14 2 2 6 -8 3 -17 9 -20 13 -3 4 -10 2 -16 -4z"/>
<path d="M1144 2206 c-8 -8 -7 -15 0 -22 8 -8 15 -7 22 0 8 8 7 15 0 22 -8 8
-15 7 -22 0z"/>
<path d="M1220 2210 c0 -5 -8 -10 -17 -11 -14 0 -15 -2 -3 -6 8 -3 17 -9 20
-13 3 -4 10 -2 16 4 8 9 7 15 -3 24 -8 8 -13 9 -13 2z"/>
<path d="M1274 2206 c-8 -8 -7 -15 0 -22 8 -8 15 -7 22 0 8 8 7 15 0 22 -8 8
-15 7 -22 0z"/>
<path d="M1344 2206 c-8 -8 -7 -15 0 -22 8 -8 15 -7 22 0 8 8 7 15 0 22 -8 8
-15 7 -22 0z"/>
<path d="M1404 2206 c-8 -9 -7 -15 3 -24 8 -8 13 -9 13 -2 0 5 8 10 18 11 13
0 14 2 2 6 -8 3 -17 9 -20 13 -3 4 -10 2 -16 -4z"/>
<path d="M1474 2206 c-8 -8 -7 -15 0 -22 8 -8 15 -7 22 0 8 8 7 15 0 22 -8 8
-15 7 -22 0z"/>
<path d="M1550 2210 c0 -5 -8 -10 -17 -11 -14 0 -15 -2 -3 -6 8 -3 17 -9 20
-13 3 -4 10 -2 16 4 8 9 7 15 -3 24 -8 8 -13 9 -13 2z"/>
<path d="M1604 2206 c-8 -8 -7 -15 0 -22 8 -8 15 -7 22 0 8 8 7 15 0 22 -8 8
-15 7 -22 0z"/>
<path d="M154 2086 c-8 -8 -7 -15 0 -22 8 -8 15 -7 22 0 8 8 7 15 0 22 -8 8
-15 7 -22 0z"/>
<path d="M230 2090 c0 -5 -8 -10 -17 -11 -14 0 -15 -2 -3 -6 8 -3 17 -9 20
-13 3 -4 10 -2 16 4 8 9 7 15 -3 24 -8 8 -13 9 -13 2z"/>
<path d="M284 2086 c-8 -9 -7 -15 3 -24 8 -8 13 -9 13 -2 0 5 8 10 18 11 13 0
14 2 2 6 -8 3 -17 9 -20 13 -3 4 -10 2 -16 -4z"/>
<path d="M354 2086 c-8 -8 -7 -15 0 -22 8 -8 15 -7 22 0 8 8 7 15 0 22 -8 8
-15 7 -22 0z"/>
<path d="M484 2086 c-8 -8 -7 -15 0 -22 8 -8 15 -7 22 0 8 8 7 15 0 22 -8 8
-15 7 -22 0z"/>
<path d="M560 2090 c0 -5 -8 -10 -17 -11 -14 0 -15 -2 -3 -6 8 -3 17 -9 20
-13 3 -4 10 -2 16 4 8 9 7 15 -3 24 -8 8 -13 9 -13 2z"/>
<path d="M614 2086 c-8 -9 -7 -15 3 -24 8 -8 13 -9 13 -2 0 5 8 10 18 11 13 0
14 2 2 6 -8 3 -17 9 -20 13 -3 4 -10 2 -16 -4z"/>
<path d="M684 2086 c-8 -8 -7 -15 0 -22 8 -8 15 -7 22 0 8 8 7 15 0 22 -8 8
-15 7 -22 0z"/>
<path d="M744 2086 c-8 -9 -7 -15 3 -24 8 -8 13 -9 13 -2 0 5 8 10 18 11 13 0
14 2 2 6 -8 3 -17 9 -20 13 -3 4 -10 2 -16 -4z"/>
<path d="M814 2086 c-8 -8 -7 -15 0 -22 8 -8 15 -7 22 0 8 8 7 15 0 22 -8 8
-15 7 -22 0z"/>
<path d="M944 2086 c-8 -8 -7 -15 0 -22 8 -8 15 -7 22 0 8 8 7 15 0 22 -8 8
-15 7 -22 0z"/>
<path d="M1014 2086 c-8 -8 -7 -15 0 -22 8 -8 15 -7 22 0 8 8 7 15 0 22 -8 8
-15 7 -22 0z"/>
<path d="M1074 2086 c-8 -9 -7 -15 3 -24 8 -8 13 -9 13 -2 0 5 8 10 18 11 13
0 14 2 2 6 -8 3 -17 9 -20 13 -3 4 -10 2 -16 -4z"/>
<path d="M1274 2086 c-8 -8 -7 -15 0 -22 8 -8 15 -7 22 0 8 8 7 15 0 22 -8 8
-15 7 -22 0z"/>
<path d="M1344 2086 c-8 -8 -7 -15 0 -22 8 -8 15 -7 22 0 8 8 7 15 0 22 -8 8
-15 7 -22 0z"/>
<path d="M1404 2086 c-8 -9 -7 -15 3 -24 8 -8 13 -9 13 -2 0 5 8 10 18 11 13
0 14 2 2 6 -8 3 -17 9 -20 13 -3 4 -10 2 -16 -4z"/>
<path d="M1550 2090 c0 -5 -8 -10 -17 -11 -14 0 -15 -2 -3 -6 8 -3 17 -9 20
-13 3 -4 10 -2 16 4 8 9 7 15 -3 24 -8 8 -13 9 -13 2z"/>
<path d="M1604 2086 c-8 -8 -7 -15 0 -22 8 -8 15 -7 22 0 8 8 7 15 0 22 -8 8
-15 7 -22 0z"/>
<path d="M1674 2086 c-8 -8 -7 -15 0 -22 8 -8 15 -7 22 0 8 8 7 15 0 22 -8 8
-15 7 -22 0z"/>
<path d="M1734 2086 c-8 -9 -7 -15 3 -24 8 -8 13 -9 13 -2 0 5 8 10 18 11 13
0 14 2 2 6 -8 3 -17 9 -20 13 -3 4 -10 2 -16 -4z"/>
<path d="M1804 2086 c-8 -8 -7 -15 0 -22 8 -8 15 -7 22 0 8 8 7 15 0 22 -8 8
-15 7 -22 0z"/>
<path d="M1880 2090 c0 -5 -8 -10 -17 -11 -14 0 -15 -2 -3 -6 8 -3 17 -9 20
-13 3 -4 10 -2 16 4 8 9 7 15 -3 24 -8 8 -13 9 -13 2z"/>
<path d="M2064 2086 c-8 -9 -7 -15 3 -24 8 -8 13 -9 13 -2 0 5 8 10 18 11 13
0 14 2 2 6 -8 3 -17 9 -20 13 -3 4 -10 2 -16 -4z"/>
<path d="M2134 2086 c-8 -8 -7 -15 0 -22 8 -8 15 -7 22 0 8 8 7 15 0 22 -8 8
-15 7 -22 0z"/>
<path d="M2210 2090 c0 -5 -8 -10 -17 -11 -14 0 -15 -2 -3 -6 8 -3 17 -9 20
-13 3 -4 10 -2 16 4 8 9 7 15 -3 24 -8 8 -13 9 -13 2z"/>
<path d="M24 1966 c-8 -8 -7 -15 0 -22 8 -8 15 -7 22 0 8 8 7 15 0 22 -8 8
-15 7 -22 0z"/>
<path d="M84 1966 c-8 -9 -7 -15 3 -24 8 -8 13 -9 13 -2 0 5 8 10 18 11 13 0
14 2 2 6 -8 3 -17 9 -20 13 -3 4 -10 2 -16 -4z"/>
<path d="M154 1966 c-8 -8 -7 -15 0 -22 8 -8 15 -7 22 0 8 8 7 15 0 22 -8 8
-15 7 -22 0z"/>
<path d="M230 1970 c0 -5 -8 -10 -17 -11 -14 0 -15 -2 -3 -6 8 -3 17 -9 20
-13 3 -4 10 -2 16 4 8 9 7 15 -3 24 -8 8 -13 9 -13 2z"/>
<path d="M284 1966 c-8 -9 -7 -15 3 -24 8 -8 13 -9 13 -2 0 5 8 10 18 11 13 0
14 2 2 6 -8 3 -17 9 -20 13 -3 4 -10 2 -16 -4z"/>
<path d="M354 1966 c-8 -8 -7 -15 0 -22 8 -8 15 -7 22 0 8 8 7 15 0 22 -8 8
-15 7 -22 0z"/>
<path d="M414 1966 c-8 -9 -7 -15 3 -24 8 -8 13 -9 13 -2 0 5 8 10 18 11 13 0
14 2 2 6 -8 3 -17 9 -20 13 -3 4 -10 2 -16 -4z"/>
<path d="M484 1966 c-8 -8 -7 -15 0 -22 8 -8 15 -7 22 0 8 8 7 15 0 22 -8 8
-15 7 -22 0z"/>
<path d="M560 1970 c0 -5 -8 -10 -17 -11 -14 0 -15 -2 -3 -6 8 -3 17 -9 20
-13 3 -4 10 -2 16 4 8 9 7 15 -3 24 -8 8 -13 9 -13 2z"/>
<path d="M614 1966 c-8 -9 -7 -15 3 -24 8 -8 13 -9 13 -2 0 5 8 10 18 11 13 0
14 2 2 6 -8 3 -17 9 -20 13 -3 4 -10 2 -16 -4z"/>
<path d="M890 1970 c0 -5 -8 -10 -17 -11 -14 0 -15 -2 -3 -6 8 -3 17 -9 20
-13 3 -4 10 -2 16 4 8 9 7 15 -3 24 -8 8 -13 9 -13 2z"/>
<path d="M944 1966 c-8 -8 -7 -15 0 -22 8 -8 15 -7 22 0 8 8 7 15 0 22 -8 8
-15 7 -22 0z"/>
<path d="M1014 1966 c-8 -8 -7 -15 0 -22 8 -8 15 -7 22 0 8 8 7 15 0 22 -8 8
-15 7 -22 0z"/>
<path d="M1344 1966 c-8 -8 -7 -15 0 -22 8 -8 15 -7 22 0 8 8 7 15 0 22 -8 8
-15 7 -22 0z"/>
<path d="M1404 1966 c-8 -9 -7 -15 3 -24 8 -8 13 -9 13 -2 0 5 8 10 18 11 13
0 14 2 2 6 -8 3 -17 9 -20 13 -3 4 -10 2 -16 -4z"/>
<path d="M1474 1966 c-8 -8 -7 -15 0 -22 8 -8 15 -7 22 0 8 8 7 15 0 22 -8 8
-15 7 -22 0z"/>
<path d="M1734 1966 c-8 -9 -7 -15 3 -24 8 -8 13 -9 13 -2 0 5 8 10 18 11 13
0 14 2 2 6 -8 3 -17 9 -20 13 -3 4 -10 2 -16 -4z"/>
<path d="M1804 1966 c-8 -8 -7 -15 0 -22 8 -8 15 -7 22 0 8 8 7 15 0 22 -8 8
-15 7 -22 0z"/>
<path d="M1880 1970 c0 -5 -8 -10 -17 -11 -14 0 -15 -2 -3 -6 8 -3 17 -9 20
-13 3 -4 10 -2 16 4 8 9 7 15 -3 24 -8 8 -13 9 -13 2z"/>
<path d="M1934 1966 c-8 -8 -7 -15 0 -22 8 -8 15 -7 22 0 8 8 7 15 0 22 -8 8
-15 7 -22 0z"/>
<path d="M2004 1966 c-8 -8 -7 -15 0 -22 8 -8 15 -7 22 0 8 8 7 15 0 22 -8 8
-15 7 -22 0z"/>
<path d="M2064 1966 c-8 -9 -7 -15 3 -24 8 -8 13 -9 13 -2 0 5 8 10 18 11 13
0 14 2 2 6 -8 3 -17 9 -20 13 -3 4 -10 2 -16 -4z"/>
<path d="M2134 1966 c-8 -8 -7 -15 0 -22 8 -8 15 -7 22 0 8 8 7 15 0 22 -8 8
-15 7 -22 0z"/>
<path d="M2210 1970 c0 -5 -8 -10 -17 -11 -14 0 -15 -2 -3 -6 8 -3 17 -9 20
-13 3 -4 10 -2 16 4 8 9 7 15 -3 24 -8 8 -13 9 -13 2z"/>
<path d="M2264 1966 c-8 -8 -7 -15 0 -22 8 -8 15 -7 22 0 8 8 7 15 0 22 -8 8
-15 7 -22 0z"/>
<path d="M2334 1966 c-8 -8 -7 -15 0 -22 8 -8 15 -7 22 0 8 8 7 15 0 22 -8 8
-15 7 -22 0z"/>
<path d="M24 1846 c-8 -8 -7 -15 0 -22 8 -8 15 -7 22 0 8 8 7 15 0 22 -8 8
-15 7 -22 0z"/>
<path d="M84 1846 c-8 -9 -7 -15 3 -24 8 -8 13 -9 13 -2 0 5 8 10 18 11 13 0
14 2 2 6 -8 3 -17 9 -20 13 -3 4 -10 2 -16 -4z"/>
<path d="M154 1846 c-8 -8 -7 -15 0 -22 8 -8 15 -7 22 0 8 8 7 15 0 22 -8 8
-15 7 -22 0z"/>
<path d="M230 1850 c0 -5 -8 -10 -17 -11 -14 0 -15 -2 -3 -6 8 -3 17 -9 20
-13 3 -4 10 -2 16 4 8 9 7 15 -3 24 -8 8 -13 9 -13 2z"/>
<path d="M284 1846 c-8 -9 -7 -15 3 -24 8 -8 13 -9 13 -2 0 5 8 10 18 11 13 0
14 2 2 6 -8 3 -17 9 -20 13 -3 4 -10 2 -16 -4z"/>
<path d="M354 1846 c-8 -8 -7 -15 0 -22 8 -8 15 -7 22 0 8 8 7 15 0 22 -8 8
-15 7 -22 0z"/>
<path d="M414 1846 c-8 -9 -7 -15 3 -24 8 -8 13 -9 13 -2 0 5 8 10 18 11 13 0
14 2 2 6 -8 3 -17 9 -20 13 -3 4 -10 2 -16 -4z"/>
<path d="M484 1846 c-8 -8 -7 -15 0 -22 8 -8 15 -7 22 0 8 8 7 15 0 22 -8 8
-15 7 -22 0z"/>
<path d="M814 1846 c-8 -8 -7 -15 0 -22 8 -8 15 -7 22 0 8 8 7 15 0 22 -8 8
-15 7 -22 0z"/>
<path d="M890 1850 c0 -5 -8 -10 -17 -11 -14 0 -15 -2 -3 -6 8 -3 17 -9 20
-13 3 -4 10 -2 16 4 8 9 7 15 -3 24 -8 8 -13 9 -13 2z"/>
<path d="M944 1846 c-8 -8 -7 -15 0 -22 8 -8 15 -7 22 0 8 8 7 15 0 22 -8 8
-15 7 -22 0z"/>
<path d="M1404 1846 c-8 -9 -7 -15 3 -24 8 -8 13 -9 13 -2 0 5 8 10 18 11 13
0 14 2 2 6 -8 3 -17 9 -20 13 -3 4 -10 2 -16 -4z"/>
<path d="M1474 1846 c-8 -8 -7 -15 0 -22 8 -8 15 -7 22 0 8 8 7 15 0 22 -8 8
-15 7 -22 0z"/>
<path d="M1550 1850 c0 -5 -8 -10 -17 -11 -14 0 -15 -2 -3 -6 8 -3 17 -9 20
-13 3 -4 10 -2 16 4 8 9 7 15 -3 24 -8 8 -13 9 -13 2z"/>
<path d="M1880 1850 c0 -5 -8 -10 -17 -11 -14 0 -15 -2 -3 -6 8 -3 17 -9 20
-13 3 -4 10 -2 16 4 8 9 7 15 -3 24 -8 8 -13 9 -13 2z"/>
<path d="M1934 1846 c-8 -8 -7 -15 0 -22 8 -8 15 -7 22 0 8 8 7 15 0 22 -8 8
-15 7 -22 0z"/>
<path d="M2004 1846 c-8 -8 -7 -15 0 -22 8 -8 15 -7 22 0 8 8 7 15 0 22 -8 8
-15 7 -22 0z"/>
<path d="M2064 1846 c-8 -9 -7 -15 3 -24 8 -8 13 -9 13 -2 0 5 8 10 18 11 13
0 14 2 2 6 -8 3 -17 9 -20 13 -3 4 -10 2 -16 -4z"/>
<path d="M2134 1846 c-8 -8 -7 -15 0 -22 8 -8 15 -7 22 0 8 8 7 15 0 22 -8 8
-15 7 -22 0z"/>
<path d="M2210 1850 c0 -5 -8 -10 -17 -11 -14 0 -15 -2 -3 -6 8 -3 17 -9 20
-13 3 -4 10 -2 16 4 8 9 7 15 -3 24 -8 8 -13 9 -13 2z"/>
<path d="M2264 1846 c-8 -8 -7 -15 0 -22 8 -8 15 -7 22 0 8 8 7 15 0 22 -8 8
-15 7 -22 0z"/>
<path d="M2334 1846 c-8 -8 -7 -15 0 -22 8 -8 15 -7 22 0 8 8 7 15 0 22 -8 8
-15 7 -22 0z"/>
<path d="M24 1726 c-8 -8 -7 -15 0 -22 8 -8 15 -7 22 0 8 8 7 15 0 22 -8 8
-15 7 -22 0z"/>
<path d="M84 1726 c-8 -9 -7 -15 3 -24 8 -8 13 -9 13 -2 0 5 8 10 18 11 13 0
14 2 2 6 -8 3 -17 9 -20 13 -3 4 -10 2 -16 -4z"/>
<path d="M154 1726 c-8 -8 -7 -15 0 -22 8 -8 15 -7 22 0 8 8 7 15 0 22 -8 8
-15 7 -22 0z"/>
<path d="M230 1730 c0 -5 -8 -10 -17 -11 -14 0 -15 -2 -3 -6 8 -3 17 -9 20
-13 3 -4 10 -2 16 4 8 9 7 15 -3 24 -8 8 -13 9 -13 2z"/>
<path d="M284 1726 c-8 -9 -7 -15 3 -24 8 -8 13 -9 13 -2 0 5 8 10 18 11 13 0
14 2 2 6 -8 3 -17 9 -20 13 -3 4 -10 2 -16 -4z"/>
<path d="M354 1726 c-8 -8 -7 -15 0 -22 8 -8 15 -7 22 0 8 8 7 15 0 22 -8 8
-15 7 -22 0z"/>
<path d="M414 1726 c-8 -9 -7 -15 3 -24 8 -8 13 -9 13 -2 0 5 8 10 18 11 13 0
14 2 2 6 -8 3 -17 9 -20 13 -3 4 -10 2 -16 -4z"/>
<path d="M744 1726 c-8 -9 -7 -15 3 -24 8 -8 13 -9 13 -2 0 5 8 10 18 11 13 0
14 2 2 6 -8 3 -17 9 -20 13 -3 4 -10 2 -16 -4z"/>
<path d="M814 1726 c-8 -8 -7 -15 0 -22 8 -8 15 -7 22 0 8 8 7 15 0 22 -8 8
-15 7 -22 0z"/>
<path d="M890 1730 c0 -5 -8 -10 -17 -11 -14 0 -15 -2 -3 -6 8 -3 17 -9 20
-13 3 -4 10 -2 16 4 8 9 7 15 -3 24 -8 8 -13 9 -13 2z"/>
<path d="M1474 1726 c-8 -8 -7 -15 0 -22 8 -8 15 -7 22 0 8 8 7 15 0 22 -8 8
-15 7 -22 0z"/>
<path d="M1550 1730 c0 -5 -8 -10 -17 -11 -14 0 -15 -2 -3 -6 8 -3 17 -9 20
-13 3 -4 10 -2 16 4 8 9 7 15 -3 24 -8 8 -13 9 -13 2z"/>
<path d="M1604 1726 c-8 -8 -7 -15 0 -22 8 -8 15 -7 22 0 8 8 7 15 0 22 -8 8
-15 7 -22 0z"/>
<path d="M1934 1726 c-8 -8 -7 -15 0 -22 8 -8 15 -7 22 0 8 8 7 15 0 22 -8 8
-15 7 -22 0z"/>
<path d="M2004 1726 c-8 -8 -7 -15 0 -22 8 -8 15 -7 22 0 8 8 7 15 0 22 -8 8
-15 7 -22 0z"/>
<path d="M2064 1726 c-8 -9 -7 -15 3 -24 8 -8 13 -9 13 -2 0 5 8 10 18 11 13
0 14 2 2 6 -8 3 -17 9 -20 13 -3 4 -10 2 -16 -4z"/>
<path d="M2134 1726 c-8 -8 -7 -15 0 -22 8 -8 15 -7 22 0 8 8 7 15 0 22 -8 8
-15 7 -22 0z"/>
<path d="M2210 1730 c0 -5 -8 -10 -17 -11 -14 0 -15 -2 -3 -6 8 -3 17 -9 20
-13 3 -4 10 -2 16 4 8 9 7 15 -3 24 -8 8 -13 9 -13 2z"/>
<path d="M2264 1726 c-8 -8 -7 -15 0 -22 8 -8 15 -7 22 0 8 8 7 15 0 22 -8 8
-15 7 -22 0z"/>
<path d="M2334 1726 c-8 -8 -7 -15 0 -22 8 -8 15 -7 22 0 8 8 7 15 0 22 -8 8
-15 7 -22 0z"/>
<path d="M154 1606 c-8 -8 -7 -15 0 -22 8 -8 15 -7 22 0 8 8 7 15 0 22 -8 8
-15 7 -22 0z"/>
<path d="M230 1610 c0 -5 -8 -10 -17 -11 -14 0 -15 -2 -3 -6 8 -3 17 -9 20
-13 3 -4 10 -2 16 4 8 9 7 15 -3 24 -8 8 -13 9 -13 2z"/>
<path d="M284 1606 c-8 -9 -7 -15 3 -24 8 -8 13 -9 13 -2 0 5 8 10 18 11 13 0
14 2 2 6 -8 3 -17 9 -20 13 -3 4 -10 2 -16 -4z"/>
<path d="M614 1606 c-8 -9 -7 -15 3 -24 8 -8 13 -9 13 -2 0 5 8 10 18 11 13 0
14 2 2 6 -8 3 -17 9 -20 13 -3 4 -10 2 -16 -4z"/>
<path d="M684 1606 c-8 -8 -7 -15 0 -22 8 -8 15 -7 22 0 8 8 7 15 0 22 -8 8
-15 7 -22 0z"/>
<path d="M744 1606 c-8 -9 -7 -15 3 -24 8 -8 13 -9 13 -2 0 5 8 10 18 11 13 0
14 2 2 6 -8 3 -17 9 -20 13 -3 4 -10 2 -16 -4z"/>
<path d="M814 1606 c-8 -8 -7 -15 0 -22 8 -8 15 -7 22 0 8 8 7 15 0 22 -8 8
-15 7 -22 0z"/>
<path d="M1550 1610 c0 -5 -8 -10 -17 -11 -14 0 -15 -2 -3 -6 8 -3 17 -9 20
-13 3 -4 10 -2 16 4 8 9 7 15 -3 24 -8 8 -13 9 -13 2z"/>
<path d="M1604 1606 c-8 -8 -7 -15 0 -22 8 -8 15 -7 22 0 8 8 7 15 0 22 -8 8
-15 7 -22 0z"/>
<path d="M1674 1606 c-8 -8 -7 -15 0 -22 8 -8 15 -7 22 0 8 8 7 15 0 22 -8 8
-15 7 -22 0z"/>
<path d="M1734 1606 c-8 -9 -7 -15 3 -24 8 -8 13 -9 13 -2 0 5 8 10 18 11 13
0 14 2 2 6 -8 3 -17 9 -20 13 -3 4 -10 2 -16 -4z"/>
<path d="M2064 1606 c-8 -9 -7 -15 3 -24 8 -8 13 -9 13 -2 0 5 8 10 18 11 13
0 14 2 2 6 -8 3 -17 9 -20 13 -3 4 -10 2 -16 -4z"/>
<path d="M2134 1606 c-8 -8 -7 -15 0 -22 8 -8 15 -7 22 0 8 8 7 15 0 22 -8 8
-15 7 -22 0z"/>
<path d="M2210 1610 c0 -5 -8 -10 -17 -11 -14 0 -15 -2 -3 -6 8 -3 17 -9 20
-13 3 -4 10 -2 16 4 8 9 7 15 -3 24 -8 8 -13 9 -13 2z"/>
<path d="M154 1486 c-8 -8 -7 -15 0 -22 8 -8 15 -7 22 0 8 8 7 15 0 22 -8 8
-15 7 -22 0z"/>
<path d="M230 1490 c0 -5 -8 -10 -17 -11 -14 0 -15 -2 -3 -6 8 -3 17 -9 20
-13 3 -4 10 -2 16 4 8 9 7 15 -3 24 -8 8 -13 9 -13 2z"/>
<path d="M284 1486 c-8 -9 -7 -15 3 -24 8 -8 13 -9 13 -2 0 5 8 10 18 11 13 0
14 2 2 6 -8 3 -17 9 -20 13 -3 4 -10 2 -16 -4z"/>
<path d="M614 1486 c-8 -9 -7 -15 3 -24 8 -8 13 -9 13 -2 0 5 8 10 18 11 13 0
14 2 2 6 -8 3 -17 9 -20 13 -3 4 -10 2 -16 -4z"/>
<path d="M684 1486 c-8 -8 -7 -15 0 -22 8 -8 15 -7 22 0 8 8 7 15 0 22 -8 8
-15 7 -22 0z"/>
<path d="M744 1486 c-8 -9 -7 -15 3 -24 8 -8 13 -9 13 -2 0 5 8 10 18 11 13 0
14 2 2 6 -8 3 -17 9 -20 13 -3 4 -10 2 -16 -4z"/>
<path d="M1604 1486 c-8 -8 -7 -15 0 -22 8 -8 15 -7 22 0 8 8 7 15 0 22 -8 8
-15 7 -22 0z"/>
<path d="M1674 1486 c-8 -8 -7 -15 0 -22 8 -8 15 -7 22 0 8 8 7 15 0 22 -8 8
-15 7 -22 0z"/>
<path d="M1734 1486 c-8 -9 -7 -15 3 -24 8 -8 13 -9 13 -2 0 5 8 10 18 11 13
0 14 2 2 6 -8 3 -17 9 -20 13 -3 4 -10 2 -16 -4z"/>
<path d="M2064 1486 c-8 -9 -7 -15 3 -24 8 -8 13 -9 13 -2 0 5 8 10 18 11 13
0 14 2 2 6 -8 3 -17 9 -20 13 -3 4 -10 2 -16 -4z"/>
<path d="M2134 1486 c-8 -8 -7 -15 0 -22 8 -8 15 -7 22 0 8 8 7 15 0 22 -8 8
-15 7 -22 0z"/>
<path d="M2210 1490 c0 -5 -8 -10 -17 -11 -14 0 -15 -2 -3 -6 8 -3 17 -9 20
-13 3 -4 10 -2 16 4 8 9 7 15 -3 24 -8 8 -13 9 -13 2z"/>
<path d="M154 1366 c-8 -8 -7 -15 0 -22 8 -8 15 -7 22 0 8 8 7 15 0 22 -8 8
-15 7 -22 0z"/>
<path d="M230 1370 c0 -5 -8 -10 -17 -11 -14 0 -15 -2 -3 -6 8 -3 17 -9 20
-13 3 -4 10 -2 16 4 8 9 7 15 -3 24 -8 8 -13 9 -13 2z"/>
<path d="M284 1366 c-8 -9 -7 -15 3 -24 8 -8 13 -9 13 -2 0 5 8 10 18 11 13 0
14 2 2 6 -8 3 -17 9 -20 13 -3 4 -10 2 -16 -4z"/>
<path d="M484 1366 c-8 -8 -7 -15 0 -22 8 -8 15 -7 22 0 8 8 7 15 0 22 -8 8
-15 7 -22 0z"/>
<path d="M560 1370 c0 -5 -8 -10 -17 -11 -14 0 -15 -2 -3 -6 8 -3 17 -9 20
-13 3 -4 10 -2 16 4 8 9 7 15 -3 24 -8 8 -13 9 -13 2z"/>
<path d="M614 1366 c-8 -9 -7 -15 3 -24 8 -8 13 -9 13 -2 0 5 8 10 18 11 13 0
14 2 2 6 -8 3 -17 9 -20 13 -3 4 -10 2 -16 -4z"/>
<path d="M1734 1366 c-8 -9 -7 -15 3 -24 8 -8 13 -9 13 -2 0 5 8 10 18 11 13
0 14 2 2 6 -8 3 -17 9 -20 13 -3 4 -10 2 -16 -4z"/>
<path d="M1804 1366 c-8 -8 -7 -15 0 -22 8 -8 15 -7 22 0 8 8 7 15 0 22 -8 8
-15 7 -22 0z"/>
<path d="M1880 1370 c0 -5 -8 -10 -17 -11 -14 0 -15 -2 -3 -6 8 -3 17 -9 20
-13 3 -4 10 -2 16 4 8 9 7 15 -3 24 -8 8 -13 9 -13 2z"/>
<path d="M2064 1366 c-8 -9 -7 -15 3 -24 8 -8 13 -9 13 -2 0 5 8 10 18 11 13
0 14 2 2 6 -8 3 -17 9 -20 13 -3 4 -10 2 -16 -4z"/>
<path d="M2134 1366 c-8 -8 -7 -15 0 -22 8 -8 15 -7 22 0 8 8 7 15 0 22 -8 8
-15 7 -22 0z"/>
<path d="M2210 1370 c0 -5 -8 -10 -17 -11 -14 0 -15 -2 -3 -6 8 -3 17 -9 20
-13 3 -4 10 -2 16 4 8 9 7 15 -3 24 -8 8 -13 9 -13 2z"/>
<path d="M154 1246 c-8 -8 -7 -15 0 -22 8 -8 15 -7 22 0 8 8 7 15 0 22 -8 8
-15 7 -22 0z"/>
<path d="M230 1250 c0 -5 -8 -10 -17 -11 -14 0 -15 -2 -3 -6 8 -3 17 -9 20
-13 3 -4 10 -2 16 4 8 9 7 15 -3 24 -8 8 -13 9 -13 2z"/>
<path d="M284 1246 c-8 -9 -7 -15 3 -24 8 -8 13 -9 13 -2 0 5 8 10 18 11 13 0
14 2 2 6 -8 3 -17 9 -20 13 -3 4 -10 2 -16 -4z"/>
<path d="M414 1246 c-8 -9 -7 -15 3 -24 8 -8 13 -9 13 -2 0 5 8 10 18 11 13 0
14 2 2 6 -8 3 -17 9 -20 13 -3 4 -10 2 -16 -4z"/>
<path d="M484 1246 c-8 -8 -7 -15 0 -22 8 -8 15 -7 22 0 8 8 7 15 0 22 -8 8
-15 7 -22 0z"/>
<path d="M560 1250 c0 -5 -8 -10 -17 -11 -14 0 -15 -2 -3 -6 8 -3 17 -9 20
-13 3 -4 10 -2 16 4 8 9 7 15 -3 24 -8 8 -13 9 -13 2z"/>
<path d="M1804 1246 c-8 -8 -7 -15 0 -22 8 -8 15 -7 22 0 8 8 7 15 0 22 -8 8
-15 7 -22 0z"/>
<path d="M1880 1250 c0 -5 -8 -10 -17 -11 -14 0 -15 -2 -3 -6 8 -3 17 -9 20
-13 3 -4 10 -2 16 4 8 9 7 15 -3 24 -8 8 -13 9 -13 2z"/>
<path d="M1934 1246 c-8 -8 -7 -15 0 -22 8 -8 15 -7 22 0 8 8 7 15 0 22 -8 8
-15 7 -22 0z"/>
<path d="M2064 1246 c-8 -9 -7 -15 3 -24 8 -8 13 -9 13 -2 0 5 8 10 18 11 13
0 14 2 2 6 -8 3 -17 9 -20 13 -3 4 -10 2 -16 -4z"/>
<path d="M2134 1246 c-8 -8 -7 -15 0 -22 8 -8 15 -7 22 0 8 8 7 15 0 22 -8 8
-15 7 -22 0z"/>
<path d="M2210 1250 c0 -5 -8 -10 -17 -11 -14 0 -15 -2 -3 -6 8 -3 17 -9 20
-13 3 -4 10 -2 16 4 8 9 7 15 -3 24 -8 8 -13 9 -13 2z"/>
<path d="M154 1126 c-8 -8 -7 -15 0 -22 8 -8 15 -7 22 0 8 8 7 15 0 22 -8 8
-15 7 -22 0z"/>
<path d="M230 1130 c0 -5 -8 -10 -17 -11 -14 0 -15 -2 -3 -6 8 -3 17 -9 20
-13 3 -4 10 -2 16 4 8 9 7 15 -3 24 -8 8 -13 9 -13 2z"/>
<path d="M284 1126 c-8 -9 -7 -15 3 -24 8 -8 13 -9 13 -2 0 5 8 10 18 11 13 0
14 2 2 6 -8 3 -17 9 -20 13 -3 4 -10 2 -16 -4z"/>
<path d="M354 1126 c-8 -8 -7 -15 0 -22 8 -8 15 -7 22 0 8 8 7 15 0 22 -8 8
-15 7 -22 0z"/>
<path d="M414 1126 c-8 -9 -7 -15 3 -24 8 -8 13 -9 13 -2 0 5 8 10 18 11 13 0
14 2 2 6 -8 3 -17 9 -20 13 -3 4 -10 2 -16 -4z"/>
<path d="M484 1126 c-8 -8 -7 -15 0 -22 8 -8 15 -7 22 0 8 8 7 15 0 22 -8 8
-15 7 -22 0z"/>
<path d="M1880 1130 c0 -5 -8 -10 -17 -11 -14 0 -15 -2 -3 -6 8 -3 17 -9 20
-13 3 -4 10 -2 16 4 8 9 7 15 -3 24 -8 8 -13 9 -13 2z"/>
<path d="M1934 1126 c-8 -8 -7 -15 0 -22 8 -8 15 -7 22 0 8 8 7 15 0 22 -8 8
-15 7 -22 0z"/>
<path d="M2004 1126 c-8 -8 -7 -15 0 -22 8 -8 15 -7 22 0 8 8 7 15 0 22 -8 8
-15 7 -22 0z"/>
<path d="M2064 1126 c-8 -9 -7 -15 3 -24 8 -8 13 -9 13 -2 0 5 8 10 18 11 13
0 14 2 2 6 -8 3 -17 9 -20 13 -3 4 -10 2 -16 -4z"/>
<path d="M2134 1126 c-8 -8 -7 -15 0 -22 8 -8 15 -7 22 0 8 8 7 15 0 22 -8 8
-15 7 -22 0z"/>
<path d="M2210 1130 c0 -5 -8 -10 -17 -11 -14 0 -15 -2 -3 -6 8 -3 17 -9 20
-13 3 -4 10 -2 16 4 8 9 7 15 -3 24 -8 8 -13 9 -13 2z"/>
<path d="M154 1006 c-8 -8 -7 -15 0 -22 8 -8 15 -7 22 0 8 8 7 15 0 22 -8 8
-15 7 -22 0z"/>
<path d="M230 1010 c0 -5 -8 -10 -17 -11 -14 0 -15 -2 -3 -6 8 -3 17 -9 20
-13 3 -4 10 -2 16 4 8 9 7 15 -3 24 -8 8 -13 9 -13 2z"/>
<path d="M284 1006 c-8 -9 -7 -15 3 -24 8 -8 13 -9 13 -2 0 5 8 10 18 11 13 0
14 2 2 6 -8 3 -17 9 -20 13 -3 4 -10 2 -16 -4z"/>
<path d="M354 1006 c-8 -8 -7 -15 0 -22 8 -8 15 -7 22 0 8 8 7 15 0 22 -8 8
-15 7 -22 0z"/>
<path d="M414 1006 c-8 -9 -7 -15 3 -24 8 -8 13 -9 13 -2 0 5 8 10 18 11 13 0
14 2 2 6 -8 3 -17 9 -20 13 -3 4 -10 2 -16 -4z"/>
<path d="M1934 1006 c-8 -8 -7 -15 0 -22 8 -8 15 -7 22 0 8 8 7 15 0 22 -8 8
-15 7 -22 0z"/>
<path d="M2004 1006 c-8 -8 -7 -15 0 -22 8 -8 15 -7 22 0 8 8 7 15 0 22 -8 8
-15 7 -22 0z"/>
<path d="M2064 1006 c-8 -9 -7 -15 3 -24 8 -8 13 -9 13 -2 0 5 8 10 18 11 13
0 14 2 2 6 -8 3 -17 9 -20 13 -3 4 -10 2 -16 -4z"/>
<path d="M2134 1006 c-8 -8 -7 -15 0 -22 8 -8 15 -7 22 0 8 8 7 15 0 22 -8 8
-15 7 -22 0z"/>
<path d="M2210 1010 c0 -5 -8 -10 -17 -11 -14 0 -15 -2 -3 -6 8 -3 17 -9 20
-13 3 -4 10 -2 16 4 8 9 7 15 -3 24 -8 8 -13 9 -13 2z"/>
<path d="M24 886 c-8 -8 -7 -15 0 -22 8 -8 15 -7 22 0 8 8 7 15 0 22 -8 8 -15
7 -22 0z"/>
<path d="M84 886 c-8 -9 -7 -15 3 -24 8 -8 13 -9 13 -2 0 5 8 10 18 11 13 0
14 2 2 6 -8 3 -17 9 -20 13 -3 4 -10 2 -16 -4z"/>
<path d="M154 886 c-8 -8 -7 -15 0 -22 8 -8 15 -7 22 0 8 8 7 15 0 22 -8 8
-15 7 -22 0z"/>
<path d="M230 890 c0 -5 -8 -10 -17 -11 -14 0 -15 -2 -3 -6 8 -3 17 -9 20 -13
3 -4 10 -2 16 4 8 9 7 15 -3 24 -8 8 -13 9 -13 2z"/>
<path d="M284 886 c-8 -9 -7 -15 3 -24 8 -8 13 -9 13 -2 0 5 8 10 18 11 13 0
14 2 2 6 -8 3 -17 9 -20 13 -3 4 -10 2 -16 -4z"/>
<path d="M354 886 c-8 -8 -7 -15 0 -22 8 -8 15 -7 22 0 8 8 7 15 0 22 -8 8
-15 7 -22 0z"/>
<path d="M414 886 c-8 -9 -7 -15 3 -24 8 -8 13 -9 13 -2 0 5 8 10 18 11 13 0
14 2 2 6 -8 3 -17 9 -20 13 -3 4 -10 2 -16 -4z"/>
<path d="M1934 886 c-8 -8 -7 -15 0 -22 8 -8 15 -7 22 0 8 8 7 15 0 22 -8 8
-15 7 -22 0z"/>
<path d="M2004 886 c-8 -8 -7 -15 0 -22 8 -8 15 -7 22 0 8 8 7 15 0 22 -8 8
-15 7 -22 0z"/>
<path d="M2064 886 c-8 -9 -7 -15 3 -24 8 -8 13 -9 13 -2 0 5 8 10 18 11 13 0
14 2 2 6 -8 3 -17 9 -20 13 -3 4 -10 2 -16 -4z"/>
<path d="M2134 886 c-8 -8 -7 -15 0 -22 8 -8 15 -7 22 0 8 8 7 15 0 22 -8 8
-15 7 -22 0z"/>
<path d="M2210 890 c0 -5 -8 -10 -17 -11 -14 0 -15 -2 -3 -6 8 -3 17 -9 20
-13 3 -4 10 -2 16 4 8 9 7 15 -3 24 -8 8 -13 9 -13 2z"/>
<path d="M2264 886 c-8 -8 -7 -15 0 -22 8 -8 15 -7 22 0 8 8 7 15 0 22 -8 8
-15 7 -22 0z"/>
<path d="M2334 886 c-8 -8 -7 -15 0 -22 8 -8 15 -7 22 0 8 8 7 15 0 22 -8 8
-15 7 -22 0z"/>
<path d="M24 766 c-8 -8 -7 -15 0 -22 8 -8 15 -7 22 0 8 8 7 15 0 22 -8 8 -15
7 -22 0z"/>
<path d="M84 766 c-8 -9 -7 -15 3 -24 8 -8 13 -9 13 -2 0 5 8 10 18 11 13 0
14 2 2 6 -8 3 -17 9 -20 13 -3 4 -10 2 -16 -4z"/>
<path d="M154 766 c-8 -8 -7 -15 0 -22 8 -8 15 -7 22 0 8 8 7 15 0 22 -8 8
-15 7 -22 0z"/>
<path d="M230 770 c0 -5 -8 -10 -17 -11 -14 0 -15 -2 -3 -6 8 -3 17 -9 20 -13
3 -4 10 -2 16 4 8 9 7 15 -3 24 -8 8 -13 9 -13 2z"/>
<path d="M284 766 c-8 -9 -7 -15 3 -24 8 -8 13 -9 13 -2 0 5 8 10 18 11 13 0
14 2 2 6 -8 3 -17 9 -20 13 -3 4 -10 2 -16 -4z"/>
<path d="M354 766 c-8 -8 -7 -15 0 -22 8 -8 15 -7 22 0 8 8 7 15 0 22 -8 8
-15 7 -22 0z"/>
<path d="M414 766 c-8 -9 -7 -15 3 -24 8 -8 13 -9 13 -2 0 5 8 10 18 11 13 0
14 2 2 6 -8 3 -17 9 -20 13 -3 4 -10 2 -16 -4z"/>
<path d="M484 766 c-8 -8 -7 -15 0 -22 8 -8 15 -7 22 0 8 8 7 15 0 22 -8 8
-15 7 -22 0z"/>
<path d="M560 770 c0 -5 -8 -10 -17 -11 -14 0 -15 -2 -3 -6 8 -3 17 -9 20 -13
3 -4 10 -2 16 4 8 9 7 15 -3 24 -8 8 -13 9 -13 2z"/>
<path d="M614 766 c-8 -9 -7 -15 3 -24 8 -8 13 -9 13 -2 0 5 8 10 18 11 13 0
14 2 2 6 -8 3 -17 9 -20 13 -3 4 -10 2 -16 -4z"/>
<path d="M684 766 c-8 -8 -7 -15 0 -22 8 -8 15 -7 22 0 8 8 7 15 0 22 -8 8
-15 7 -22 0z"/>
<path d="M744 766 c-8 -9 -7 -15 3 -24 8 -8 13 -9 13 -2 0 5 8 10 18 11 13 0
14 2 2 6 -8 3 -17 9 -20 13 -3 4 -10 2 -16 -4z"/>
<path d="M814 766 c-8 -8 -7 -15 0 -22 8 -8 15 -7 22 0 8 8 7 15 0 22 -8 8
-15 7 -22 0z"/>
<path d="M890 770 c0 -5 -8 -10 -17 -11 -14 0 -15 -2 -3 -6 8 -3 17 -9 20 -13
3 -4 10 -2 16 4 8 9 7 15 -3 24 -8 8 -13 9 -13 2z"/>
<path d="M944 766 c-8 -8 -7 -15 0 -22 8 -8 15 -7 22 0 8 8 7 15 0 22 -8 8
-15 7 -22 0z"/>
<path d="M1014 766 c-8 -8 -7 -15 0 -22 8 -8 15 -7 22 0 8 8 7 15 0 22 -8 8
-15 7 -22 0z"/>
<path d="M1074 766 c-8 -9 -7 -15 3 -24 8 -8 13 -9 13 -2 0 5 8 10 18 11 13 0
14 2 2 6 -8 3 -17 9 -20 13 -3 4 -10 2 -16 -4z"/>
<path d="M1144 766 c-8 -8 -7 -15 0 -22 8 -8 15 -7 22 0 8 8 7 15 0 22 -8 8
-15 7 -22 0z"/>
<path d="M1220 770 c0 -5 -8 -10 -17 -11 -14 0 -15 -2 -3 -6 8 -3 17 -9 20
-13 3 -4 10 -2 16 4 8 9 7 15 -3 24 -8 8 -13 9 -13 2z"/>
<path d="M1274 766 c-8 -8 -7 -15 0 -22 8 -8 15 -7 22 0 8 8 7 15 0 22 -8 8
-15 7 -22 0z"/>
<path d="M1344 766 c-8 -8 -7 -15 0 -22 8 -8 15 -7 22 0 8 8 7 15 0 22 -8 8
-15 7 -22 0z"/>
<path d="M1404 766 c-8 -9 -7 -15 3 -24 8 -8 13 -9 13 -2 0 5 8 10 18 11 13 0
14 2 2 6 -8 3 -17 9 -20 13 -3 4 -10 2 -16 -4z"/>
<path d="M1474 766 c-8 -8 -7 -15 0 -22 8 -8 15 -7 22 0 8 8 7 15 0 22 -8 8
-15 7 -22 0z"/>
<path d="M1550 770 c0 -5 -8 -10 -17 -11 -14 0 -15 -2 -3 -6 8 -3 17 -9 20
-13 3 -4 10 -2 16 4 8 9 7 15 -3 24 -8 8 -13 9 -13 2z"/>
<path d="M1604 766 c-8 -8 -7 -15 0 -22 8 -8 15 -7 22 0 8 8 7 15 0 22 -8 8
-15 7 -22 0z"/>
<path d="M1674 766 c-8 -8 -7 -15 0 -22 8 -8 15 -7 22 0 8 8 7 15 0 22 -8 8
-15 7 -22 0z"/>
<path d="M1734 766 c-8 -9 -7 -15 3 -24 8 -8 13 -9 13 -2 0 5 8 10 18 11 13 0
14 2 2 6 -8 3 -17 9 -20 13 -3 4 -10 2 -16 -4z"/>
<path d="M1804 766 c-8 -8 -7 -15 0 -22 8 -8 15 -7 22 0 8 8 7 15 0 22 -8 8
-15 7 -22 0z"/>
<path d="M1880 770 c0 -5 -8 -10 -17 -11 -14 0 -15 -2 -3 -6 8 -3 17 -9 20
-13 3 -4 10 -2 16 4 8 9 7 15 -3 24 -8 8 -13 9 -13 2z"/>
<path d="M1934 766 c-8 -8 -7 -15 0 -22 8 -8 15 -7 22 0 8 8 7 15 0 22 -8 8
-15 7 -22 0z"/>
<path d="M2004 766 c-8 -8 -7 -15 0 -22 8 -8 15 -7 22 0 8 8 7 15 0 22 -8 8
-15 7 -22 0z"/>
<path d="M2064 766 c-8 -9 -7 -15 3 -24 8 -8 13 -9 13 -2 0 5 8 10 18 11 13 0
14 2 2 6 -8 3 -17 9 -20 13 -3 4 -10 2 -16 -4z"/>
<path d="M2134 766 c-8 -8 -7 -15 0 -22 8 -8 15 -7 22 0 8 8 7 15 0 22 -8 8
-15 7 -22 0z"/>
<path d="M2210 770 c0 -5 -8 -10 -17 -11 -14 0 -15 -2 -3 -6 8 -3 17 -9 20
-13 3 -4 10 -2 16 4 8 9 7 15 -3 24 -8 8 -13 9 -13 2z"/>
<path d="M2264 766 c-8 -8 -7 -15 0 -22 8 -8 15 -7 22 0 8 8 7 15 0 22 -8 8
-15 7 -22 0z"/>
<path d="M2334 766 c-8 -8 -7 -15 0 -22 8 -8 15 -7 22 0 8 8 7 15 0 22 -8 8
-15 7 -22 0z"/>
<path d="M24 646 c-8 -8 -7 -15 0 -22 8 -8 15 -7 22 0 8 8 7 15 0 22 -8 8 -15
7 -22 0z"/>
<path d="M84 646 c-8 -9 -7 -15 3 -24 8 -8 13 -9 13 -2 0 5 8 10 18 11 13 0
14 2 2 6 -8 3 -17 9 -20 13 -3 4 -10 2 -16 -4z"/>
<path d="M154 646 c-8 -8 -7 -15 0 -22 8 -8 15 -7 22 0 8 8 7 15 0 22 -8 8
-15 7 -22 0z"/>
<path d="M230 650 c0 -5 -8 -10 -17 -11 -14 0 -15 -2 -3 -6 8 -3 17 -9 20 -13
3 -4 10 -2 16 4 8 9 7 15 -3 24 -8 8 -13 9 -13 2z"/>
<path d="M284 646 c-8 -9 -7 -15 3 -24 8 -8 13 -9 13 -2 0 5 8 10 18 11 13 0
14 2 2 6 -8 3 -17 9 -20 13 -3 4 -10 2 -16 -4z"/>
<path d="M354 646 c-8 -8 -7 -15 0 -22 8 -8 15 -7 22 0 8 8 7 15 0 22 -8 8
-15 7 -22 0z"/>
<path d="M414 646 c-8 -9 -7 -15 3 -24 8 -8 13 -9 13 -2 0 5 8 10 18 11 13 0
14 2 2 6 -8 3 -17 9 -20 13 -3 4 -10 2 -16 -4z"/>
<path d="M484 646 c-8 -8 -7 -15 0 -22 8 -8 15 -7 22 0 8 8 7 15 0 22 -8 8
-15 7 -22 0z"/>
<path d="M560 650 c0 -5 -8 -10 -17 -11 -14 0 -15 -2 -3 -6 8 -3 17 -9 20 -13
3 -4 10 -2 16 4 8 9 7 15 -3 24 -8 8 -13 9 -13 2z"/>
<path d="M614 646 c-8 -9 -7 -15 3 -24 8 -8 13 -9 13 -2 0 5 8 10 18 11 13 0
14 2 2 6 -8 3 -17 9 -20 13 -3 4 -10 2 -16 -4z"/>
<path d="M1804 646 c-8 -8 -7 -15 0 -22 8 -8 15 -7 22 0 8 8 7 15 0 22 -8 8
-15 7 -22 0z"/>
<path d="M1880 650 c0 -5 -8 -10 -17 -11 -14 0 -15 -2 -3 -6 8 -3 17 -9 20
-13 3 -4 10 -2 16 4 8 9 7 15 -3 24 -8 8 -13 9 -13 2z"/>
<path d="M1934 646 c-8 -8 -7 -15 0 -22 8 -8 15 -7 22 0 8 8 7 15 0 22 -8 8
-15 7 -22 0z"/>
<path d="M2004 646 c-8 -8 -7 -15 0 -22 8 -8 15 -7 22 0 8 8 7 15 0 22 -8 8
-15 7 -22 0z"/>
<path d="M2064 646 c-8 -9 -7 -15 3 -24 8 -8 13 -9 13 -2 0 5 8 10 18 11 13 0
14 2 2 6 -8 3 -17 9 -20 13 -3 4 -10 2 -16 -4z"/>
<path d="M2134 646 c-8 -8 -7 -15 0 -22 8 -8 15 -7 22 0 8 8 7 15 0 22 -8 8
-15 7 -22 0z"/>
<path d="M2210 650 c0 -5 -8 -10 -17 -11 -14 0 -15 -2 -3 -6 8 -3 17 -9 20
-13 3 -4 10 -2 16 4 8 9 7 15 -3 24 -8 8 -13 9 -13 2z"/>
<path d="M2264 646 c-8 -8 -7 -15 0 -22 8 -8 15 -7 22 0 8 8 7 15 0 22 -8 8
-15 7 -22 0z"/>
<path d="M2334 646 c-8 -8 -7 -15 0 -22 8 -8 15 -7 22 0 8 8 7 15 0 22 -8 8
-15 7 -22 0z"/>
<path d="M154 526 c-8 -8 -7 -15 0 -22 8 -8 15 -7 22 0 8 8 7 15 0 22 -8 8
-15 7 -22 0z"/>
<path d="M230 530 c0 -5 -8 -10 -17 -11 -14 0 -15 -2 -3 -6 8 -3 17 -9 20 -13
3 -4 10 -2 16 4 8 9 7 15 -3 24 -8 8 -13 9 -13 2z"/>
<path d="M284 526 c-8 -9 -7 -15 3 -24 8 -8 13 -9 13 -2 0 5 8 10 18 11 13 0
14 2 2 6 -8 3 -17 9 -20 13 -3 4 -10 2 -16 -4z"/>
<path d="M484 526 c-8 -8 -7 -15 0 -22 8 -8 15 -7 22 0 8 8 7 15 0 22 -8 8
-15 7 -22 0z"/>
<path d="M560 530 c0 -5 -8 -10 -17 -11 -14 0 -15 -2 -3 -6 8 -3 17 -9 20 -13
3 -4 10 -2 16 4 8 9 7 15 -3 24 -8 8 -13 9 -13 2z"/>
<path d="M614 526 c-8 -9 -7 -15 3 -24 8 -8 13 -9 13 -2 0 5 8 10 18 11 13 0
14 2 2 6 -8 3 -17 9 -20 13 -3 4 -10 2 -16 -4z"/>
<path d="M684 526 c-8 -8 -7 -15 0 -22 8 -8 15 -7 22 0 8 8 7 15 0 22 -8 8
-15 7 -22 0z"/>
<path d="M744 526 c-8 -9 -7 -15 3 -24 8 -8 13 -9 13 -2 0 5 8 10 18 11 13 0
14 2 2 6 -8 3 -17 9 -20 13 -3 4 -10 2 -16 -4z"/>
<path d="M814 526 c-8 -8 -7 -15 0 -22 8 -8 15 -7 22 0 8 8 7 15 0 22 -8 8
-15 7 -22 0z"/>
<path d="M1550 530 c0 -5 -8 -10 -17 -11 -14 0 -15 -2 -3 -6 8 -3 17 -9 20
-13 3 -4 10 -2 16 4 8 9 7 15 -3 24 -8 8 -13 9 -13 2z"/>
<path d="M1604 526 c-8 -8 -7 -15 0 -22 8 -8 15 -7 22 0 8 8 7 15 0 22 -8 8
-15 7 -22 0z"/>
<path d="M1674 526 c-8 -8 -7 -15 0 -22 8 -8 15 -7 22 0 8 8 7 15 0 22 -8 8
-15 7 -22 0z"/>
<path d="M1734 526 c-8 -9 -7 -15 3 -24 8 -8 13 -9 13 -2 0 5 8 10 18 11 13 0
14 2 2 6 -8 3 -17 9 -20 13 -3 4 -10 2 -16 -4z"/>
<path d="M1804 526 c-8 -8 -7 -15 0 -22 8 -8 15 -7 22 0 8 8 7 15 0 22 -8 8
-15 7 -22 0z"/>
<path d="M1880 530 c0 -5 -8 -10 -17 -11 -14 0 -15 -2 -3 -6 8 -3 17 -9 20
-13 3 -4 10 -2 16 4 8 9 7 15 -3 24 -8 8 -13 9 -13 2z"/>
<path d="M2064 526 c-8 -9 -7 -15 3 -24 8 -8 13 -9 13 -2 0 5 8 10 18 11 13 0
14 2 2 6 -8 3 -17 9 -20 13 -3 4 -10 2 -16 -4z"/>
<path d="M2134 526 c-8 -8 -7 -15 0 -22 8 -8 15 -7 22 0 8 8 7 15 0 22 -8 8
-15 7 -22 0z"/>
<path d="M2210 530 c0 -5 -8 -10 -17 -11 -14 0 -15 -2 -3 -6 8 -3 17 -9 20
-13 3 -4 10 -2 16 4 8 9 7 15 -3 24 -8 8 -13 9 -13 2z"/>
<path d="M744 406 c-8 -9 -7 -15 3 -24 8 -8 13 -9 13 -2 0 5 8 10 18 11 13 0
14 2 2 6 -8 3 -17 9 -20 13 -3 4 -10 2 -16 -4z"/>
<path d="M814 406 c-8 -8 -7 -15 0 -22 8 -8 15 -7 22 0 8 8 7 15 0 22 -8 8
-15 7 -22 0z"/>
<path d="M890 410 c0 -5 -8 -10 -17 -11 -14 0 -15 -2 -3 -6 8 -3 17 -9 20 -13
3 -4 10 -2 16 4 8 9 7 15 -3 24 -8 8 -13 9 -13 2z"/>
<path d="M944 406 c-8 -8 -7 -15 0 -22 8 -8 15 -7 22 0 8 8 7 15 0 22 -8 8
-15 7 -22 0z"/>
<path d="M1014 406 c-8 -8 -7 -15 0 -22 8 -8 15 -7 22 0 8 8 7 15 0 22 -8 8
-15 7 -22 0z"/>
<path d="M1074 406 c-8 -9 -7 -15 3 -24 8 -8 13 -9 13 -2 0 5 8 10 18 11 13 0
14 2 2 6 -8 3 -17 9 -20 13 -3 4 -10 2 -16 -4z"/>
<path d="M1144 406 c-8 -8 -7 -15 0 -22 8 -8 15 -7 22 0 8 8 7 15 0 22 -8 8
-15 7 -22 0z"/>
<path d="M1220 410 c0 -5 -8 -10 -17 -11 -14 0 -15 -2 -3 -6 8 -3 17 -9 20
-13 3 -4 10 -2 16 4 8 9 7 15 -3 24 -8 8 -13 9 -13 2z"/>
<path d="M1274 406 c-8 -8 -7 -15 0 -22 8 -8 15 -7 22 0 8 8 7 15 0 22 -8 8
-15 7 -22 0z"/>
<path d="M1344 406 c-8 -8 -7 -15 0 -22 8 -8 15 -7 22 0 8 8 7 15 0 22 -8 8
-15 7 -22 0z"/>
<path d="M1404 406 c-8 -9 -7 -15 3 -24 8 -8 13 -9 13 -2 0 5 8 10 18 11 13 0
14 2 2 6 -8 3 -17 9 -20 13 -3 4 -10 2 -16 -4z"/>
<path d="M1474 406 c-8 -8 -7 -15 0 -22 8 -8 15 -7 22 0 8 8 7 15 0 22 -8 8
-15 7 -22 0z"/>
<path d="M1550 410 c0 -5 -8 -10 -17 -11 -14 0 -15 -2 -3 -6 8 -3 17 -9 20
-13 3 -4 10 -2 16 4 8 9 7 15 -3 24 -8 8 -13 9 -13 2z"/>
<path d="M1604 406 c-8 -8 -7 -15 0 -22 8 -8 15 -7 22 0 8 8 7 15 0 22 -8 8
-15 7 -22 0z"/>
<path d="M944 286 c-8 -8 -7 -15 0 -22 8 -8 15 -7 22 0 8 8 7 15 0 22 -8 8
-15 7 -22 0z"/>
<path d="M1014 286 c-8 -8 -7 -15 0 -22 8 -8 15 -7 22 0 8 8 7 15 0 22 -8 8
-15 7 -22 0z"/>
<path d="M1074 286 c-8 -9 -7 -15 3 -24 8 -8 13 -9 13 -2 0 5 8 10 18 11 13 0
14 2 2 6 -8 3 -17 9 -20 13 -3 4 -10 2 -16 -4z"/>
<path d="M1144 286 c-8 -8 -7 -15 0 -22 8 -8 15 -7 22 0 8 8 7 15 0 22 -8 8
-15 7 -22 0z"/>
<path d="M1220 290 c0 -5 -8 -10 -17 -11 -14 0 -15 -2 -3 -6 8 -3 17 -9 20
-13 3 -4 10 -2 16 4 8 9 7 15 -3 24 -8 8 -13 9 -13 2z"/>
<path d="M1274 286 c-8 -8 -7 -15 0 -22 8 -8 15 -7 22 0 8 8 7 15 0 22 -8 8
-15 7 -22 0z"/>
<path d="M1344 286 c-8 -8 -7 -15 0 -22 8 -8 15 -7 22 0 8 8 7 15 0 22 -8 8
-15 7 -22 0z"/>
<path d="M1404 286 c-8 -9 -7 -15 3 -24 8 -8 13 -9 13 -2 0 5 8 10 18 11 13 0
14 2 2 6 -8 3 -17 9 -20 13 -3 4 -10 2 -16 -4z"/>
<path d="M944 166 c-8 -8 -7 -15 0 -22 8 -8 15 -7 22 0 8 8 7 15 0 22 -8 8
-15 7 -22 0z"/>
<path d="M1014 166 c-8 -8 -7 -15 0 -22 8 -8 15 -7 22 0 8 8 7 15 0 22 -8 8
-15 7 -22 0z"/>
<path d="M1074 166 c-8 -9 -7 -15 3 -24 8 -8 13 -9 13 -2 0 5 8 10 18 11 13 0
14 2 2 6 -8 3 -17 9 -20 13 -3 4 -10 2 -16 -4z"/>
<path d="M1144 166 c-8 -8 -7 -15 0 -22 8 -8 15 -7 22 0 8 8 7 15 0 22 -8 8
-15 7 -22 0z"/>
<path d="M1220 170 c0 -5 -8 -10 -17 -11 -14 0 -15 -2 -3 -6 8 -3 17 -9 20
-13 3 -4 10 -2 16 4 8 9 7 15 -3 24 -8 8 -13 9 -13 2z"/>
<path d="M1274 166 c-8 -8 -7 -15 0 -22 8 -8 15 -7 22 0 8 8 7 15 0 22 -8 8
-15 7 -22 0z"/>
<path d="M1344 166 c-8 -8 -7 -15 0 -22 8 -8 15 -7 22 0 8 8 7 15 0 22 -8 8
-15 7 -22 0z"/>
<path d="M1404 166 c-8 -9 -7 -15 3 -24 8 -8 13 -9 13 -2 0 5 8 10 18 11 13 0
14 2 2 6 -8 3 -17 9 -20 13 -3 4 -10 2 -16 -4z"/>
<path d="M1014 46 c-8 -8 -7 -15 0 -22 8 -8 15 -7 22 0 8 8 7 15 0 22 -8 8
-15 7 -22 0z"/>
<path d="M1074 46 c-8 -9 -7 -15 3 -24 8 -8 13 -9 13 -2 0 5 8 10 18 11 13 0
14 2 2 6 -8 3 -17 9 -20 13 -3 4 -10 2 -16 -4z"/>
<path d="M1144 46 c-8 -8 -7 -15 0 -22 8 -8 15 -7 22 0 8 8 7 15 0 22 -8 8
-15 7 -22 0z"/>
<path d="M1220 50 c0 -5 -8 -10 -17 -11 -14 0 -15 -2 -3 -6 8 -3 17 -9 20 -13
3 -4 10 -2 16 4 8 9 7 15 -3 24 -8 8 -13 9 -13 2z"/>
<path d="M1274 46 c-8 -8 -7 -15 0 -22 8 -8 15 -7 22 0 8 8 7 15 0 22 -8 8
-15 7 -22 0z"/>
<path d="M1344 46 c-8 -8 -7 -15 0 -22 8 -8 15 -7 22 0 8 8 7 15 0 22 -8 8
-15 7 -22 0z"/>
</g>
</svg>
