<?xml version="1.0" standalone="no"?>
<!DOCTYPE svg PUBLIC "-//W3C//DTD SVG 20010904//EN"
 "http://www.w3.org/TR/2001/REC-SVG-20010904/DTD/svg10.dtd">
<svg version="1.0" xmlns="http://www.w3.org/2000/svg"
 width="448.000000pt" height="444.000000pt" viewBox="0 0 448.000000 444.000000"
 preserveAspectRatio="xMidYMid meet">

<g transform="translate(0.000000,444.000000) scale(0.100000,-0.100000)"
fill="#000000" stroke="none">
<path d="M619 4158 c-6 -22 -5 -39 3 -45 7 -4 8 -1 3 7 -6 9 -4 12 7 8 8 -4
15 -1 15 7 0 8 -7 11 -15 7 -10 -3 -13 -1 -8 6 4 7 5 12 2 12 -3 0 -6 -1 -7
-2z"/>
<path d="M695 4150 c6 -9 4 -12 -7 -8 -8 4 -15 1 -15 -7 0 -8 7 -11 15 -7 11
4 13 1 7 -9 -5 -8 -4 -11 0 -6 13 12 15 36 3 44 -7 4 -8 1 -3 -7z"/>
<path d="M749 4158 c-6 -22 -5 -39 3 -45 7 -4 8 -1 3 7 -6 9 -4 12 7 8 8 -4
15 -1 15 7 0 8 -7 11 -15 7 -10 -3 -13 -1 -8 6 4 7 5 12 2 12 -3 0 -6 -1 -7
-2z"/>
<path d="M809 4149 c-12 -7 -12 -9 1 -9 12 0 12 -2 2 -9 -11 -7 -11 -9 1 -14
7 -3 20 -1 28 4 12 7 12 9 -1 9 -12 0 -12 2 -2 9 11 7 11 9 -1 14 -7 3 -20 1
-28 -4z"/>
<path d="M543 4135 c0 -6 8 -11 17 -11 9 0 17 5 17 11 0 6 -8 11 -17 11 -9 0
-17 -5 -17 -11z"/>
<path d="M890 4130 c0 -5 -8 -10 -17 -11 -14 0 -15 -2 -3 -6 8 -3 17 -9 20
-13 3 -4 10 -2 16 4 8 9 7 15 -3 24 -8 8 -13 9 -13 2z"/>
<path d="M3584 4126 c-8 -8 -7 -15 0 -22 8 -8 15 -7 22 0 8 8 7 15 0 22 -8 8
-15 7 -22 0z"/>
<path d="M3660 4130 c0 -5 -8 -10 -17 -11 -14 0 -15 -2 -3 -6 8 -3 17 -9 20
-13 3 -4 10 -2 16 4 8 9 7 15 -3 24 -8 8 -13 9 -13 2z"/>
<path d="M3714 4126 c-8 -9 -7 -15 3 -24 8 -8 13 -9 13 -2 0 5 8 10 18 11 13
0 14 2 2 6 -8 3 -17 9 -20 13 -3 4 -10 2 -16 -4z"/>
<path d="M3784 4126 c-8 -8 -7 -15 0 -22 8 -8 15 -7 22 0 8 8 7 15 0 22 -8 8
-15 7 -22 0z"/>
<path d="M3860 4130 c0 -5 -8 -10 -17 -11 -14 0 -15 -2 -3 -6 8 -3 17 -9 20
-13 3 -4 10 -2 16 4 8 9 7 15 -3 24 -8 8 -13 9 -13 2z"/>
<path d="M3914 4126 c-8 -8 -7 -15 0 -22 8 -8 15 -7 22 0 8 8 7 15 0 22 -8 8
-15 7 -22 0z"/>
<path d="M365 4030 c6 -9 4 -12 -7 -8 -8 4 -15 1 -15 -7 0 -8 7 -11 15 -7 11
4 13 1 7 -9 -5 -8 -4 -11 0 -6 13 12 15 36 3 44 -7 4 -8 1 -3 -7z"/>
<path d="M419 4038 c-6 -22 -5 -39 3 -45 7 -4 8 -1 3 7 -6 9 -4 12 7 8 8 -4
15 -1 15 7 0 8 -7 11 -15 7 -10 -3 -13 -1 -8 6 4 7 5 12 2 12 -3 0 -6 -1 -7
-2z"/>
<path d="M479 4029 c-12 -7 -12 -9 1 -9 12 0 12 -2 2 -9 -11 -7 -11 -9 1 -14
7 -3 20 -1 28 4 12 7 12 9 -1 9 -12 0 -12 2 -2 9 11 7 11 9 -1 14 -7 3 -20 1
-28 -4z"/>
<path d="M619 4038 c-6 -22 -5 -39 3 -45 7 -4 8 -1 3 7 -6 9 -4 12 7 8 8 -4
15 -1 15 7 0 8 -7 11 -15 7 -10 -3 -13 -1 -8 6 4 7 5 12 2 12 -3 0 -6 -1 -7
-2z"/>
<path d="M695 4030 c6 -9 4 -12 -7 -8 -8 4 -15 1 -15 -7 0 -8 7 -11 15 -7 11
4 13 1 7 -9 -5 -8 -4 -11 0 -6 13 12 15 36 3 44 -7 4 -8 1 -3 -7z"/>
<path d="M749 4038 c-6 -22 -5 -39 3 -45 7 -4 8 -1 3 7 -6 9 -4 12 7 8 8 -4
15 -1 15 7 0 8 -7 11 -15 7 -10 -3 -13 -1 -8 6 4 7 5 12 2 12 -3 0 -6 -1 -7
-2z"/>
<path d="M809 4029 c-12 -7 -12 -9 1 -9 12 0 12 -2 2 -9 -11 -7 -11 -9 1 -14
7 -3 20 -1 28 4 12 7 12 9 -1 9 -12 0 -12 2 -2 9 11 7 11 9 -1 14 -7 3 -20 1
-28 -4z"/>
<path d="M939 4029 c-12 -7 -12 -9 1 -9 12 0 12 -2 2 -9 -11 -7 -11 -9 1 -14
7 -3 20 -1 28 4 12 7 12 9 -1 9 -12 0 -12 2 -2 9 11 7 11 9 -1 14 -7 3 -20 1
-28 -4z"/>
<path d="M1025 4030 c6 -9 4 -12 -7 -8 -8 4 -15 1 -15 -7 0 -8 7 -11 15 -7 11
4 13 1 7 -9 -5 -8 -4 -11 0 -6 13 12 15 36 3 44 -7 4 -8 1 -3 -7z"/>
<path d="M4125 4030 c6 -9 4 -12 -7 -8 -8 4 -15 1 -15 -7 0 -8 7 -11 15 -7 11
4 13 1 7 -9 -5 -8 -4 -11 0 -6 13 12 15 36 3 44 -7 4 -8 1 -3 -7z"/>
<path d="M543 4015 c0 -6 8 -11 17 -11 9 0 17 5 17 11 0 6 -8 11 -17 11 -9 0
-17 -5 -17 -11z"/>
<path d="M873 4015 c0 -6 8 -11 17 -11 9 0 17 5 17 11 0 6 -8 11 -17 11 -9 0
-17 -5 -17 -11z"/>
<path d="M3454 4006 c-8 -8 -7 -15 0 -22 8 -8 15 -7 22 0 8 8 7 15 0 22 -8 8
-15 7 -22 0z"/>
<path d="M3530 4010 c0 -5 -8 -10 -17 -11 -14 0 -15 -2 -3 -6 8 -3 17 -9 20
-13 3 -4 10 -2 16 4 8 9 7 15 -3 24 -8 8 -13 9 -13 2z"/>
<path d="M3584 4006 c-8 -8 -7 -15 0 -22 8 -8 15 -7 22 0 8 8 7 15 0 22 -8 8
-15 7 -22 0z"/>
<path d="M3660 4010 c0 -5 -8 -10 -17 -11 -14 0 -15 -2 -3 -6 8 -3 17 -9 20
-13 3 -4 10 -2 16 4 8 9 7 15 -3 24 -8 8 -13 9 -13 2z"/>
<path d="M3714 4006 c-8 -9 -7 -15 3 -24 8 -8 13 -9 13 -2 0 5 8 10 18 11 13
0 14 2 2 6 -8 3 -17 9 -20 13 -3 4 -10 2 -16 -4z"/>
<path d="M3784 4006 c-8 -8 -7 -15 0 -22 8 -8 15 -7 22 0 8 8 7 15 0 22 -8 8
-15 7 -22 0z"/>
<path d="M3860 4010 c0 -5 -8 -10 -17 -11 -14 0 -15 -2 -3 -6 8 -3 17 -9 20
-13 3 -4 10 -2 16 4 8 9 7 15 -3 24 -8 8 -13 9 -13 2z"/>
<path d="M3914 4006 c-8 -8 -7 -15 0 -22 8 -8 15 -7 22 0 8 8 7 15 0 22 -8 8
-15 7 -22 0z"/>
<path d="M3990 4010 c0 -5 -8 -10 -17 -11 -14 0 -15 -2 -3 -6 8 -3 17 -9 20
-13 3 -4 10 -2 16 4 8 9 7 15 -3 24 -8 8 -13 9 -13 2z"/>
<path d="M4044 4006 c-8 -9 -7 -15 3 -24 8 -8 13 -9 13 -2 0 5 8 10 18 11 13
0 14 2 2 6 -8 3 -17 9 -20 13 -3 4 -10 2 -16 -4z"/>
<path d="M289 3918 c-6 -22 -5 -39 3 -45 7 -4 8 -1 3 7 -6 9 -4 12 7 8 8 -4
15 -1 15 7 0 8 -7 11 -15 7 -10 -3 -13 -1 -8 6 4 7 5 12 2 12 -3 0 -6 -1 -7
-2z"/>
<path d="M365 3910 c6 -9 4 -12 -7 -8 -8 4 -15 1 -15 -7 0 -8 7 -11 15 -7 11
4 13 1 7 -9 -5 -8 -4 -11 0 -6 13 12 15 36 3 44 -7 4 -8 1 -3 -7z"/>
<path d="M419 3918 c-6 -22 -5 -39 3 -45 7 -4 8 -1 3 7 -6 9 -4 12 7 8 8 -4
15 -1 15 7 0 8 -7 11 -15 7 -10 -3 -13 -1 -8 6 4 7 5 12 2 12 -3 0 -6 -1 -7
-2z"/>
<path d="M479 3909 c-12 -7 -12 -9 1 -9 12 0 12 -2 2 -9 -11 -7 -11 -9 1 -14
7 -3 20 -1 28 4 12 7 12 9 -1 9 -12 0 -12 2 -2 9 11 7 11 9 -1 14 -7 3 -20 1
-28 -4z"/>
<path d="M619 3918 c-6 -22 -5 -39 3 -45 7 -4 8 -1 3 7 -6 9 -4 12 7 8 8 -4
15 -1 15 7 0 8 -7 11 -15 7 -10 -3 -13 -1 -8 6 4 7 5 12 2 12 -3 0 -6 -1 -7
-2z"/>
<path d="M695 3910 c6 -9 4 -12 -7 -8 -8 4 -15 1 -15 -7 0 -8 7 -11 15 -7 11
4 13 1 7 -9 -5 -8 -4 -11 0 -6 13 12 15 36 3 44 -7 4 -8 1 -3 -7z"/>
<path d="M749 3918 c-6 -22 -5 -39 3 -45 7 -4 8 -1 3 7 -6 9 -4 12 7 8 8 -4
15 -1 15 7 0 8 -7 11 -15 7 -10 -3 -13 -1 -8 6 4 7 5 12 2 12 -3 0 -6 -1 -7
-2z"/>
<path d="M809 3909 c-12 -7 -12 -9 1 -9 12 0 12 -2 2 -9 -11 -7 -11 -9 1 -14
7 -3 20 -1 28 4 12 7 12 9 -1 9 -12 0 -12 2 -2 9 11 7 11 9 -1 14 -7 3 -20 1
-28 -4z"/>
<path d="M939 3909 c-12 -7 -12 -9 1 -9 12 0 12 -2 2 -9 -11 -7 -11 -9 1 -14
7 -3 20 -1 28 4 12 7 12 9 -1 9 -12 0 -12 2 -2 9 11 7 11 9 -1 14 -7 3 -20 1
-28 -4z"/>
<path d="M1025 3910 c6 -9 4 -12 -7 -8 -8 4 -15 1 -15 -7 0 -8 7 -11 15 -7 11
4 13 1 7 -9 -5 -8 -4 -11 0 -6 13 12 15 36 3 44 -7 4 -8 1 -3 -7z"/>
<path d="M1079 3918 c-6 -22 -5 -39 3 -45 7 -4 8 -1 3 7 -6 9 -4 12 7 8 8 -4
15 -1 15 7 0 8 -7 11 -15 7 -10 -3 -13 -1 -8 6 4 7 5 12 2 12 -3 0 -6 -1 -7
-2z"/>
<path d="M3579 3909 c-12 -7 -12 -9 1 -9 12 0 12 -2 2 -9 -11 -7 -11 -9 1 -14
7 -3 20 -1 28 4 12 7 12 9 -1 9 -12 0 -12 2 -2 9 11 7 11 9 -1 14 -7 3 -20 1
-28 -4z"/>
<path d="M3795 3910 c6 -9 4 -12 -7 -8 -8 4 -15 1 -15 -7 0 -8 7 -11 15 -7 11
4 13 1 7 -9 -5 -8 -4 -11 0 -6 13 12 15 36 3 44 -7 4 -8 1 -3 -7z"/>
<path d="M543 3895 c0 -6 8 -11 17 -11 9 0 17 5 17 11 0 6 -8 11 -17 11 -9 0
-17 -5 -17 -11z"/>
<path d="M873 3895 c0 -6 8 -11 17 -11 9 0 17 5 17 11 0 6 -8 11 -17 11 -9 0
-17 -5 -17 -11z"/>
<path d="M4173 3895 c0 -6 8 -11 17 -11 9 0 17 5 17 11 0 6 -8 11 -17 11 -9 0
-17 -5 -17 -11z"/>
<path d="M3384 3886 c-8 -9 -7 -15 3 -24 8 -8 13 -9 13 -2 0 5 8 10 18 11 13
0 14 2 2 6 -8 3 -17 9 -20 13 -3 4 -10 2 -16 -4z"/>
<path d="M3454 3886 c-8 -8 -7 -15 0 -22 8 -8 15 -7 22 0 8 8 7 15 0 22 -8 8
-15 7 -22 0z"/>
<path d="M3530 3890 c0 -5 -8 -10 -17 -11 -14 0 -15 -2 -3 -6 8 -3 17 -9 20
-13 3 -4 10 -2 16 4 8 9 7 15 -3 24 -8 8 -13 9 -13 2z"/>
<path d="M3660 3890 c0 -5 -8 -10 -17 -11 -14 0 -15 -2 -3 -6 8 -3 17 -9 20
-13 3 -4 10 -2 16 4 8 9 7 15 -3 24 -8 8 -13 9 -13 2z"/>
<path d="M3714 3886 c-8 -9 -7 -15 3 -24 8 -8 13 -9 13 -2 0 5 8 10 18 11 13
0 14 2 2 6 -8 3 -17 9 -20 13 -3 4 -10 2 -16 -4z"/>
<path d="M3860 3890 c0 -5 -8 -10 -17 -11 -14 0 -15 -2 -3 -6 8 -3 17 -9 20
-13 3 -4 10 -2 16 4 8 9 7 15 -3 24 -8 8 -13 9 -13 2z"/>
<path d="M3914 3886 c-8 -8 -7 -15 0 -22 8 -8 15 -7 22 0 8 8 7 15 0 22 -8 8
-15 7 -22 0z"/>
<path d="M3990 3890 c0 -5 -8 -10 -17 -11 -14 0 -15 -2 -3 -6 8 -3 17 -9 20
-13 3 -4 10 -2 16 4 8 9 7 15 -3 24 -8 8 -13 9 -13 2z"/>
<path d="M4044 3886 c-8 -9 -7 -15 3 -24 8 -8 13 -9 13 -2 0 5 8 10 18 11 13
0 14 2 2 6 -8 3 -17 9 -20 13 -3 4 -10 2 -16 -4z"/>
<path d="M4114 3886 c-8 -8 -7 -15 0 -22 8 -8 15 -7 22 0 8 8 7 15 0 22 -8 8
-15 7 -22 0z"/>
<path d="M289 3798 c-6 -22 -5 -39 3 -45 7 -4 8 -1 3 7 -6 9 -4 12 7 8 8 -4
15 -1 15 7 0 8 -7 11 -15 7 -10 -3 -13 -1 -8 6 4 7 5 12 2 12 -3 0 -6 -1 -7
-2z"/>
<path d="M365 3790 c6 -9 4 -12 -7 -8 -8 4 -15 1 -15 -7 0 -8 7 -11 15 -7 11
4 13 1 7 -9 -5 -8 -4 -11 0 -6 13 12 15 36 3 44 -7 4 -8 1 -3 -7z"/>
<path d="M419 3798 c-6 -22 -5 -39 3 -45 7 -4 8 -1 3 7 -6 9 -4 12 7 8 8 -4
15 -1 15 7 0 8 -7 11 -15 7 -10 -3 -13 -1 -8 6 4 7 5 12 2 12 -3 0 -6 -1 -7
-2z"/>
<path d="M479 3789 c-12 -7 -12 -9 1 -9 12 0 12 -2 2 -9 -11 -7 -11 -9 1 -14
7 -3 20 -1 28 4 12 7 12 9 -1 9 -12 0 -12 2 -2 9 11 7 11 9 -1 14 -7 3 -20 1
-28 -4z"/>
<path d="M619 3798 c-6 -22 -5 -39 3 -45 7 -4 8 -1 3 7 -6 9 -4 12 7 8 8 -4
15 -1 15 7 0 8 -7 11 -15 7 -10 -3 -13 -1 -8 6 4 7 5 12 2 12 -3 0 -6 -1 -7
-2z"/>
<path d="M695 3790 c6 -9 4 -12 -7 -8 -8 4 -15 1 -15 -7 0 -8 7 -11 15 -7 11
4 13 1 7 -9 -5 -8 -4 -11 0 -6 13 12 15 36 3 44 -7 4 -8 1 -3 -7z"/>
<path d="M749 3798 c-6 -22 -5 -39 3 -45 7 -4 8 -1 3 7 -6 9 -4 12 7 8 8 -4
15 -1 15 7 0 8 -7 11 -15 7 -10 -3 -13 -1 -8 6 4 7 5 12 2 12 -3 0 -6 -1 -7
-2z"/>
<path d="M809 3789 c-12 -7 -12 -9 1 -9 12 0 12 -2 2 -9 -11 -7 -11 -9 1 -14
7 -3 20 -1 28 4 12 7 12 9 -1 9 -12 0 -12 2 -2 9 11 7 11 9 -1 14 -7 3 -20 1
-28 -4z"/>
<path d="M939 3789 c-12 -7 -12 -9 1 -9 12 0 12 -2 2 -9 -11 -7 -11 -9 1 -14
7 -3 20 -1 28 4 12 7 12 9 -1 9 -12 0 -12 2 -2 9 11 7 11 9 -1 14 -7 3 -20 1
-28 -4z"/>
<path d="M1025 3790 c6 -9 4 -12 -7 -8 -8 4 -15 1 -15 -7 0 -8 7 -11 15 -7 11
4 13 1 7 -9 -5 -8 -4 -11 0 -6 13 12 15 36 3 44 -7 4 -8 1 -3 -7z"/>
<path d="M1079 3798 c-6 -22 -5 -39 3 -45 7 -4 8 -1 3 7 -6 9 -4 12 7 8 8 -4
15 -1 15 7 0 8 -7 11 -15 7 -10 -3 -13 -1 -8 6 4 7 5 12 2 12 -3 0 -6 -1 -7
-2z"/>
<path d="M3909 3789 c-12 -7 -12 -9 1 -9 12 0 12 -2 2 -9 -11 -7 -11 -9 1 -14
7 -3 20 -1 28 4 12 7 12 9 -1 9 -12 0 -12 2 -2 9 11 7 11 9 -1 14 -7 3 -20 1
-28 -4z"/>
<path d="M543 3775 c0 -6 8 -11 17 -11 9 0 17 5 17 11 0 6 -8 11 -17 11 -9 0
-17 -5 -17 -11z"/>
<path d="M873 3775 c0 -6 8 -11 17 -11 9 0 17 5 17 11 0 6 -8 11 -17 11 -9 0
-17 -5 -17 -11z"/>
<path d="M3384 3766 c-8 -9 -7 -15 3 -24 8 -8 13 -9 13 -2 0 5 8 10 18 11 13
0 14 2 2 6 -8 3 -17 9 -20 13 -3 4 -10 2 -16 -4z"/>
<path d="M3454 3766 c-8 -8 -7 -15 0 -22 8 -8 15 -7 22 0 8 8 7 15 0 22 -8 8
-15 7 -22 0z"/>
<path d="M3530 3770 c0 -5 -8 -10 -17 -11 -14 0 -15 -2 -3 -6 8 -3 17 -9 20
-13 3 -4 10 -2 16 4 8 9 7 15 -3 24 -8 8 -13 9 -13 2z"/>
<path d="M3584 3766 c-8 -8 -7 -15 0 -22 8 -8 15 -7 22 0 8 8 7 15 0 22 -8 8
-15 7 -22 0z"/>
<path d="M3660 3770 c0 -5 -8 -10 -17 -11 -14 0 -15 -2 -3 -6 8 -3 17 -9 20
-13 3 -4 10 -2 16 4 8 9 7 15 -3 24 -8 8 -13 9 -13 2z"/>
<path d="M3714 3766 c-8 -9 -7 -15 3 -24 8 -8 13 -9 13 -2 0 5 8 10 18 11 13
0 14 2 2 6 -8 3 -17 9 -20 13 -3 4 -10 2 -16 -4z"/>
<path d="M3784 3766 c-8 -8 -7 -15 0 -22 8 -8 15 -7 22 0 8 8 7 15 0 22 -8 8
-15 7 -22 0z"/>
<path d="M3860 3770 c0 -5 -8 -10 -17 -11 -14 0 -15 -2 -3 -6 8 -3 17 -9 20
-13 3 -4 10 -2 16 4 8 9 7 15 -3 24 -8 8 -13 9 -13 2z"/>
<path d="M3990 3770 c0 -5 -8 -10 -17 -11 -14 0 -15 -2 -3 -6 8 -3 17 -9 20
-13 3 -4 10 -2 16 4 8 9 7 15 -3 24 -8 8 -13 9 -13 2z"/>
<path d="M4044 3766 c-8 -9 -7 -15 3 -24 8 -8 13 -9 13 -2 0 5 8 10 18 11 13
0 14 2 2 6 -8 3 -17 9 -20 13 -3 4 -10 2 -16 -4z"/>
<path d="M4114 3766 c-8 -8 -7 -15 0 -22 8 -8 15 -7 22 0 8 8 7 15 0 22 -8 8
-15 7 -22 0z"/>
<path d="M4190 3770 c0 -5 -8 -10 -17 -11 -14 0 -15 -2 -3 -6 8 -3 17 -9 20
-13 3 -4 10 -2 16 4 8 9 7 15 -3 24 -8 8 -13 9 -13 2z"/>
<path d="M289 3678 c-6 -22 -5 -39 3 -45 7 -4 8 -1 3 7 -6 9 -4 12 7 8 8 -4
15 -1 15 7 0 8 -7 11 -15 7 -10 -3 -13 -1 -8 6 4 7 5 12 2 12 -3 0 -6 -1 -7
-2z"/>
<path d="M365 3670 c6 -9 4 -12 -7 -8 -8 4 -15 1 -15 -7 0 -8 7 -11 15 -7 11
4 13 1 7 -9 -5 -8 -4 -11 0 -6 13 12 15 36 3 44 -7 4 -8 1 -3 -7z"/>
<path d="M419 3678 c-6 -22 -5 -39 3 -45 7 -4 8 -1 3 7 -6 9 -4 12 7 8 8 -4
15 -1 15 7 0 8 -7 11 -15 7 -10 -3 -13 -1 -8 6 4 7 5 12 2 12 -3 0 -6 -1 -7
-2z"/>
<path d="M479 3669 c-12 -7 -12 -9 1 -9 12 0 12 -2 2 -9 -11 -7 -11 -9 1 -14
7 -3 20 -1 28 4 12 7 12 9 -1 9 -12 0 -12 2 -2 9 11 7 11 9 -1 14 -7 3 -20 1
-28 -4z"/>
<path d="M619 3678 c-6 -22 -5 -39 3 -45 7 -4 8 -1 3 7 -6 9 -4 12 7 8 8 -4
15 -1 15 7 0 8 -7 11 -15 7 -10 -3 -13 -1 -8 6 4 7 5 12 2 12 -3 0 -6 -1 -7
-2z"/>
<path d="M695 3670 c6 -9 4 -12 -7 -8 -8 4 -15 1 -15 -7 0 -8 7 -11 15 -7 11
4 13 1 7 -9 -5 -8 -4 -11 0 -6 13 12 15 36 3 44 -7 4 -8 1 -3 -7z"/>
<path d="M749 3678 c-6 -22 -5 -39 3 -45 7 -4 8 -1 3 7 -6 9 -4 12 7 8 8 -4
15 -1 15 7 0 8 -7 11 -15 7 -10 -3 -13 -1 -8 6 4 7 5 12 2 12 -3 0 -6 -1 -7
-2z"/>
<path d="M809 3669 c-12 -7 -12 -9 1 -9 12 0 12 -2 2 -9 -11 -7 -11 -9 1 -14
7 -3 20 -1 28 4 12 7 12 9 -1 9 -12 0 -12 2 -2 9 11 7 11 9 -1 14 -7 3 -20 1
-28 -4z"/>
<path d="M939 3669 c-12 -7 -12 -9 1 -9 12 0 12 -2 2 -9 -11 -7 -11 -9 1 -14
7 -3 20 -1 28 4 12 7 12 9 -1 9 -12 0 -12 2 -2 9 11 7 11 9 -1 14 -7 3 -20 1
-28 -4z"/>
<path d="M1025 3670 c6 -9 4 -12 -7 -8 -8 4 -15 1 -15 -7 0 -8 7 -11 15 -7 11
4 13 1 7 -9 -5 -8 -4 -11 0 -6 13 12 15 36 3 44 -7 4 -8 1 -3 -7z"/>
<path d="M1079 3678 c-6 -22 -5 -39 3 -45 7 -4 8 -1 3 7 -6 9 -4 12 7 8 8 -4
15 -1 15 7 0 8 -7 11 -15 7 -10 -3 -13 -1 -8 6 4 7 5 12 2 12 -3 0 -6 -1 -7
-2z"/>
<path d="M3719 3678 c-6 -22 -5 -39 3 -45 7 -4 8 -1 3 7 -6 9 -4 12 7 8 8 -4
15 -1 15 7 0 8 -7 11 -15 7 -10 -3 -13 -1 -8 6 4 7 5 12 2 12 -3 0 -6 -1 -7
-2z"/>
<path d="M4049 3678 c-6 -22 -5 -39 3 -45 7 -4 8 -1 3 7 -6 9 -4 12 7 8 8 -4
15 -1 15 7 0 8 -7 11 -15 7 -10 -3 -13 -1 -8 6 4 7 5 12 2 12 -3 0 -6 -1 -7
-2z"/>
<path d="M543 3655 c0 -6 8 -11 17 -11 9 0 17 5 17 11 0 6 -8 11 -17 11 -9 0
-17 -5 -17 -11z"/>
<path d="M873 3655 c0 -6 8 -11 17 -11 9 0 17 5 17 11 0 6 -8 11 -17 11 -9 0
-17 -5 -17 -11z"/>
<path d="M3513 3655 c0 -6 8 -11 17 -11 9 0 17 5 17 11 0 6 -8 11 -17 11 -9 0
-17 -5 -17 -11z"/>
<path d="M3384 3646 c-8 -9 -7 -15 3 -24 8 -8 13 -9 13 -2 0 5 8 10 18 11 13
0 14 2 2 6 -8 3 -17 9 -20 13 -3 4 -10 2 -16 -4z"/>
<path d="M3454 3646 c-8 -8 -7 -15 0 -22 8 -8 15 -7 22 0 8 8 7 15 0 22 -8 8
-15 7 -22 0z"/>
<path d="M3584 3646 c-8 -8 -7 -15 0 -22 8 -8 15 -7 22 0 8 8 7 15 0 22 -8 8
-15 7 -22 0z"/>
<path d="M3660 3650 c0 -5 -8 -10 -17 -11 -14 0 -15 -2 -3 -6 8 -3 17 -9 20
-13 3 -4 10 -2 16 4 8 9 7 15 -3 24 -8 8 -13 9 -13 2z"/>
<path d="M3784 3646 c-8 -8 -7 -15 0 -22 8 -8 15 -7 22 0 8 8 7 15 0 22 -8 8
-15 7 -22 0z"/>
<path d="M3860 3650 c0 -5 -8 -10 -17 -11 -14 0 -15 -2 -3 -6 8 -3 17 -9 20
-13 3 -4 10 -2 16 4 8 9 7 15 -3 24 -8 8 -13 9 -13 2z"/>
<path d="M3914 3646 c-8 -8 -7 -15 0 -22 8 -8 15 -7 22 0 8 8 7 15 0 22 -8 8
-15 7 -22 0z"/>
<path d="M3990 3650 c0 -5 -8 -10 -17 -11 -14 0 -15 -2 -3 -6 8 -3 17 -9 20
-13 3 -4 10 -2 16 4 8 9 7 15 -3 24 -8 8 -13 9 -13 2z"/>
<path d="M4114 3646 c-8 -8 -7 -15 0 -22 8 -8 15 -7 22 0 8 8 7 15 0 22 -8 8
-15 7 -22 0z"/>
<path d="M4190 3650 c0 -5 -8 -10 -17 -11 -14 0 -15 -2 -3 -6 8 -3 17 -9 20
-13 3 -4 10 -2 16 4 8 9 7 15 -3 24 -8 8 -13 9 -13 2z"/>
<path d="M365 3550 c6 -9 4 -12 -7 -8 -8 4 -15 1 -15 -7 0 -8 7 -11 15 -7 11
4 13 1 7 -9 -5 -8 -4 -11 0 -6 13 12 15 36 3 44 -7 4 -8 1 -3 -7z"/>
<path d="M419 3558 c-6 -22 -5 -39 3 -45 7 -4 8 -1 3 7 -6 9 -4 12 7 8 8 -4
15 -1 15 7 0 8 -7 11 -15 7 -10 -3 -13 -1 -8 6 4 7 5 12 2 12 -3 0 -6 -1 -7
-2z"/>
<path d="M479 3549 c-12 -7 -12 -9 1 -9 12 0 12 -2 2 -9 -11 -7 -11 -9 1 -14
7 -3 20 -1 28 4 12 7 12 9 -1 9 -12 0 -12 2 -2 9 11 7 11 9 -1 14 -7 3 -20 1
-28 -4z"/>
<path d="M619 3558 c-6 -22 -5 -39 3 -45 7 -4 8 -1 3 7 -6 9 -4 12 7 8 8 -4
15 -1 15 7 0 8 -7 11 -15 7 -10 -3 -13 -1 -8 6 4 7 5 12 2 12 -3 0 -6 -1 -7
-2z"/>
<path d="M695 3550 c6 -9 4 -12 -7 -8 -8 4 -15 1 -15 -7 0 -8 7 -11 15 -7 11
4 13 1 7 -9 -5 -8 -4 -11 0 -6 13 12 15 36 3 44 -7 4 -8 1 -3 -7z"/>
<path d="M749 3558 c-6 -22 -5 -39 3 -45 7 -4 8 -1 3 7 -6 9 -4 12 7 8 8 -4
15 -1 15 7 0 8 -7 11 -15 7 -10 -3 -13 -1 -8 6 4 7 5 12 2 12 -3 0 -6 -1 -7
-2z"/>
<path d="M809 3549 c-12 -7 -12 -9 1 -9 12 0 12 -2 2 -9 -11 -7 -11 -9 1 -14
7 -3 20 -1 28 4 12 7 12 9 -1 9 -12 0 -12 2 -2 9 11 7 11 9 -1 14 -7 3 -20 1
-28 -4z"/>
<path d="M939 3549 c-12 -7 -12 -9 1 -9 12 0 12 -2 2 -9 -11 -7 -11 -9 1 -14
7 -3 20 -1 28 4 12 7 12 9 -1 9 -12 0 -12 2 -2 9 11 7 11 9 -1 14 -7 3 -20 1
-28 -4z"/>
<path d="M1025 3550 c6 -9 4 -12 -7 -8 -8 4 -15 1 -15 -7 0 -8 7 -11 15 -7 11
4 13 1 7 -9 -5 -8 -4 -11 0 -6 13 12 15 36 3 44 -7 4 -8 1 -3 -7z"/>
<path d="M1079 3558 c-6 -22 -5 -39 3 -45 7 -4 8 -1 3 7 -6 9 -4 12 7 8 8 -4
15 -1 15 7 0 8 -7 11 -15 7 -10 -3 -13 -1 -8 6 4 7 5 12 2 12 -3 0 -6 -1 -7
-2z"/>
<path d="M3389 3558 c-6 -22 -5 -39 3 -45 7 -4 8 -1 3 7 -6 9 -4 12 7 8 8 -4
15 -1 15 7 0 8 -7 11 -15 7 -10 -3 -13 -1 -8 6 4 7 5 12 2 12 -3 0 -6 -1 -7
-2z"/>
<path d="M543 3535 c0 -6 8 -11 17 -11 9 0 17 5 17 11 0 6 -8 11 -17 11 -9 0
-17 -5 -17 -11z"/>
<path d="M873 3535 c0 -6 8 -11 17 -11 9 0 17 5 17 11 0 6 -8 11 -17 11 -9 0
-17 -5 -17 -11z"/>
<path d="M3843 3535 c0 -6 8 -11 17 -11 9 0 17 5 17 11 0 6 -8 11 -17 11 -9 0
-17 -5 -17 -11z"/>
<path d="M1734 3526 c-8 -9 -7 -15 3 -24 8 -8 13 -9 13 -2 0 5 8 10 18 11 13
0 14 2 2 6 -8 3 -17 9 -20 13 -3 4 -10 2 -16 -4z"/>
<path d="M1804 3526 c-8 -8 -7 -15 0 -22 8 -8 15 -7 22 0 8 8 7 15 0 22 -8 8
-15 7 -22 0z"/>
<path d="M1880 3530 c0 -5 -8 -10 -17 -11 -14 0 -15 -2 -3 -6 8 -3 17 -9 20
-13 3 -4 10 -2 16 4 8 9 7 15 -3 24 -8 8 -13 9 -13 2z"/>
<path d="M1934 3526 c-8 -8 -7 -15 0 -22 8 -8 15 -7 22 0 8 8 7 15 0 22 -8 8
-15 7 -22 0z"/>
<path d="M2004 3526 c-8 -8 -7 -15 0 -22 8 -8 15 -7 22 0 8 8 7 15 0 22 -8 8
-15 7 -22 0z"/>
<path d="M2064 3526 c-8 -9 -7 -15 3 -24 8 -8 13 -9 13 -2 0 5 8 10 18 11 13
0 14 2 2 6 -8 3 -17 9 -20 13 -3 4 -10 2 -16 -4z"/>
<path d="M2134 3526 c-8 -8 -7 -15 0 -22 8 -8 15 -7 22 0 8 8 7 15 0 22 -8 8
-15 7 -22 0z"/>
<path d="M2210 3530 c0 -5 -8 -10 -17 -11 -14 0 -15 -2 -3 -6 8 -3 17 -9 20
-13 3 -4 10 -2 16 4 8 9 7 15 -3 24 -8 8 -13 9 -13 2z"/>
<path d="M2264 3526 c-8 -8 -7 -15 0 -22 8 -8 15 -7 22 0 8 8 7 15 0 22 -8 8
-15 7 -22 0z"/>
<path d="M2334 3526 c-8 -8 -7 -15 0 -22 8 -8 15 -7 22 0 8 8 7 15 0 22 -8 8
-15 7 -22 0z"/>
<path d="M2394 3526 c-8 -9 -7 -15 3 -24 8 -8 13 -9 13 -2 0 5 8 10 18 11 13
0 14 2 2 6 -8 3 -17 9 -20 13 -3 4 -10 2 -16 -4z"/>
<path d="M2464 3526 c-8 -8 -7 -15 0 -22 8 -8 15 -7 22 0 8 8 7 15 0 22 -8 8
-15 7 -22 0z"/>
<path d="M2540 3530 c0 -5 -8 -10 -17 -11 -14 0 -15 -2 -3 -6 8 -3 17 -9 20
-13 3 -4 10 -2 16 4 8 9 7 15 -3 24 -8 8 -13 9 -13 2z"/>
<path d="M2594 3526 c-8 -8 -7 -15 0 -22 8 -8 15 -7 22 0 8 8 7 15 0 22 -8 8
-15 7 -22 0z"/>
<path d="M2664 3526 c-8 -8 -7 -15 0 -22 8 -8 15 -7 22 0 8 8 7 15 0 22 -8 8
-15 7 -22 0z"/>
<path d="M2724 3526 c-8 -9 -7 -15 3 -24 8 -8 13 -9 13 -2 0 5 8 10 18 11 13
0 14 2 2 6 -8 3 -17 9 -20 13 -3 4 -10 2 -16 -4z"/>
<path d="M3454 3526 c-8 -8 -7 -15 0 -22 8 -8 15 -7 22 0 8 8 7 15 0 22 -8 8
-15 7 -22 0z"/>
<path d="M3530 3530 c0 -5 -8 -10 -17 -11 -14 0 -15 -2 -3 -6 8 -3 17 -9 20
-13 3 -4 10 -2 16 4 8 9 7 15 -3 24 -8 8 -13 9 -13 2z"/>
<path d="M3584 3526 c-8 -8 -7 -15 0 -22 8 -8 15 -7 22 0 8 8 7 15 0 22 -8 8
-15 7 -22 0z"/>
<path d="M3660 3530 c0 -5 -8 -10 -17 -11 -14 0 -15 -2 -3 -6 8 -3 17 -9 20
-13 3 -4 10 -2 16 4 8 9 7 15 -3 24 -8 8 -13 9 -13 2z"/>
<path d="M3714 3526 c-8 -9 -7 -15 3 -24 8 -8 13 -9 13 -2 0 5 8 10 18 11 13
0 14 2 2 6 -8 3 -17 9 -20 13 -3 4 -10 2 -16 -4z"/>
<path d="M3784 3526 c-8 -8 -7 -15 0 -22 8 -8 15 -7 22 0 8 8 7 15 0 22 -8 8
-15 7 -22 0z"/>
<path d="M3914 3526 c-8 -8 -7 -15 0 -22 8 -8 15 -7 22 0 8 8 7 15 0 22 -8 8
-15 7 -22 0z"/>
<path d="M3990 3530 c0 -5 -8 -10 -17 -11 -14 0 -15 -2 -3 -6 8 -3 17 -9 20
-13 3 -4 10 -2 16 4 8 9 7 15 -3 24 -8 8 -13 9 -13 2z"/>
<path d="M4044 3526 c-8 -9 -7 -15 3 -24 8 -8 13 -9 13 -2 0 5 8 10 18 11 13
0 14 2 2 6 -8 3 -17 9 -20 13 -3 4 -10 2 -16 -4z"/>
<path d="M4114 3526 c-8 -8 -7 -15 0 -22 8 -8 15 -7 22 0 8 8 7 15 0 22 -8 8
-15 7 -22 0z"/>
<path d="M419 3438 c-6 -22 -5 -39 3 -45 7 -4 8 -1 3 7 -6 9 -4 12 7 8 8 -4
15 -1 15 7 0 8 -7 11 -15 7 -10 -3 -13 -1 -8 6 4 7 5 12 2 12 -3 0 -6 -1 -7
-2z"/>
<path d="M479 3429 c-12 -7 -12 -9 1 -9 12 0 12 -2 2 -9 -11 -7 -11 -9 1 -14
7 -3 20 -1 28 4 12 7 12 9 -1 9 -12 0 -12 2 -2 9 11 7 11 9 -1 14 -7 3 -20 1
-28 -4z"/>
<path d="M619 3438 c-6 -22 -5 -39 3 -45 7 -4 8 -1 3 7 -6 9 -4 12 7 8 8 -4
15 -1 15 7 0 8 -7 11 -15 7 -10 -3 -13 -1 -8 6 4 7 5 12 2 12 -3 0 -6 -1 -7
-2z"/>
<path d="M695 3430 c6 -9 4 -12 -7 -8 -8 4 -15 1 -15 -7 0 -8 7 -11 15 -7 11
4 13 1 7 -9 -5 -8 -4 -11 0 -6 13 12 15 36 3 44 -7 4 -8 1 -3 -7z"/>
<path d="M749 3438 c-6 -22 -5 -39 3 -45 7 -4 8 -1 3 7 -6 9 -4 12 7 8 8 -4
15 -1 15 7 0 8 -7 11 -15 7 -10 -3 -13 -1 -8 6 4 7 5 12 2 12 -3 0 -6 -1 -7
-2z"/>
<path d="M809 3429 c-12 -7 -12 -9 1 -9 12 0 12 -2 2 -9 -11 -7 -11 -9 1 -14
7 -3 20 -1 28 4 12 7 12 9 -1 9 -12 0 -12 2 -2 9 11 7 11 9 -1 14 -7 3 -20 1
-28 -4z"/>
<path d="M939 3429 c-12 -7 -12 -9 1 -9 12 0 12 -2 2 -9 -11 -7 -11 -9 1 -14
7 -3 20 -1 28 4 12 7 12 9 -1 9 -12 0 -12 2 -2 9 11 7 11 9 -1 14 -7 3 -20 1
-28 -4z"/>
<path d="M543 3415 c0 -6 8 -11 17 -11 9 0 17 5 17 11 0 6 -8 11 -17 11 -9 0
-17 -5 -17 -11z"/>
<path d="M873 3415 c0 -6 8 -11 17 -11 9 0 17 5 17 11 0 6 -8 11 -17 11 -9 0
-17 -5 -17 -11z"/>
<path d="M3643 3415 c0 -6 8 -11 17 -11 9 0 17 5 17 11 0 6 -8 11 -17 11 -9 0
-17 -5 -17 -11z"/>
<path d="M3973 3415 c0 -6 8 -11 17 -11 9 0 17 5 17 11 0 6 -8 11 -17 11 -9 0
-17 -5 -17 -11z"/>
<path d="M1550 3410 c0 -5 -8 -10 -17 -11 -14 0 -15 -2 -3 -6 8 -3 17 -9 20
-13 3 -4 10 -2 16 4 8 9 7 15 -3 24 -8 8 -13 9 -13 2z"/>
<path d="M1604 3406 c-8 -8 -7 -15 0 -22 8 -8 15 -7 22 0 8 8 7 15 0 22 -8 8
-15 7 -22 0z"/>
<path d="M1674 3406 c-8 -8 -7 -15 0 -22 8 -8 15 -7 22 0 8 8 7 15 0 22 -8 8
-15 7 -22 0z"/>
<path d="M1734 3406 c-8 -9 -7 -15 3 -24 8 -8 13 -9 13 -2 0 5 8 10 18 11 13
0 14 2 2 6 -8 3 -17 9 -20 13 -3 4 -10 2 -16 -4z"/>
<path d="M1804 3406 c-8 -8 -7 -15 0 -22 8 -8 15 -7 22 0 8 8 7 15 0 22 -8 8
-15 7 -22 0z"/>
<path d="M1880 3410 c0 -5 -8 -10 -17 -11 -14 0 -15 -2 -3 -6 8 -3 17 -9 20
-13 3 -4 10 -2 16 4 8 9 7 15 -3 24 -8 8 -13 9 -13 2z"/>
<path d="M1934 3406 c-8 -8 -7 -15 0 -22 8 -8 15 -7 22 0 8 8 7 15 0 22 -8 8
-15 7 -22 0z"/>
<path d="M2004 3406 c-8 -8 -7 -15 0 -22 8 -8 15 -7 22 0 8 8 7 15 0 22 -8 8
-15 7 -22 0z"/>
<path d="M2064 3406 c-8 -9 -7 -15 3 -24 8 -8 13 -9 13 -2 0 5 8 10 18 11 13
0 14 2 2 6 -8 3 -17 9 -20 13 -3 4 -10 2 -16 -4z"/>
<path d="M2134 3406 c-8 -8 -7 -15 0 -22 8 -8 15 -7 22 0 8 8 7 15 0 22 -8 8
-15 7 -22 0z"/>
<path d="M2210 3410 c0 -5 -8 -10 -17 -11 -14 0 -15 -2 -3 -6 8 -3 17 -9 20
-13 3 -4 10 -2 16 4 8 9 7 15 -3 24 -8 8 -13 9 -13 2z"/>
<path d="M2264 3406 c-8 -8 -7 -15 0 -22 8 -8 15 -7 22 0 8 8 7 15 0 22 -8 8
-15 7 -22 0z"/>
<path d="M2334 3406 c-8 -8 -7 -15 0 -22 8 -8 15 -7 22 0 8 8 7 15 0 22 -8 8
-15 7 -22 0z"/>
<path d="M2394 3406 c-8 -9 -7 -15 3 -24 8 -8 13 -9 13 -2 0 5 8 10 18 11 13
0 14 2 2 6 -8 3 -17 9 -20 13 -3 4 -10 2 -16 -4z"/>
<path d="M2464 3406 c-8 -8 -7 -15 0 -22 8 -8 15 -7 22 0 8 8 7 15 0 22 -8 8
-15 7 -22 0z"/>
<path d="M2540 3410 c0 -5 -8 -10 -17 -11 -14 0 -15 -2 -3 -6 8 -3 17 -9 20
-13 3 -4 10 -2 16 4 8 9 7 15 -3 24 -8 8 -13 9 -13 2z"/>
<path d="M2594 3406 c-8 -8 -7 -15 0 -22 8 -8 15 -7 22 0 8 8 7 15 0 22 -8 8
-15 7 -22 0z"/>
<path d="M2664 3406 c-8 -8 -7 -15 0 -22 8 -8 15 -7 22 0 8 8 7 15 0 22 -8 8
-15 7 -22 0z"/>
<path d="M2724 3406 c-8 -9 -7 -15 3 -24 8 -8 13 -9 13 -2 0 5 8 10 18 11 13
0 14 2 2 6 -8 3 -17 9 -20 13 -3 4 -10 2 -16 -4z"/>
<path d="M2794 3406 c-8 -8 -7 -15 0 -22 8 -8 15 -7 22 0 8 8 7 15 0 22 -8 8
-15 7 -22 0z"/>
<path d="M2870 3410 c0 -5 -8 -10 -17 -11 -14 0 -15 -2 -3 -6 8 -3 17 -9 20
-13 3 -4 10 -2 16 4 8 9 7 15 -3 24 -8 8 -13 9 -13 2z"/>
<path d="M2924 3406 c-8 -8 -7 -15 0 -22 8 -8 15 -7 22 0 8 8 7 15 0 22 -8 8
-15 7 -22 0z"/>
<path d="M3530 3410 c0 -5 -8 -10 -17 -11 -14 0 -15 -2 -3 -6 8 -3 17 -9 20
-13 3 -4 10 -2 16 4 8 9 7 15 -3 24 -8 8 -13 9 -13 2z"/>
<path d="M3584 3406 c-8 -8 -7 -15 0 -22 8 -8 15 -7 22 0 8 8 7 15 0 22 -8 8
-15 7 -22 0z"/>
<path d="M3714 3406 c-8 -9 -7 -15 3 -24 8 -8 13 -9 13 -2 0 5 8 10 18 11 13
0 14 2 2 6 -8 3 -17 9 -20 13 -3 4 -10 2 -16 -4z"/>
<path d="M3784 3406 c-8 -8 -7 -15 0 -22 8 -8 15 -7 22 0 8 8 7 15 0 22 -8 8
-15 7 -22 0z"/>
<path d="M3860 3410 c0 -5 -8 -10 -17 -11 -14 0 -15 -2 -3 -6 8 -3 17 -9 20
-13 3 -4 10 -2 16 4 8 9 7 15 -3 24 -8 8 -13 9 -13 2z"/>
<path d="M3914 3406 c-8 -8 -7 -15 0 -22 8 -8 15 -7 22 0 8 8 7 15 0 22 -8 8
-15 7 -22 0z"/>
<path d="M4044 3406 c-8 -9 -7 -15 3 -24 8 -8 13 -9 13 -2 0 5 8 10 18 11 13
0 14 2 2 6 -8 3 -17 9 -20 13 -3 4 -10 2 -16 -4z"/>
<path d="M1344 3286 c-8 -8 -7 -15 0 -22 8 -8 15 -7 22 0 8 8 7 15 0 22 -8 8
-15 7 -22 0z"/>
<path d="M1404 3286 c-8 -9 -7 -15 3 -24 8 -8 13 -9 13 -2 0 5 8 10 18 11 13
0 14 2 2 6 -8 3 -17 9 -20 13 -3 4 -10 2 -16 -4z"/>
<path d="M1474 3286 c-8 -8 -7 -15 0 -22 8 -8 15 -7 22 0 8 8 7 15 0 22 -8 8
-15 7 -22 0z"/>
<path d="M1550 3290 c0 -5 -8 -10 -17 -11 -14 0 -15 -2 -3 -6 8 -3 17 -9 20
-13 3 -4 10 -2 16 4 8 9 7 15 -3 24 -8 8 -13 9 -13 2z"/>
<path d="M1604 3286 c-8 -8 -7 -15 0 -22 8 -8 15 -7 22 0 8 8 7 15 0 22 -8 8
-15 7 -22 0z"/>
<path d="M1674 3286 c-8 -8 -7 -15 0 -22 8 -8 15 -7 22 0 8 8 7 15 0 22 -8 8
-15 7 -22 0z"/>
<path d="M1734 3286 c-8 -9 -7 -15 3 -24 8 -8 13 -9 13 -2 0 5 8 10 18 11 13
0 14 2 2 6 -8 3 -17 9 -20 13 -3 4 -10 2 -16 -4z"/>
<path d="M1804 3286 c-8 -8 -7 -15 0 -22 8 -8 15 -7 22 0 8 8 7 15 0 22 -8 8
-15 7 -22 0z"/>
<path d="M1880 3290 c0 -5 -8 -10 -17 -11 -14 0 -15 -2 -3 -6 8 -3 17 -9 20
-13 3 -4 10 -2 16 4 8 9 7 15 -3 24 -8 8 -13 9 -13 2z"/>
<path d="M1934 3286 c-8 -8 -7 -15 0 -22 8 -8 15 -7 22 0 8 8 7 15 0 22 -8 8
-15 7 -22 0z"/>
<path d="M2004 3286 c-8 -8 -7 -15 0 -22 8 -8 15 -7 22 0 8 8 7 15 0 22 -8 8
-15 7 -22 0z"/>
<path d="M2064 3286 c-8 -9 -7 -15 3 -24 8 -8 13 -9 13 -2 0 5 8 10 18 11 13
0 14 2 2 6 -8 3 -17 9 -20 13 -3 4 -10 2 -16 -4z"/>
<path d="M2134 3286 c-8 -8 -7 -15 0 -22 8 -8 15 -7 22 0 8 8 7 15 0 22 -8 8
-15 7 -22 0z"/>
<path d="M2210 3290 c0 -5 -8 -10 -17 -11 -14 0 -15 -2 -3 -6 8 -3 17 -9 20
-13 3 -4 10 -2 16 4 8 9 7 15 -3 24 -8 8 -13 9 -13 2z"/>
<path d="M2264 3286 c-8 -8 -7 -15 0 -22 8 -8 15 -7 22 0 8 8 7 15 0 22 -8 8
-15 7 -22 0z"/>
<path d="M2334 3286 c-8 -8 -7 -15 0 -22 8 -8 15 -7 22 0 8 8 7 15 0 22 -8 8
-15 7 -22 0z"/>
<path d="M2394 3286 c-8 -9 -7 -15 3 -24 8 -8 13 -9 13 -2 0 5 8 10 18 11 13
0 14 2 2 6 -8 3 -17 9 -20 13 -3 4 -10 2 -16 -4z"/>
<path d="M2464 3286 c-8 -8 -7 -15 0 -22 8 -8 15 -7 22 0 8 8 7 15 0 22 -8 8
-15 7 -22 0z"/>
<path d="M2540 3290 c0 -5 -8 -10 -17 -11 -14 0 -15 -2 -3 -6 8 -3 17 -9 20
-13 3 -4 10 -2 16 4 8 9 7 15 -3 24 -8 8 -13 9 -13 2z"/>
<path d="M2594 3286 c-8 -8 -7 -15 0 -22 8 -8 15 -7 22 0 8 8 7 15 0 22 -8 8
-15 7 -22 0z"/>
<path d="M2664 3286 c-8 -8 -7 -15 0 -22 8 -8 15 -7 22 0 8 8 7 15 0 22 -8 8
-15 7 -22 0z"/>
<path d="M2724 3286 c-8 -9 -7 -15 3 -24 8 -8 13 -9 13 -2 0 5 8 10 18 11 13
0 14 2 2 6 -8 3 -17 9 -20 13 -3 4 -10 2 -16 -4z"/>
<path d="M2794 3286 c-8 -8 -7 -15 0 -22 8 -8 15 -7 22 0 8 8 7 15 0 22 -8 8
-15 7 -22 0z"/>
<path d="M2870 3290 c0 -5 -8 -10 -17 -11 -14 0 -15 -2 -3 -6 8 -3 17 -9 20
-13 3 -4 10 -2 16 4 8 9 7 15 -3 24 -8 8 -13 9 -13 2z"/>
<path d="M2924 3286 c-8 -8 -7 -15 0 -22 8 -8 15 -7 22 0 8 8 7 15 0 22 -8 8
-15 7 -22 0z"/>
<path d="M2994 3286 c-8 -8 -7 -15 0 -22 8 -8 15 -7 22 0 8 8 7 15 0 22 -8 8
-15 7 -22 0z"/>
<path d="M3054 3286 c-8 -9 -7 -15 3 -24 8 -8 13 -9 13 -2 0 5 8 10 18 11 13
0 14 2 2 6 -8 3 -17 9 -20 13 -3 4 -10 2 -16 -4z"/>
<path d="M3124 3286 c-8 -8 -7 -15 0 -22 8 -8 15 -7 22 0 8 8 7 15 0 22 -8 8
-15 7 -22 0z"/>
<path d="M1220 3170 c0 -5 -8 -10 -17 -11 -14 0 -15 -2 -3 -6 8 -3 17 -9 20
-13 3 -4 10 -2 16 4 8 9 7 15 -3 24 -8 8 -13 9 -13 2z"/>
<path d="M1274 3166 c-8 -8 -7 -15 0 -22 8 -8 15 -7 22 0 8 8 7 15 0 22 -8 8
-15 7 -22 0z"/>
<path d="M1344 3166 c-8 -8 -7 -15 0 -22 8 -8 15 -7 22 0 8 8 7 15 0 22 -8 8
-15 7 -22 0z"/>
<path d="M1404 3166 c-8 -9 -7 -15 3 -24 8 -8 13 -9 13 -2 0 5 8 10 18 11 13
0 14 2 2 6 -8 3 -17 9 -20 13 -3 4 -10 2 -16 -4z"/>
<path d="M1474 3166 c-8 -8 -7 -15 0 -22 8 -8 15 -7 22 0 8 8 7 15 0 22 -8 8
-15 7 -22 0z"/>
<path d="M1550 3170 c0 -5 -8 -10 -17 -11 -14 0 -15 -2 -3 -6 8 -3 17 -9 20
-13 3 -4 10 -2 16 4 8 9 7 15 -3 24 -8 8 -13 9 -13 2z"/>
<path d="M1604 3166 c-8 -8 -7 -15 0 -22 8 -8 15 -7 22 0 8 8 7 15 0 22 -8 8
-15 7 -22 0z"/>
<path d="M1674 3166 c-8 -8 -7 -15 0 -22 8 -8 15 -7 22 0 8 8 7 15 0 22 -8 8
-15 7 -22 0z"/>
<path d="M1734 3166 c-8 -9 -7 -15 3 -24 8 -8 13 -9 13 -2 0 5 8 10 18 11 13
0 14 2 2 6 -8 3 -17 9 -20 13 -3 4 -10 2 -16 -4z"/>
<path d="M1804 3166 c-8 -8 -7 -15 0 -22 8 -8 15 -7 22 0 8 8 7 15 0 22 -8 8
-15 7 -22 0z"/>
<path d="M1880 3170 c0 -5 -8 -10 -17 -11 -14 0 -15 -2 -3 -6 8 -3 17 -9 20
-13 3 -4 10 -2 16 4 8 9 7 15 -3 24 -8 8 -13 9 -13 2z"/>
<path d="M1934 3166 c-8 -8 -7 -15 0 -22 8 -8 15 -7 22 0 8 8 7 15 0 22 -8 8
-15 7 -22 0z"/>
<path d="M2004 3166 c-8 -8 -7 -15 0 -22 8 -8 15 -7 22 0 8 8 7 15 0 22 -8 8
-15 7 -22 0z"/>
<path d="M2064 3166 c-8 -9 -7 -15 3 -24 8 -8 13 -9 13 -2 0 5 8 10 18 11 13
0 14 2 2 6 -8 3 -17 9 -20 13 -3 4 -10 2 -16 -4z"/>
<path d="M2134 3166 c-8 -8 -7 -15 0 -22 8 -8 15 -7 22 0 8 8 7 15 0 22 -8 8
-15 7 -22 0z"/>
<path d="M2210 3170 c0 -5 -8 -10 -17 -11 -14 0 -15 -2 -3 -6 8 -3 17 -9 20
-13 3 -4 10 -2 16 4 8 9 7 15 -3 24 -8 8 -13 9 -13 2z"/>
<path d="M2264 3166 c-8 -8 -7 -15 0 -22 8 -8 15 -7 22 0 8 8 7 15 0 22 -8 8
-15 7 -22 0z"/>
<path d="M2334 3166 c-8 -8 -7 -15 0 -22 8 -8 15 -7 22 0 8 8 7 15 0 22 -8 8
-15 7 -22 0z"/>
<path d="M2394 3166 c-8 -9 -7 -15 3 -24 8 -8 13 -9 13 -2 0 5 8 10 18 11 13
0 14 2 2 6 -8 3 -17 9 -20 13 -3 4 -10 2 -16 -4z"/>
<path d="M2464 3166 c-8 -8 -7 -15 0 -22 8 -8 15 -7 22 0 8 8 7 15 0 22 -8 8
-15 7 -22 0z"/>
<path d="M2540 3170 c0 -5 -8 -10 -17 -11 -14 0 -15 -2 -3 -6 8 -3 17 -9 20
-13 3 -4 10 -2 16 4 8 9 7 15 -3 24 -8 8 -13 9 -13 2z"/>
<path d="M2594 3166 c-8 -8 -7 -15 0 -22 8 -8 15 -7 22 0 8 8 7 15 0 22 -8 8
-15 7 -22 0z"/>
<path d="M2664 3166 c-8 -8 -7 -15 0 -22 8 -8 15 -7 22 0 8 8 7 15 0 22 -8 8
-15 7 -22 0z"/>
<path d="M2724 3166 c-8 -9 -7 -15 3 -24 8 -8 13 -9 13 -2 0 5 8 10 18 11 13
0 14 2 2 6 -8 3 -17 9 -20 13 -3 4 -10 2 -16 -4z"/>
<path d="M2794 3166 c-8 -8 -7 -15 0 -22 8 -8 15 -7 22 0 8 8 7 15 0 22 -8 8
-15 7 -22 0z"/>
<path d="M2870 3170 c0 -5 -8 -10 -17 -11 -14 0 -15 -2 -3 -6 8 -3 17 -9 20
-13 3 -4 10 -2 16 4 8 9 7 15 -3 24 -8 8 -13 9 -13 2z"/>
<path d="M2924 3166 c-8 -8 -7 -15 0 -22 8 -8 15 -7 22 0 8 8 7 15 0 22 -8 8
-15 7 -22 0z"/>
<path d="M2994 3166 c-8 -8 -7 -15 0 -22 8 -8 15 -7 22 0 8 8 7 15 0 22 -8 8
-15 7 -22 0z"/>
<path d="M3054 3166 c-8 -9 -7 -15 3 -24 8 -8 13 -9 13 -2 0 5 8 10 18 11 13
0 14 2 2 6 -8 3 -17 9 -20 13 -3 4 -10 2 -16 -4z"/>
<path d="M3124 3166 c-8 -8 -7 -15 0 -22 8 -8 15 -7 22 0 8 8 7 15 0 22 -8 8
-15 7 -22 0z"/>
<path d="M3200 3170 c0 -5 -8 -10 -17 -11 -14 0 -15 -2 -3 -6 8 -3 17 -9 20
-13 3 -4 10 -2 16 4 8 9 7 15 -3 24 -8 8 -13 9 -13 2z"/>
<path d="M3254 3166 c-8 -8 -7 -15 0 -22 8 -8 15 -7 22 0 8 8 7 15 0 22 -8 8
-15 7 -22 0z"/>
<path d="M1144 3046 c-8 -8 -7 -15 0 -22 8 -8 15 -7 22 0 8 8 7 15 0 22 -8 8
-15 7 -22 0z"/>
<path d="M1220 3050 c0 -5 -8 -10 -17 -11 -14 0 -15 -2 -3 -6 8 -3 17 -9 20
-13 3 -4 10 -2 16 4 8 9 7 15 -3 24 -8 8 -13 9 -13 2z"/>
<path d="M1274 3046 c-8 -8 -7 -15 0 -22 8 -8 15 -7 22 0 8 8 7 15 0 22 -8 8
-15 7 -22 0z"/>
<path d="M1344 3046 c-8 -8 -7 -15 0 -22 8 -8 15 -7 22 0 8 8 7 15 0 22 -8 8
-15 7 -22 0z"/>
<path d="M1404 3046 c-8 -9 -7 -15 3 -24 8 -8 13 -9 13 -2 0 5 8 10 18 11 13
0 14 2 2 6 -8 3 -17 9 -20 13 -3 4 -10 2 -16 -4z"/>
<path d="M1474 3046 c-8 -8 -7 -15 0 -22 8 -8 15 -7 22 0 8 8 7 15 0 22 -8 8
-15 7 -22 0z"/>
<path d="M1550 3050 c0 -5 -8 -10 -17 -11 -14 0 -15 -2 -3 -6 8 -3 17 -9 20
-13 3 -4 10 -2 16 4 8 9 7 15 -3 24 -8 8 -13 9 -13 2z"/>
<path d="M1604 3046 c-8 -8 -7 -15 0 -22 8 -8 15 -7 22 0 8 8 7 15 0 22 -8 8
-15 7 -22 0z"/>
<path d="M1674 3046 c-8 -8 -7 -15 0 -22 8 -8 15 -7 22 0 8 8 7 15 0 22 -8 8
-15 7 -22 0z"/>
<path d="M1734 3046 c-8 -9 -7 -15 3 -24 8 -8 13 -9 13 -2 0 5 8 10 18 11 13
0 14 2 2 6 -8 3 -17 9 -20 13 -3 4 -10 2 -16 -4z"/>
<path d="M1804 3046 c-8 -8 -7 -15 0 -22 8 -8 15 -7 22 0 8 8 7 15 0 22 -8 8
-15 7 -22 0z"/>
<path d="M1880 3050 c0 -5 -8 -10 -17 -11 -14 0 -15 -2 -3 -6 8 -3 17 -9 20
-13 3 -4 10 -2 16 4 8 9 7 15 -3 24 -8 8 -13 9 -13 2z"/>
<path d="M1934 3046 c-8 -8 -7 -15 0 -22 8 -8 15 -7 22 0 8 8 7 15 0 22 -8 8
-15 7 -22 0z"/>
<path d="M2004 3046 c-8 -8 -7 -15 0 -22 8 -8 15 -7 22 0 8 8 7 15 0 22 -8 8
-15 7 -22 0z"/>
<path d="M2064 3046 c-8 -9 -7 -15 3 -24 8 -8 13 -9 13 -2 0 5 8 10 18 11 13
0 14 2 2 6 -8 3 -17 9 -20 13 -3 4 -10 2 -16 -4z"/>
<path d="M2134 3046 c-8 -8 -7 -15 0 -22 8 -8 15 -7 22 0 8 8 7 15 0 22 -8 8
-15 7 -22 0z"/>
<path d="M2210 3050 c0 -5 -8 -10 -17 -11 -14 0 -15 -2 -3 -6 8 -3 17 -9 20
-13 3 -4 10 -2 16 4 8 9 7 15 -3 24 -8 8 -13 9 -13 2z"/>
<path d="M2264 3046 c-8 -8 -7 -15 0 -22 8 -8 15 -7 22 0 8 8 7 15 0 22 -8 8
-15 7 -22 0z"/>
<path d="M2334 3046 c-8 -8 -7 -15 0 -22 8 -8 15 -7 22 0 8 8 7 15 0 22 -8 8
-15 7 -22 0z"/>
<path d="M2394 3046 c-8 -9 -7 -15 3 -24 8 -8 13 -9 13 -2 0 5 8 10 18 11 13
0 14 2 2 6 -8 3 -17 9 -20 13 -3 4 -10 2 -16 -4z"/>
<path d="M2464 3046 c-8 -8 -7 -15 0 -22 8 -8 15 -7 22 0 8 8 7 15 0 22 -8 8
-15 7 -22 0z"/>
<path d="M2540 3050 c0 -5 -8 -10 -17 -11 -14 0 -15 -2 -3 -6 8 -3 17 -9 20
-13 3 -4 10 -2 16 4 8 9 7 15 -3 24 -8 8 -13 9 -13 2z"/>
<path d="M2594 3046 c-8 -8 -7 -15 0 -22 8 -8 15 -7 22 0 8 8 7 15 0 22 -8 8
-15 7 -22 0z"/>
<path d="M2664 3046 c-8 -8 -7 -15 0 -22 8 -8 15 -7 22 0 8 8 7 15 0 22 -8 8
-15 7 -22 0z"/>
<path d="M2724 3046 c-8 -9 -7 -15 3 -24 8 -8 13 -9 13 -2 0 5 8 10 18 11 13
0 14 2 2 6 -8 3 -17 9 -20 13 -3 4 -10 2 -16 -4z"/>
<path d="M2794 3046 c-8 -8 -7 -15 0 -22 8 -8 15 -7 22 0 8 8 7 15 0 22 -8 8
-15 7 -22 0z"/>
<path d="M2870 3050 c0 -5 -8 -10 -17 -11 -14 0 -15 -2 -3 -6 8 -3 17 -9 20
-13 3 -4 10 -2 16 4 8 9 7 15 -3 24 -8 8 -13 9 -13 2z"/>
<path d="M2924 3046 c-8 -8 -7 -15 0 -22 8 -8 15 -7 22 0 8 8 7 15 0 22 -8 8
-15 7 -22 0z"/>
<path d="M2994 3046 c-8 -8 -7 -15 0 -22 8 -8 15 -7 22 0 8 8 7 15 0 22 -8 8
-15 7 -22 0z"/>
<path d="M3054 3046 c-8 -9 -7 -15 3 -24 8 -8 13 -9 13 -2 0 5 8 10 18 11 13
0 14 2 2 6 -8 3 -17 9 -20 13 -3 4 -10 2 -16 -4z"/>
<path d="M3124 3046 c-8 -8 -7 -15 0 -22 8 -8 15 -7 22 0 8 8 7 15 0 22 -8 8
-15 7 -22 0z"/>
<path d="M3200 3050 c0 -5 -8 -10 -17 -11 -14 0 -15 -2 -3 -6 8 -3 17 -9 20
-13 3 -4 10 -2 16 4 8 9 7 15 -3 24 -8 8 -13 9 -13 2z"/>
<path d="M3254 3046 c-8 -8 -7 -15 0 -22 8 -8 15 -7 22 0 8 8 7 15 0 22 -8 8
-15 7 -22 0z"/>
<path d="M3324 3046 c-8 -8 -7 -15 0 -22 8 -8 15 -7 22 0 8 8 7 15 0 22 -8 8
-15 7 -22 0z"/>
<path d="M1014 2926 c-8 -8 -7 -15 0 -22 8 -8 15 -7 22 0 8 8 7 15 0 22 -8 8
-15 7 -22 0z"/>
<path d="M1074 2926 c-8 -9 -7 -15 3 -24 8 -8 13 -9 13 -2 0 5 8 10 18 11 13
0 14 2 2 6 -8 3 -17 9 -20 13 -3 4 -10 2 -16 -4z"/>
<path d="M1144 2926 c-8 -8 -7 -15 0 -22 8 -8 15 -7 22 0 8 8 7 15 0 22 -8 8
-15 7 -22 0z"/>
<path d="M1220 2930 c0 -5 -8 -10 -17 -11 -14 0 -15 -2 -3 -6 8 -3 17 -9 20
-13 3 -4 10 -2 16 4 8 9 7 15 -3 24 -8 8 -13 9 -13 2z"/>
<path d="M1274 2926 c-8 -8 -7 -15 0 -22 8 -8 15 -7 22 0 8 8 7 15 0 22 -8 8
-15 7 -22 0z"/>
<path d="M1344 2926 c-8 -8 -7 -15 0 -22 8 -8 15 -7 22 0 8 8 7 15 0 22 -8 8
-15 7 -22 0z"/>
<path d="M1404 2926 c-8 -9 -7 -15 3 -24 8 -8 13 -9 13 -2 0 5 8 10 18 11 13
0 14 2 2 6 -8 3 -17 9 -20 13 -3 4 -10 2 -16 -4z"/>
<path d="M1474 2926 c-8 -8 -7 -15 0 -22 8 -8 15 -7 22 0 8 8 7 15 0 22 -8 8
-15 7 -22 0z"/>
<path d="M1550 2930 c0 -5 -8 -10 -17 -11 -14 0 -15 -2 -3 -6 8 -3 17 -9 20
-13 3 -4 10 -2 16 4 8 9 7 15 -3 24 -8 8 -13 9 -13 2z"/>
<path d="M1604 2926 c-8 -8 -7 -15 0 -22 8 -8 15 -7 22 0 8 8 7 15 0 22 -8 8
-15 7 -22 0z"/>
<path d="M1674 2926 c-8 -8 -7 -15 0 -22 8 -8 15 -7 22 0 8 8 7 15 0 22 -8 8
-15 7 -22 0z"/>
<path d="M1734 2926 c-8 -9 -7 -15 3 -24 8 -8 13 -9 13 -2 0 5 8 10 18 11 13
0 14 2 2 6 -8 3 -17 9 -20 13 -3 4 -10 2 -16 -4z"/>
<path d="M1804 2926 c-8 -8 -7 -15 0 -22 8 -8 15 -7 22 0 8 8 7 15 0 22 -8 8
-15 7 -22 0z"/>
<path d="M1880 2930 c0 -5 -8 -10 -17 -11 -14 0 -15 -2 -3 -6 8 -3 17 -9 20
-13 3 -4 10 -2 16 4 8 9 7 15 -3 24 -8 8 -13 9 -13 2z"/>
<path d="M1934 2926 c-8 -8 -7 -15 0 -22 8 -8 15 -7 22 0 8 8 7 15 0 22 -8 8
-15 7 -22 0z"/>
<path d="M2004 2926 c-8 -8 -7 -15 0 -22 8 -8 15 -7 22 0 8 8 7 15 0 22 -8 8
-15 7 -22 0z"/>
<path d="M2064 2926 c-8 -9 -7 -15 3 -24 8 -8 13 -9 13 -2 0 5 8 10 18 11 13
0 14 2 2 6 -8 3 -17 9 -20 13 -3 4 -10 2 -16 -4z"/>
<path d="M2134 2926 c-8 -8 -7 -15 0 -22 8 -8 15 -7 22 0 8 8 7 15 0 22 -8 8
-15 7 -22 0z"/>
<path d="M2210 2930 c0 -5 -8 -10 -17 -11 -14 0 -15 -2 -3 -6 8 -3 17 -9 20
-13 3 -4 10 -2 16 4 8 9 7 15 -3 24 -8 8 -13 9 -13 2z"/>
<path d="M2264 2926 c-8 -8 -7 -15 0 -22 8 -8 15 -7 22 0 8 8 7 15 0 22 -8 8
-15 7 -22 0z"/>
<path d="M2334 2926 c-8 -8 -7 -15 0 -22 8 -8 15 -7 22 0 8 8 7 15 0 22 -8 8
-15 7 -22 0z"/>
<path d="M2394 2926 c-8 -9 -7 -15 3 -24 8 -8 13 -9 13 -2 0 5 8 10 18 11 13
0 14 2 2 6 -8 3 -17 9 -20 13 -3 4 -10 2 -16 -4z"/>
<path d="M2464 2926 c-8 -8 -7 -15 0 -22 8 -8 15 -7 22 0 8 8 7 15 0 22 -8 8
-15 7 -22 0z"/>
<path d="M2540 2930 c0 -5 -8 -10 -17 -11 -14 0 -15 -2 -3 -6 8 -3 17 -9 20
-13 3 -4 10 -2 16 4 8 9 7 15 -3 24 -8 8 -13 9 -13 2z"/>
<path d="M2594 2926 c-8 -8 -7 -15 0 -22 8 -8 15 -7 22 0 8 8 7 15 0 22 -8 8
-15 7 -22 0z"/>
<path d="M2664 2926 c-8 -8 -7 -15 0 -22 8 -8 15 -7 22 0 8 8 7 15 0 22 -8 8
-15 7 -22 0z"/>
<path d="M2724 2926 c-8 -9 -7 -15 3 -24 8 -8 13 -9 13 -2 0 5 8 10 18 11 13
0 14 2 2 6 -8 3 -17 9 -20 13 -3 4 -10 2 -16 -4z"/>
<path d="M2794 2926 c-8 -8 -7 -15 0 -22 8 -8 15 -7 22 0 8 8 7 15 0 22 -8 8
-15 7 -22 0z"/>
<path d="M2870 2930 c0 -5 -8 -10 -17 -11 -14 0 -15 -2 -3 -6 8 -3 17 -9 20
-13 3 -4 10 -2 16 4 8 9 7 15 -3 24 -8 8 -13 9 -13 2z"/>
<path d="M2924 2926 c-8 -8 -7 -15 0 -22 8 -8 15 -7 22 0 8 8 7 15 0 22 -8 8
-15 7 -22 0z"/>
<path d="M2994 2926 c-8 -8 -7 -15 0 -22 8 -8 15 -7 22 0 8 8 7 15 0 22 -8 8
-15 7 -22 0z"/>
<path d="M3054 2926 c-8 -9 -7 -15 3 -24 8 -8 13 -9 13 -2 0 5 8 10 18 11 13
0 14 2 2 6 -8 3 -17 9 -20 13 -3 4 -10 2 -16 -4z"/>
<path d="M3124 2926 c-8 -8 -7 -15 0 -22 8 -8 15 -7 22 0 8 8 7 15 0 22 -8 8
-15 7 -22 0z"/>
<path d="M3200 2930 c0 -5 -8 -10 -17 -11 -14 0 -15 -2 -3 -6 8 -3 17 -9 20
-13 3 -4 10 -2 16 4 8 9 7 15 -3 24 -8 8 -13 9 -13 2z"/>
<path d="M3254 2926 c-8 -8 -7 -15 0 -22 8 -8 15 -7 22 0 8 8 7 15 0 22 -8 8
-15 7 -22 0z"/>
<path d="M3324 2926 c-8 -8 -7 -15 0 -22 8 -8 15 -7 22 0 8 8 7 15 0 22 -8 8
-15 7 -22 0z"/>
<path d="M3384 2926 c-8 -9 -7 -15 3 -24 8 -8 13 -9 13 -2 0 5 8 10 18 11 13
0 14 2 2 6 -8 3 -17 9 -20 13 -3 4 -10 2 -16 -4z"/>
<path d="M3454 2926 c-8 -8 -7 -15 0 -22 8 -8 15 -7 22 0 8 8 7 15 0 22 -8 8
-15 7 -22 0z"/>
<path d="M944 2806 c-8 -8 -7 -15 0 -22 8 -8 15 -7 22 0 8 8 7 15 0 22 -8 8
-15 7 -22 0z"/>
<path d="M1014 2806 c-8 -8 -7 -15 0 -22 8 -8 15 -7 22 0 8 8 7 15 0 22 -8 8
-15 7 -22 0z"/>
<path d="M1074 2806 c-8 -9 -7 -15 3 -24 8 -8 13 -9 13 -2 0 5 8 10 18 11 13
0 14 2 2 6 -8 3 -17 9 -20 13 -3 4 -10 2 -16 -4z"/>
<path d="M1144 2806 c-8 -8 -7 -15 0 -22 8 -8 15 -7 22 0 8 8 7 15 0 22 -8 8
-15 7 -22 0z"/>
<path d="M1220 2810 c0 -5 -8 -10 -17 -11 -14 0 -15 -2 -3 -6 8 -3 17 -9 20
-13 3 -4 10 -2 16 4 8 9 7 15 -3 24 -8 8 -13 9 -13 2z"/>
<path d="M1274 2806 c-8 -8 -7 -15 0 -22 8 -8 15 -7 22 0 8 8 7 15 0 22 -8 8
-15 7 -22 0z"/>
<path d="M1344 2806 c-8 -8 -7 -15 0 -22 8 -8 15 -7 22 0 8 8 7 15 0 22 -8 8
-15 7 -22 0z"/>
<path d="M1404 2806 c-8 -9 -7 -15 3 -24 8 -8 13 -9 13 -2 0 5 8 10 18 11 13
0 14 2 2 6 -8 3 -17 9 -20 13 -3 4 -10 2 -16 -4z"/>
<path d="M1474 2806 c-8 -8 -7 -15 0 -22 8 -8 15 -7 22 0 8 8 7 15 0 22 -8 8
-15 7 -22 0z"/>
<path d="M1550 2810 c0 -5 -8 -10 -17 -11 -14 0 -15 -2 -3 -6 8 -3 17 -9 20
-13 3 -4 10 -2 16 4 8 9 7 15 -3 24 -8 8 -13 9 -13 2z"/>
<path d="M1604 2806 c-8 -8 -7 -15 0 -22 8 -8 15 -7 22 0 8 8 7 15 0 22 -8 8
-15 7 -22 0z"/>
<path d="M1674 2806 c-8 -8 -7 -15 0 -22 8 -8 15 -7 22 0 8 8 7 15 0 22 -8 8
-15 7 -22 0z"/>
<path d="M1734 2806 c-8 -9 -7 -15 3 -24 8 -8 13 -9 13 -2 0 5 8 10 18 11 13
0 14 2 2 6 -8 3 -17 9 -20 13 -3 4 -10 2 -16 -4z"/>
<path d="M1804 2806 c-8 -8 -7 -15 0 -22 8 -8 15 -7 22 0 8 8 7 15 0 22 -8 8
-15 7 -22 0z"/>
<path d="M1880 2810 c0 -5 -8 -10 -17 -11 -14 0 -15 -2 -3 -6 8 -3 17 -9 20
-13 3 -4 10 -2 16 4 8 9 7 15 -3 24 -8 8 -13 9 -13 2z"/>
<path d="M1934 2806 c-8 -8 -7 -15 0 -22 8 -8 15 -7 22 0 8 8 7 15 0 22 -8 8
-15 7 -22 0z"/>
<path d="M2004 2806 c-8 -8 -7 -15 0 -22 8 -8 15 -7 22 0 8 8 7 15 0 22 -8 8
-15 7 -22 0z"/>
<path d="M2064 2806 c-8 -9 -7 -15 3 -24 8 -8 13 -9 13 -2 0 5 8 10 18 11 13
0 14 2 2 6 -8 3 -17 9 -20 13 -3 4 -10 2 -16 -4z"/>
<path d="M2134 2806 c-8 -8 -7 -15 0 -22 8 -8 15 -7 22 0 8 8 7 15 0 22 -8 8
-15 7 -22 0z"/>
<path d="M2210 2810 c0 -5 -8 -10 -17 -11 -14 0 -15 -2 -3 -6 8 -3 17 -9 20
-13 3 -4 10 -2 16 4 8 9 7 15 -3 24 -8 8 -13 9 -13 2z"/>
<path d="M2264 2806 c-8 -8 -7 -15 0 -22 8 -8 15 -7 22 0 8 8 7 15 0 22 -8 8
-15 7 -22 0z"/>
<path d="M2334 2806 c-8 -8 -7 -15 0 -22 8 -8 15 -7 22 0 8 8 7 15 0 22 -8 8
-15 7 -22 0z"/>
<path d="M2394 2806 c-8 -9 -7 -15 3 -24 8 -8 13 -9 13 -2 0 5 8 10 18 11 13
0 14 2 2 6 -8 3 -17 9 -20 13 -3 4 -10 2 -16 -4z"/>
<path d="M2464 2806 c-8 -8 -7 -15 0 -22 8 -8 15 -7 22 0 8 8 7 15 0 22 -8 8
-15 7 -22 0z"/>
<path d="M2540 2810 c0 -5 -8 -10 -17 -11 -14 0 -15 -2 -3 -6 8 -3 17 -9 20
-13 3 -4 10 -2 16 4 8 9 7 15 -3 24 -8 8 -13 9 -13 2z"/>
<path d="M2594 2806 c-8 -8 -7 -15 0 -22 8 -8 15 -7 22 0 8 8 7 15 0 22 -8 8
-15 7 -22 0z"/>
<path d="M2664 2806 c-8 -8 -7 -15 0 -22 8 -8 15 -7 22 0 8 8 7 15 0 22 -8 8
-15 7 -22 0z"/>
<path d="M2724 2806 c-8 -9 -7 -15 3 -24 8 -8 13 -9 13 -2 0 5 8 10 18 11 13
0 14 2 2 6 -8 3 -17 9 -20 13 -3 4 -10 2 -16 -4z"/>
<path d="M2794 2806 c-8 -8 -7 -15 0 -22 8 -8 15 -7 22 0 8 8 7 15 0 22 -8 8
-15 7 -22 0z"/>
<path d="M2870 2810 c0 -5 -8 -10 -17 -11 -14 0 -15 -2 -3 -6 8 -3 17 -9 20
-13 3 -4 10 -2 16 4 8 9 7 15 -3 24 -8 8 -13 9 -13 2z"/>
<path d="M2924 2806 c-8 -8 -7 -15 0 -22 8 -8 15 -7 22 0 8 8 7 15 0 22 -8 8
-15 7 -22 0z"/>
<path d="M2994 2806 c-8 -8 -7 -15 0 -22 8 -8 15 -7 22 0 8 8 7 15 0 22 -8 8
-15 7 -22 0z"/>
<path d="M3054 2806 c-8 -9 -7 -15 3 -24 8 -8 13 -9 13 -2 0 5 8 10 18 11 13
0 14 2 2 6 -8 3 -17 9 -20 13 -3 4 -10 2 -16 -4z"/>
<path d="M3124 2806 c-8 -8 -7 -15 0 -22 8 -8 15 -7 22 0 8 8 7 15 0 22 -8 8
-15 7 -22 0z"/>
<path d="M3200 2810 c0 -5 -8 -10 -17 -11 -14 0 -15 -2 -3 -6 8 -3 17 -9 20
-13 3 -4 10 -2 16 4 8 9 7 15 -3 24 -8 8 -13 9 -13 2z"/>
<path d="M3254 2806 c-8 -8 -7 -15 0 -22 8 -8 15 -7 22 0 8 8 7 15 0 22 -8 8
-15 7 -22 0z"/>
<path d="M3324 2806 c-8 -8 -7 -15 0 -22 8 -8 15 -7 22 0 8 8 7 15 0 22 -8 8
-15 7 -22 0z"/>
<path d="M3384 2806 c-8 -9 -7 -15 3 -24 8 -8 13 -9 13 -2 0 5 8 10 18 11 13
0 14 2 2 6 -8 3 -17 9 -20 13 -3 4 -10 2 -16 -4z"/>
<path d="M3454 2806 c-8 -8 -7 -15 0 -22 8 -8 15 -7 22 0 8 8 7 15 0 22 -8 8
-15 7 -22 0z"/>
<path d="M3530 2810 c0 -5 -8 -10 -17 -11 -14 0 -15 -2 -3 -6 8 -3 17 -9 20
-13 3 -4 10 -2 16 4 8 9 7 15 -3 24 -8 8 -13 9 -13 2z"/>
<path d="M1599 2709 c-12 -7 -12 -9 1 -9 12 0 12 -2 2 -9 -11 -7 -11 -9 1 -14
7 -3 20 -1 28 4 12 7 12 9 -1 9 -12 0 -12 2 -2 9 11 7 11 9 -1 14 -7 3 -20 1
-28 -4z"/>
<path d="M944 2686 c-8 -8 -7 -15 0 -22 8 -8 15 -7 22 0 8 8 7 15 0 22 -8 8
-15 7 -22 0z"/>
<path d="M1014 2686 c-8 -8 -7 -15 0 -22 8 -8 15 -7 22 0 8 8 7 15 0 22 -8 8
-15 7 -22 0z"/>
<path d="M1074 2686 c-8 -9 -7 -15 3 -24 8 -8 13 -9 13 -2 0 5 8 10 18 11 13
0 14 2 2 6 -8 3 -17 9 -20 13 -3 4 -10 2 -16 -4z"/>
<path d="M1144 2686 c-8 -8 -7 -15 0 -22 8 -8 15 -7 22 0 8 8 7 15 0 22 -8 8
-15 7 -22 0z"/>
<path d="M1220 2690 c0 -5 -8 -10 -17 -11 -14 0 -15 -2 -3 -6 8 -3 17 -9 20
-13 3 -4 10 -2 16 4 8 9 7 15 -3 24 -8 8 -13 9 -13 2z"/>
<path d="M1274 2686 c-8 -8 -7 -15 0 -22 8 -8 15 -7 22 0 8 8 7 15 0 22 -8 8
-15 7 -22 0z"/>
<path d="M1344 2686 c-8 -8 -7 -15 0 -22 8 -8 15 -7 22 0 8 8 7 15 0 22 -8 8
-15 7 -22 0z"/>
<path d="M1404 2686 c-8 -9 -7 -15 3 -24 8 -8 13 -9 13 -2 0 5 8 10 18 11 13
0 14 2 2 6 -8 3 -17 9 -20 13 -3 4 -10 2 -16 -4z"/>
<path d="M1474 2686 c-8 -8 -7 -15 0 -22 8 -8 15 -7 22 0 8 8 7 15 0 22 -8 8
-15 7 -22 0z"/>
<path d="M1550 2690 c0 -5 -8 -10 -17 -11 -14 0 -15 -2 -3 -6 8 -3 17 -9 20
-13 3 -4 10 -2 16 4 8 9 7 15 -3 24 -8 8 -13 9 -13 2z"/>
<path d="M2870 2690 c0 -5 -8 -10 -17 -11 -14 0 -15 -2 -3 -6 8 -3 17 -9 20
-13 3 -4 10 -2 16 4 8 9 7 15 -3 24 -8 8 -13 9 -13 2z"/>
<path d="M2924 2686 c-8 -8 -7 -15 0 -22 8 -8 15 -7 22 0 8 8 7 15 0 22 -8 8
-15 7 -22 0z"/>
<path d="M2994 2686 c-8 -8 -7 -15 0 -22 8 -8 15 -7 22 0 8 8 7 15 0 22 -8 8
-15 7 -22 0z"/>
<path d="M3054 2686 c-8 -9 -7 -15 3 -24 8 -8 13 -9 13 -2 0 5 8 10 18 11 13
0 14 2 2 6 -8 3 -17 9 -20 13 -3 4 -10 2 -16 -4z"/>
<path d="M3124 2686 c-8 -8 -7 -15 0 -22 8 -8 15 -7 22 0 8 8 7 15 0 22 -8 8
-15 7 -22 0z"/>
<path d="M3200 2690 c0 -5 -8 -10 -17 -11 -14 0 -15 -2 -3 -6 8 -3 17 -9 20
-13 3 -4 10 -2 16 4 8 9 7 15 -3 24 -8 8 -13 9 -13 2z"/>
<path d="M3254 2686 c-8 -8 -7 -15 0 -22 8 -8 15 -7 22 0 8 8 7 15 0 22 -8 8
-15 7 -22 0z"/>
<path d="M3324 2686 c-8 -8 -7 -15 0 -22 8 -8 15 -7 22 0 8 8 7 15 0 22 -8 8
-15 7 -22 0z"/>
<path d="M3384 2686 c-8 -9 -7 -15 3 -24 8 -8 13 -9 13 -2 0 5 8 10 18 11 13
0 14 2 2 6 -8 3 -17 9 -20 13 -3 4 -10 2 -16 -4z"/>
<path d="M3454 2686 c-8 -8 -7 -15 0 -22 8 -8 15 -7 22 0 8 8 7 15 0 22 -8 8
-15 7 -22 0z"/>
<path d="M3530 2690 c0 -5 -8 -10 -17 -11 -14 0 -15 -2 -3 -6 8 -3 17 -9 20
-13 3 -4 10 -2 16 4 8 9 7 15 -3 24 -8 8 -13 9 -13 2z"/>
<path d="M890 2570 c0 -5 -8 -10 -17 -11 -14 0 -15 -2 -3 -6 8 -3 17 -9 20
-13 3 -4 10 -2 16 4 8 9 7 15 -3 24 -8 8 -13 9 -13 2z"/>
<path d="M944 2566 c-8 -8 -7 -15 0 -22 8 -8 15 -7 22 0 8 8 7 15 0 22 -8 8
-15 7 -22 0z"/>
<path d="M1014 2566 c-8 -8 -7 -15 0 -22 8 -8 15 -7 22 0 8 8 7 15 0 22 -8 8
-15 7 -22 0z"/>
<path d="M1074 2566 c-8 -9 -7 -15 3 -24 8 -8 13 -9 13 -2 0 5 8 10 18 11 13
0 14 2 2 6 -8 3 -17 9 -20 13 -3 4 -10 2 -16 -4z"/>
<path d="M3384 2566 c-8 -9 -7 -15 3 -24 8 -8 13 -9 13 -2 0 5 8 10 18 11 13
0 14 2 2 6 -8 3 -17 9 -20 13 -3 4 -10 2 -16 -4z"/>
<path d="M3454 2566 c-8 -8 -7 -15 0 -22 8 -8 15 -7 22 0 8 8 7 15 0 22 -8 8
-15 7 -22 0z"/>
<path d="M3530 2570 c0 -5 -8 -10 -17 -11 -14 0 -15 -2 -3 -6 8 -3 17 -9 20
-13 3 -4 10 -2 16 4 8 9 7 15 -3 24 -8 8 -13 9 -13 2z"/>
<path d="M3584 2566 c-8 -8 -7 -15 0 -22 8 -8 15 -7 22 0 8 8 7 15 0 22 -8 8
-15 7 -22 0z"/>
<path d="M890 1850 c0 -5 -8 -10 -17 -11 -14 0 -15 -2 -3 -6 8 -3 17 -9 20
-13 3 -4 10 -2 16 4 8 9 7 15 -3 24 -8 8 -13 9 -13 2z"/>
<path d="M944 1846 c-8 -8 -7 -15 0 -22 8 -8 15 -7 22 0 8 8 7 15 0 22 -8 8
-15 7 -22 0z"/>
<path d="M1014 1846 c-8 -8 -7 -15 0 -22 8 -8 15 -7 22 0 8 8 7 15 0 22 -8 8
-15 7 -22 0z"/>
<path d="M1074 1846 c-8 -9 -7 -15 3 -24 8 -8 13 -9 13 -2 0 5 8 10 18 11 13
0 14 2 2 6 -8 3 -17 9 -20 13 -3 4 -10 2 -16 -4z"/>
<path d="M3384 1846 c-8 -9 -7 -15 3 -24 8 -8 13 -9 13 -2 0 5 8 10 18 11 13
0 14 2 2 6 -8 3 -17 9 -20 13 -3 4 -10 2 -16 -4z"/>
<path d="M3454 1846 c-8 -8 -7 -15 0 -22 8 -8 15 -7 22 0 8 8 7 15 0 22 -8 8
-15 7 -22 0z"/>
<path d="M3530 1850 c0 -5 -8 -10 -17 -11 -14 0 -15 -2 -3 -6 8 -3 17 -9 20
-13 3 -4 10 -2 16 4 8 9 7 15 -3 24 -8 8 -13 9 -13 2z"/>
<path d="M3584 1846 c-8 -8 -7 -15 0 -22 8 -8 15 -7 22 0 8 8 7 15 0 22 -8 8
-15 7 -22 0z"/>
<path d="M944 1726 c-8 -8 -7 -15 0 -22 8 -8 15 -7 22 0 8 8 7 15 0 22 -8 8
-15 7 -22 0z"/>
<path d="M1014 1726 c-8 -8 -7 -15 0 -22 8 -8 15 -7 22 0 8 8 7 15 0 22 -8 8
-15 7 -22 0z"/>
<path d="M1074 1726 c-8 -9 -7 -15 3 -24 8 -8 13 -9 13 -2 0 5 8 10 18 11 13
0 14 2 2 6 -8 3 -17 9 -20 13 -3 4 -10 2 -16 -4z"/>
<path d="M1144 1726 c-8 -8 -7 -15 0 -22 8 -8 15 -7 22 0 8 8 7 15 0 22 -8 8
-15 7 -22 0z"/>
<path d="M1220 1730 c0 -5 -8 -10 -17 -11 -14 0 -15 -2 -3 -6 8 -3 17 -9 20
-13 3 -4 10 -2 16 4 8 9 7 15 -3 24 -8 8 -13 9 -13 2z"/>
<path d="M1274 1726 c-8 -8 -7 -15 0 -22 8 -8 15 -7 22 0 8 8 7 15 0 22 -8 8
-15 7 -22 0z"/>
<path d="M1344 1726 c-8 -8 -7 -15 0 -22 8 -8 15 -7 22 0 8 8 7 15 0 22 -8 8
-15 7 -22 0z"/>
<path d="M1404 1726 c-8 -9 -7 -15 3 -24 8 -8 13 -9 13 -2 0 5 8 10 18 11 13
0 14 2 2 6 -8 3 -17 9 -20 13 -3 4 -10 2 -16 -4z"/>
<path d="M1474 1726 c-8 -8 -7 -15 0 -22 8 -8 15 -7 22 0 8 8 7 15 0 22 -8 8
-15 7 -22 0z"/>
<path d="M1550 1730 c0 -5 -8 -10 -17 -11 -14 0 -15 -2 -3 -6 8 -3 17 -9 20
-13 3 -4 10 -2 16 4 8 9 7 15 -3 24 -8 8 -13 9 -13 2z"/>
<path d="M1604 1726 c-8 -8 -7 -15 0 -22 8 -8 15 -7 22 0 8 8 7 15 0 22 -8 8
-15 7 -22 0z"/>
<path d="M2870 1730 c0 -5 -8 -10 -17 -11 -14 0 -15 -2 -3 -6 8 -3 17 -9 20
-13 3 -4 10 -2 16 4 8 9 7 15 -3 24 -8 8 -13 9 -13 2z"/>
<path d="M2924 1726 c-8 -8 -7 -15 0 -22 8 -8 15 -7 22 0 8 8 7 15 0 22 -8 8
-15 7 -22 0z"/>
<path d="M2994 1726 c-8 -8 -7 -15 0 -22 8 -8 15 -7 22 0 8 8 7 15 0 22 -8 8
-15 7 -22 0z"/>
<path d="M3054 1726 c-8 -9 -7 -15 3 -24 8 -8 13 -9 13 -2 0 5 8 10 18 11 13
0 14 2 2 6 -8 3 -17 9 -20 13 -3 4 -10 2 -16 -4z"/>
<path d="M3124 1726 c-8 -8 -7 -15 0 -22 8 -8 15 -7 22 0 8 8 7 15 0 22 -8 8
-15 7 -22 0z"/>
<path d="M3200 1730 c0 -5 -8 -10 -17 -11 -14 0 -15 -2 -3 -6 8 -3 17 -9 20
-13 3 -4 10 -2 16 4 8 9 7 15 -3 24 -8 8 -13 9 -13 2z"/>
<path d="M3254 1726 c-8 -8 -7 -15 0 -22 8 -8 15 -7 22 0 8 8 7 15 0 22 -8 8
-15 7 -22 0z"/>
<path d="M3324 1726 c-8 -8 -7 -15 0 -22 8 -8 15 -7 22 0 8 8 7 15 0 22 -8 8
-15 7 -22 0z"/>
<path d="M3384 1726 c-8 -9 -7 -15 3 -24 8 -8 13 -9 13 -2 0 5 8 10 18 11 13
0 14 2 2 6 -8 3 -17 9 -20 13 -3 4 -10 2 -16 -4z"/>
<path d="M3454 1726 c-8 -8 -7 -15 0 -22 8 -8 15 -7 22 0 8 8 7 15 0 22 -8 8
-15 7 -22 0z"/>
<path d="M3530 1730 c0 -5 -8 -10 -17 -11 -14 0 -15 -2 -3 -6 8 -3 17 -9 20
-13 3 -4 10 -2 16 4 8 9 7 15 -3 24 -8 8 -13 9 -13 2z"/>
<path d="M944 1606 c-8 -8 -7 -15 0 -22 8 -8 15 -7 22 0 8 8 7 15 0 22 -8 8
-15 7 -22 0z"/>
<path d="M1014 1606 c-8 -8 -7 -15 0 -22 8 -8 15 -7 22 0 8 8 7 15 0 22 -8 8
-15 7 -22 0z"/>
<path d="M1074 1606 c-8 -9 -7 -15 3 -24 8 -8 13 -9 13 -2 0 5 8 10 18 11 13
0 14 2 2 6 -8 3 -17 9 -20 13 -3 4 -10 2 -16 -4z"/>
<path d="M1144 1606 c-8 -8 -7 -15 0 -22 8 -8 15 -7 22 0 8 8 7 15 0 22 -8 8
-15 7 -22 0z"/>
<path d="M1220 1610 c0 -5 -8 -10 -17 -11 -14 0 -15 -2 -3 -6 8 -3 17 -9 20
-13 3 -4 10 -2 16 4 8 9 7 15 -3 24 -8 8 -13 9 -13 2z"/>
<path d="M1274 1606 c-8 -8 -7 -15 0 -22 8 -8 15 -7 22 0 8 8 7 15 0 22 -8 8
-15 7 -22 0z"/>
<path d="M1344 1606 c-8 -8 -7 -15 0 -22 8 -8 15 -7 22 0 8 8 7 15 0 22 -8 8
-15 7 -22 0z"/>
<path d="M1404 1606 c-8 -9 -7 -15 3 -24 8 -8 13 -9 13 -2 0 5 8 10 18 11 13
0 14 2 2 6 -8 3 -17 9 -20 13 -3 4 -10 2 -16 -4z"/>
<path d="M1474 1606 c-8 -8 -7 -15 0 -22 8 -8 15 -7 22 0 8 8 7 15 0 22 -8 8
-15 7 -22 0z"/>
<path d="M1550 1610 c0 -5 -8 -10 -17 -11 -14 0 -15 -2 -3 -6 8 -3 17 -9 20
-13 3 -4 10 -2 16 4 8 9 7 15 -3 24 -8 8 -13 9 -13 2z"/>
<path d="M1604 1606 c-8 -8 -7 -15 0 -22 8 -8 15 -7 22 0 8 8 7 15 0 22 -8 8
-15 7 -22 0z"/>
<path d="M1674 1606 c-8 -8 -7 -15 0 -22 8 -8 15 -7 22 0 8 8 7 15 0 22 -8 8
-15 7 -22 0z"/>
<path d="M1734 1606 c-8 -9 -7 -15 3 -24 8 -8 13 -9 13 -2 0 5 8 10 18 11 13
0 14 2 2 6 -8 3 -17 9 -20 13 -3 4 -10 2 -16 -4z"/>
<path d="M1804 1606 c-8 -8 -7 -15 0 -22 8 -8 15 -7 22 0 8 8 7 15 0 22 -8 8
-15 7 -22 0z"/>
<path d="M1880 1610 c0 -5 -8 -10 -17 -11 -14 0 -15 -2 -3 -6 8 -3 17 -9 20
-13 3 -4 10 -2 16 4 8 9 7 15 -3 24 -8 8 -13 9 -13 2z"/>
<path d="M1934 1606 c-8 -8 -7 -15 0 -22 8 -8 15 -7 22 0 8 8 7 15 0 22 -8 8
-15 7 -22 0z"/>
<path d="M2004 1606 c-8 -8 -7 -15 0 -22 8 -8 15 -7 22 0 8 8 7 15 0 22 -8 8
-15 7 -22 0z"/>
<path d="M2064 1606 c-8 -9 -7 -15 3 -24 8 -8 13 -9 13 -2 0 5 8 10 18 11 13
0 14 2 2 6 -8 3 -17 9 -20 13 -3 4 -10 2 -16 -4z"/>
<path d="M2134 1606 c-8 -8 -7 -15 0 -22 8 -8 15 -7 22 0 8 8 7 15 0 22 -8 8
-15 7 -22 0z"/>
<path d="M2210 1610 c0 -5 -8 -10 -17 -11 -14 0 -15 -2 -3 -6 8 -3 17 -9 20
-13 3 -4 10 -2 16 4 8 9 7 15 -3 24 -8 8 -13 9 -13 2z"/>
<path d="M2264 1606 c-8 -8 -7 -15 0 -22 8 -8 15 -7 22 0 8 8 7 15 0 22 -8 8
-15 7 -22 0z"/>
<path d="M2334 1606 c-8 -8 -7 -15 0 -22 8 -8 15 -7 22 0 8 8 7 15 0 22 -8 8
-15 7 -22 0z"/>
<path d="M2394 1606 c-8 -9 -7 -15 3 -24 8 -8 13 -9 13 -2 0 5 8 10 18 11 13
0 14 2 2 6 -8 3 -17 9 -20 13 -3 4 -10 2 -16 -4z"/>
<path d="M2464 1606 c-8 -8 -7 -15 0 -22 8 -8 15 -7 22 0 8 8 7 15 0 22 -8 8
-15 7 -22 0z"/>
<path d="M2540 1610 c0 -5 -8 -10 -17 -11 -14 0 -15 -2 -3 -6 8 -3 17 -9 20
-13 3 -4 10 -2 16 4 8 9 7 15 -3 24 -8 8 -13 9 -13 2z"/>
<path d="M2594 1606 c-8 -8 -7 -15 0 -22 8 -8 15 -7 22 0 8 8 7 15 0 22 -8 8
-15 7 -22 0z"/>
<path d="M2664 1606 c-8 -8 -7 -15 0 -22 8 -8 15 -7 22 0 8 8 7 15 0 22 -8 8
-15 7 -22 0z"/>
<path d="M2724 1606 c-8 -9 -7 -15 3 -24 8 -8 13 -9 13 -2 0 5 8 10 18 11 13
0 14 2 2 6 -8 3 -17 9 -20 13 -3 4 -10 2 -16 -4z"/>
<path d="M2794 1606 c-8 -8 -7 -15 0 -22 8 -8 15 -7 22 0 8 8 7 15 0 22 -8 8
-15 7 -22 0z"/>
<path d="M2870 1610 c0 -5 -8 -10 -17 -11 -14 0 -15 -2 -3 -6 8 -3 17 -9 20
-13 3 -4 10 -2 16 4 8 9 7 15 -3 24 -8 8 -13 9 -13 2z"/>
<path d="M2924 1606 c-8 -8 -7 -15 0 -22 8 -8 15 -7 22 0 8 8 7 15 0 22 -8 8
-15 7 -22 0z"/>
<path d="M2994 1606 c-8 -8 -7 -15 0 -22 8 -8 15 -7 22 0 8 8 7 15 0 22 -8 8
-15 7 -22 0z"/>
<path d="M3054 1606 c-8 -9 -7 -15 3 -24 8 -8 13 -9 13 -2 0 5 8 10 18 11 13
0 14 2 2 6 -8 3 -17 9 -20 13 -3 4 -10 2 -16 -4z"/>
<path d="M3124 1606 c-8 -8 -7 -15 0 -22 8 -8 15 -7 22 0 8 8 7 15 0 22 -8 8
-15 7 -22 0z"/>
<path d="M3200 1610 c0 -5 -8 -10 -17 -11 -14 0 -15 -2 -3 -6 8 -3 17 -9 20
-13 3 -4 10 -2 16 4 8 9 7 15 -3 24 -8 8 -13 9 -13 2z"/>
<path d="M3254 1606 c-8 -8 -7 -15 0 -22 8 -8 15 -7 22 0 8 8 7 15 0 22 -8 8
-15 7 -22 0z"/>
<path d="M3324 1606 c-8 -8 -7 -15 0 -22 8 -8 15 -7 22 0 8 8 7 15 0 22 -8 8
-15 7 -22 0z"/>
<path d="M3384 1606 c-8 -9 -7 -15 3 -24 8 -8 13 -9 13 -2 0 5 8 10 18 11 13
0 14 2 2 6 -8 3 -17 9 -20 13 -3 4 -10 2 -16 -4z"/>
<path d="M3454 1606 c-8 -8 -7 -15 0 -22 8 -8 15 -7 22 0 8 8 7 15 0 22 -8 8
-15 7 -22 0z"/>
<path d="M3530 1610 c0 -5 -8 -10 -17 -11 -14 0 -15 -2 -3 -6 8 -3 17 -9 20
-13 3 -4 10 -2 16 4 8 9 7 15 -3 24 -8 8 -13 9 -13 2z"/>
<path d="M1025 1510 c6 -9 4 -12 -7 -8 -8 4 -15 1 -15 -7 0 -8 7 -11 15 -7 11
4 13 1 7 -9 -5 -8 -4 -11 0 -6 13 12 15 36 3 44 -7 4 -8 1 -3 -7z"/>
<path d="M1074 1486 c-8 -9 -7 -15 3 -24 8 -8 13 -9 13 -2 0 5 8 10 18 11 13
0 14 2 2 6 -8 3 -17 9 -20 13 -3 4 -10 2 -16 -4z"/>
<path d="M1144 1486 c-8 -8 -7 -15 0 -22 8 -8 15 -7 22 0 8 8 7 15 0 22 -8 8
-15 7 -22 0z"/>
<path d="M1220 1490 c0 -5 -8 -10 -17 -11 -14 0 -15 -2 -3 -6 8 -3 17 -9 20
-13 3 -4 10 -2 16 4 8 9 7 15 -3 24 -8 8 -13 9 -13 2z"/>
<path d="M1274 1486 c-8 -8 -7 -15 0 -22 8 -8 15 -7 22 0 8 8 7 15 0 22 -8 8
-15 7 -22 0z"/>
<path d="M1344 1486 c-8 -8 -7 -15 0 -22 8 -8 15 -7 22 0 8 8 7 15 0 22 -8 8
-15 7 -22 0z"/>
<path d="M1404 1486 c-8 -9 -7 -15 3 -24 8 -8 13 -9 13 -2 0 5 8 10 18 11 13
0 14 2 2 6 -8 3 -17 9 -20 13 -3 4 -10 2 -16 -4z"/>
<path d="M1474 1486 c-8 -8 -7 -15 0 -22 8 -8 15 -7 22 0 8 8 7 15 0 22 -8 8
-15 7 -22 0z"/>
<path d="M1550 1490 c0 -5 -8 -10 -17 -11 -14 0 -15 -2 -3 -6 8 -3 17 -9 20
-13 3 -4 10 -2 16 4 8 9 7 15 -3 24 -8 8 -13 9 -13 2z"/>
<path d="M1604 1486 c-8 -8 -7 -15 0 -22 8 -8 15 -7 22 0 8 8 7 15 0 22 -8 8
-15 7 -22 0z"/>
<path d="M1674 1486 c-8 -8 -7 -15 0 -22 8 -8 15 -7 22 0 8 8 7 15 0 22 -8 8
-15 7 -22 0z"/>
<path d="M1734 1486 c-8 -9 -7 -15 3 -24 8 -8 13 -9 13 -2 0 5 8 10 18 11 13
0 14 2 2 6 -8 3 -17 9 -20 13 -3 4 -10 2 -16 -4z"/>
<path d="M1804 1486 c-8 -8 -7 -15 0 -22 8 -8 15 -7 22 0 8 8 7 15 0 22 -8 8
-15 7 -22 0z"/>
<path d="M1880 1490 c0 -5 -8 -10 -17 -11 -14 0 -15 -2 -3 -6 8 -3 17 -9 20
-13 3 -4 10 -2 16 4 8 9 7 15 -3 24 -8 8 -13 9 -13 2z"/>
<path d="M1934 1486 c-8 -8 -7 -15 0 -22 8 -8 15 -7 22 0 8 8 7 15 0 22 -8 8
-15 7 -22 0z"/>
<path d="M2004 1486 c-8 -8 -7 -15 0 -22 8 -8 15 -7 22 0 8 8 7 15 0 22 -8 8
-15 7 -22 0z"/>
<path d="M2064 1486 c-8 -9 -7 -15 3 -24 8 -8 13 -9 13 -2 0 5 8 10 18 11 13
0 14 2 2 6 -8 3 -17 9 -20 13 -3 4 -10 2 -16 -4z"/>
<path d="M2134 1486 c-8 -8 -7 -15 0 -22 8 -8 15 -7 22 0 8 8 7 15 0 22 -8 8
-15 7 -22 0z"/>
<path d="M2210 1490 c0 -5 -8 -10 -17 -11 -14 0 -15 -2 -3 -6 8 -3 17 -9 20
-13 3 -4 10 -2 16 4 8 9 7 15 -3 24 -8 8 -13 9 -13 2z"/>
<path d="M2264 1486 c-8 -8 -7 -15 0 -22 8 -8 15 -7 22 0 8 8 7 15 0 22 -8 8
-15 7 -22 0z"/>
<path d="M2334 1486 c-8 -8 -7 -15 0 -22 8 -8 15 -7 22 0 8 8 7 15 0 22 -8 8
-15 7 -22 0z"/>
<path d="M2394 1486 c-8 -9 -7 -15 3 -24 8 -8 13 -9 13 -2 0 5 8 10 18 11 13
0 14 2 2 6 -8 3 -17 9 -20 13 -3 4 -10 2 -16 -4z"/>
<path d="M2464 1486 c-8 -8 -7 -15 0 -22 8 -8 15 -7 22 0 8 8 7 15 0 22 -8 8
-15 7 -22 0z"/>
<path d="M2540 1490 c0 -5 -8 -10 -17 -11 -14 0 -15 -2 -3 -6 8 -3 17 -9 20
-13 3 -4 10 -2 16 4 8 9 7 15 -3 24 -8 8 -13 9 -13 2z"/>
<path d="M2594 1486 c-8 -8 -7 -15 0 -22 8 -8 15 -7 22 0 8 8 7 15 0 22 -8 8
-15 7 -22 0z"/>
<path d="M2664 1486 c-8 -8 -7 -15 0 -22 8 -8 15 -7 22 0 8 8 7 15 0 22 -8 8
-15 7 -22 0z"/>
<path d="M2724 1486 c-8 -9 -7 -15 3 -24 8 -8 13 -9 13 -2 0 5 8 10 18 11 13
0 14 2 2 6 -8 3 -17 9 -20 13 -3 4 -10 2 -16 -4z"/>
<path d="M2794 1486 c-8 -8 -7 -15 0 -22 8 -8 15 -7 22 0 8 8 7 15 0 22 -8 8
-15 7 -22 0z"/>
<path d="M2870 1490 c0 -5 -8 -10 -17 -11 -14 0 -15 -2 -3 -6 8 -3 17 -9 20
-13 3 -4 10 -2 16 4 8 9 7 15 -3 24 -8 8 -13 9 -13 2z"/>
<path d="M2924 1486 c-8 -8 -7 -15 0 -22 8 -8 15 -7 22 0 8 8 7 15 0 22 -8 8
-15 7 -22 0z"/>
<path d="M2994 1486 c-8 -8 -7 -15 0 -22 8 -8 15 -7 22 0 8 8 7 15 0 22 -8 8
-15 7 -22 0z"/>
<path d="M3054 1486 c-8 -9 -7 -15 3 -24 8 -8 13 -9 13 -2 0 5 8 10 18 11 13
0 14 2 2 6 -8 3 -17 9 -20 13 -3 4 -10 2 -16 -4z"/>
<path d="M3124 1486 c-8 -8 -7 -15 0 -22 8 -8 15 -7 22 0 8 8 7 15 0 22 -8 8
-15 7 -22 0z"/>
<path d="M3200 1490 c0 -5 -8 -10 -17 -11 -14 0 -15 -2 -3 -6 8 -3 17 -9 20
-13 3 -4 10 -2 16 4 8 9 7 15 -3 24 -8 8 -13 9 -13 2z"/>
<path d="M3254 1486 c-8 -8 -7 -15 0 -22 8 -8 15 -7 22 0 8 8 7 15 0 22 -8 8
-15 7 -22 0z"/>
<path d="M3324 1486 c-8 -8 -7 -15 0 -22 8 -8 15 -7 22 0 8 8 7 15 0 22 -8 8
-15 7 -22 0z"/>
<path d="M3384 1486 c-8 -9 -7 -15 3 -24 8 -8 13 -9 13 -2 0 5 8 10 18 11 13
0 14 2 2 6 -8 3 -17 9 -20 13 -3 4 -10 2 -16 -4z"/>
<path d="M3454 1486 c-8 -8 -7 -15 0 -22 8 -8 15 -7 22 0 8 8 7 15 0 22 -8 8
-15 7 -22 0z"/>
<path d="M1144 1366 c-8 -8 -7 -15 0 -22 8 -8 15 -7 22 0 8 8 7 15 0 22 -8 8
-15 7 -22 0z"/>
<path d="M1220 1370 c0 -5 -8 -10 -17 -11 -14 0 -15 -2 -3 -6 8 -3 17 -9 20
-13 3 -4 10 -2 16 4 8 9 7 15 -3 24 -8 8 -13 9 -13 2z"/>
<path d="M1274 1366 c-8 -8 -7 -15 0 -22 8 -8 15 -7 22 0 8 8 7 15 0 22 -8 8
-15 7 -22 0z"/>
<path d="M1344 1366 c-8 -8 -7 -15 0 -22 8 -8 15 -7 22 0 8 8 7 15 0 22 -8 8
-15 7 -22 0z"/>
<path d="M1404 1366 c-8 -9 -7 -15 3 -24 8 -8 13 -9 13 -2 0 5 8 10 18 11 13
0 14 2 2 6 -8 3 -17 9 -20 13 -3 4 -10 2 -16 -4z"/>
<path d="M1474 1366 c-8 -8 -7 -15 0 -22 8 -8 15 -7 22 0 8 8 7 15 0 22 -8 8
-15 7 -22 0z"/>
<path d="M1550 1370 c0 -5 -8 -10 -17 -11 -14 0 -15 -2 -3 -6 8 -3 17 -9 20
-13 3 -4 10 -2 16 4 8 9 7 15 -3 24 -8 8 -13 9 -13 2z"/>
<path d="M1604 1366 c-8 -8 -7 -15 0 -22 8 -8 15 -7 22 0 8 8 7 15 0 22 -8 8
-15 7 -22 0z"/>
<path d="M1674 1366 c-8 -8 -7 -15 0 -22 8 -8 15 -7 22 0 8 8 7 15 0 22 -8 8
-15 7 -22 0z"/>
<path d="M1734 1366 c-8 -9 -7 -15 3 -24 8 -8 13 -9 13 -2 0 5 8 10 18 11 13
0 14 2 2 6 -8 3 -17 9 -20 13 -3 4 -10 2 -16 -4z"/>
<path d="M1804 1366 c-8 -8 -7 -15 0 -22 8 -8 15 -7 22 0 8 8 7 15 0 22 -8 8
-15 7 -22 0z"/>
<path d="M1880 1370 c0 -5 -8 -10 -17 -11 -14 0 -15 -2 -3 -6 8 -3 17 -9 20
-13 3 -4 10 -2 16 4 8 9 7 15 -3 24 -8 8 -13 9 -13 2z"/>
<path d="M1934 1366 c-8 -8 -7 -15 0 -22 8 -8 15 -7 22 0 8 8 7 15 0 22 -8 8
-15 7 -22 0z"/>
<path d="M2004 1366 c-8 -8 -7 -15 0 -22 8 -8 15 -7 22 0 8 8 7 15 0 22 -8 8
-15 7 -22 0z"/>
<path d="M2064 1366 c-8 -9 -7 -15 3 -24 8 -8 13 -9 13 -2 0 5 8 10 18 11 13
0 14 2 2 6 -8 3 -17 9 -20 13 -3 4 -10 2 -16 -4z"/>
<path d="M2134 1366 c-8 -8 -7 -15 0 -22 8 -8 15 -7 22 0 8 8 7 15 0 22 -8 8
-15 7 -22 0z"/>
<path d="M2210 1370 c0 -5 -8 -10 -17 -11 -14 0 -15 -2 -3 -6 8 -3 17 -9 20
-13 3 -4 10 -2 16 4 8 9 7 15 -3 24 -8 8 -13 9 -13 2z"/>
<path d="M2264 1366 c-8 -8 -7 -15 0 -22 8 -8 15 -7 22 0 8 8 7 15 0 22 -8 8
-15 7 -22 0z"/>
<path d="M2334 1366 c-8 -8 -7 -15 0 -22 8 -8 15 -7 22 0 8 8 7 15 0 22 -8 8
-15 7 -22 0z"/>
<path d="M2394 1366 c-8 -9 -7 -15 3 -24 8 -8 13 -9 13 -2 0 5 8 10 18 11 13
0 14 2 2 6 -8 3 -17 9 -20 13 -3 4 -10 2 -16 -4z"/>
<path d="M2464 1366 c-8 -8 -7 -15 0 -22 8 -8 15 -7 22 0 8 8 7 15 0 22 -8 8
-15 7 -22 0z"/>
<path d="M2540 1370 c0 -5 -8 -10 -17 -11 -14 0 -15 -2 -3 -6 8 -3 17 -9 20
-13 3 -4 10 -2 16 4 8 9 7 15 -3 24 -8 8 -13 9 -13 2z"/>
<path d="M2594 1366 c-8 -8 -7 -15 0 -22 8 -8 15 -7 22 0 8 8 7 15 0 22 -8 8
-15 7 -22 0z"/>
<path d="M2664 1366 c-8 -8 -7 -15 0 -22 8 -8 15 -7 22 0 8 8 7 15 0 22 -8 8
-15 7 -22 0z"/>
<path d="M2724 1366 c-8 -9 -7 -15 3 -24 8 -8 13 -9 13 -2 0 5 8 10 18 11 13
0 14 2 2 6 -8 3 -17 9 -20 13 -3 4 -10 2 -16 -4z"/>
<path d="M2794 1366 c-8 -8 -7 -15 0 -22 8 -8 15 -7 22 0 8 8 7 15 0 22 -8 8
-15 7 -22 0z"/>
<path d="M2870 1370 c0 -5 -8 -10 -17 -11 -14 0 -15 -2 -3 -6 8 -3 17 -9 20
-13 3 -4 10 -2 16 4 8 9 7 15 -3 24 -8 8 -13 9 -13 2z"/>
<path d="M2924 1366 c-8 -8 -7 -15 0 -22 8 -8 15 -7 22 0 8 8 7 15 0 22 -8 8
-15 7 -22 0z"/>
<path d="M2994 1366 c-8 -8 -7 -15 0 -22 8 -8 15 -7 22 0 8 8 7 15 0 22 -8 8
-15 7 -22 0z"/>
<path d="M3054 1366 c-8 -9 -7 -15 3 -24 8 -8 13 -9 13 -2 0 5 8 10 18 11 13
0 14 2 2 6 -8 3 -17 9 -20 13 -3 4 -10 2 -16 -4z"/>
<path d="M3124 1366 c-8 -8 -7 -15 0 -22 8 -8 15 -7 22 0 8 8 7 15 0 22 -8 8
-15 7 -22 0z"/>
<path d="M3200 1370 c0 -5 -8 -10 -17 -11 -14 0 -15 -2 -3 -6 8 -3 17 -9 20
-13 3 -4 10 -2 16 4 8 9 7 15 -3 24 -8 8 -13 9 -13 2z"/>
<path d="M3254 1366 c-8 -8 -7 -15 0 -22 8 -8 15 -7 22 0 8 8 7 15 0 22 -8 8
-15 7 -22 0z"/>
<path d="M3324 1366 c-8 -8 -7 -15 0 -22 8 -8 15 -7 22 0 8 8 7 15 0 22 -8 8
-15 7 -22 0z"/>
<path d="M1220 1250 c0 -5 -8 -10 -17 -11 -14 0 -15 -2 -3 -6 8 -3 17 -9 20
-13 3 -4 10 -2 16 4 8 9 7 15 -3 24 -8 8 -13 9 -13 2z"/>
<path d="M1274 1246 c-8 -8 -7 -15 0 -22 8 -8 15 -7 22 0 8 8 7 15 0 22 -8 8
-15 7 -22 0z"/>
<path d="M1344 1246 c-8 -8 -7 -15 0 -22 8 -8 15 -7 22 0 8 8 7 15 0 22 -8 8
-15 7 -22 0z"/>
<path d="M1404 1246 c-8 -9 -7 -15 3 -24 8 -8 13 -9 13 -2 0 5 8 10 18 11 13
0 14 2 2 6 -8 3 -17 9 -20 13 -3 4 -10 2 -16 -4z"/>
<path d="M1474 1246 c-8 -8 -7 -15 0 -22 8 -8 15 -7 22 0 8 8 7 15 0 22 -8 8
-15 7 -22 0z"/>
<path d="M1550 1250 c0 -5 -8 -10 -17 -11 -14 0 -15 -2 -3 -6 8 -3 17 -9 20
-13 3 -4 10 -2 16 4 8 9 7 15 -3 24 -8 8 -13 9 -13 2z"/>
<path d="M1604 1246 c-8 -8 -7 -15 0 -22 8 -8 15 -7 22 0 8 8 7 15 0 22 -8 8
-15 7 -22 0z"/>
<path d="M1674 1246 c-8 -8 -7 -15 0 -22 8 -8 15 -7 22 0 8 8 7 15 0 22 -8 8
-15 7 -22 0z"/>
<path d="M1734 1246 c-8 -9 -7 -15 3 -24 8 -8 13 -9 13 -2 0 5 8 10 18 11 13
0 14 2 2 6 -8 3 -17 9 -20 13 -3 4 -10 2 -16 -4z"/>
<path d="M1804 1246 c-8 -8 -7 -15 0 -22 8 -8 15 -7 22 0 8 8 7 15 0 22 -8 8
-15 7 -22 0z"/>
<path d="M1880 1250 c0 -5 -8 -10 -17 -11 -14 0 -15 -2 -3 -6 8 -3 17 -9 20
-13 3 -4 10 -2 16 4 8 9 7 15 -3 24 -8 8 -13 9 -13 2z"/>
<path d="M1934 1246 c-8 -8 -7 -15 0 -22 8 -8 15 -7 22 0 8 8 7 15 0 22 -8 8
-15 7 -22 0z"/>
<path d="M2004 1246 c-8 -8 -7 -15 0 -22 8 -8 15 -7 22 0 8 8 7 15 0 22 -8 8
-15 7 -22 0z"/>
<path d="M2064 1246 c-8 -9 -7 -15 3 -24 8 -8 13 -9 13 -2 0 5 8 10 18 11 13
0 14 2 2 6 -8 3 -17 9 -20 13 -3 4 -10 2 -16 -4z"/>
<path d="M2134 1246 c-8 -8 -7 -15 0 -22 8 -8 15 -7 22 0 8 8 7 15 0 22 -8 8
-15 7 -22 0z"/>
<path d="M2210 1250 c0 -5 -8 -10 -17 -11 -14 0 -15 -2 -3 -6 8 -3 17 -9 20
-13 3 -4 10 -2 16 4 8 9 7 15 -3 24 -8 8 -13 9 -13 2z"/>
<path d="M2264 1246 c-8 -8 -7 -15 0 -22 8 -8 15 -7 22 0 8 8 7 15 0 22 -8 8
-15 7 -22 0z"/>
<path d="M2334 1246 c-8 -8 -7 -15 0 -22 8 -8 15 -7 22 0 8 8 7 15 0 22 -8 8
-15 7 -22 0z"/>
<path d="M2394 1246 c-8 -9 -7 -15 3 -24 8 -8 13 -9 13 -2 0 5 8 10 18 11 13
0 14 2 2 6 -8 3 -17 9 -20 13 -3 4 -10 2 -16 -4z"/>
<path d="M2464 1246 c-8 -8 -7 -15 0 -22 8 -8 15 -7 22 0 8 8 7 15 0 22 -8 8
-15 7 -22 0z"/>
<path d="M2540 1250 c0 -5 -8 -10 -17 -11 -14 0 -15 -2 -3 -6 8 -3 17 -9 20
-13 3 -4 10 -2 16 4 8 9 7 15 -3 24 -8 8 -13 9 -13 2z"/>
<path d="M2594 1246 c-8 -8 -7 -15 0 -22 8 -8 15 -7 22 0 8 8 7 15 0 22 -8 8
-15 7 -22 0z"/>
<path d="M2664 1246 c-8 -8 -7 -15 0 -22 8 -8 15 -7 22 0 8 8 7 15 0 22 -8 8
-15 7 -22 0z"/>
<path d="M2724 1246 c-8 -9 -7 -15 3 -24 8 -8 13 -9 13 -2 0 5 8 10 18 11 13
0 14 2 2 6 -8 3 -17 9 -20 13 -3 4 -10 2 -16 -4z"/>
<path d="M2794 1246 c-8 -8 -7 -15 0 -22 8 -8 15 -7 22 0 8 8 7 15 0 22 -8 8
-15 7 -22 0z"/>
<path d="M2870 1250 c0 -5 -8 -10 -17 -11 -14 0 -15 -2 -3 -6 8 -3 17 -9 20
-13 3 -4 10 -2 16 4 8 9 7 15 -3 24 -8 8 -13 9 -13 2z"/>
<path d="M2924 1246 c-8 -8 -7 -15 0 -22 8 -8 15 -7 22 0 8 8 7 15 0 22 -8 8
-15 7 -22 0z"/>
<path d="M2994 1246 c-8 -8 -7 -15 0 -22 8 -8 15 -7 22 0 8 8 7 15 0 22 -8 8
-15 7 -22 0z"/>
<path d="M3054 1246 c-8 -9 -7 -15 3 -24 8 -8 13 -9 13 -2 0 5 8 10 18 11 13
0 14 2 2 6 -8 3 -17 9 -20 13 -3 4 -10 2 -16 -4z"/>
<path d="M3124 1246 c-8 -8 -7 -15 0 -22 8 -8 15 -7 22 0 8 8 7 15 0 22 -8 8
-15 7 -22 0z"/>
<path d="M3200 1250 c0 -5 -8 -10 -17 -11 -14 0 -15 -2 -3 -6 8 -3 17 -9 20
-13 3 -4 10 -2 16 4 8 9 7 15 -3 24 -8 8 -13 9 -13 2z"/>
<path d="M3254 1246 c-8 -8 -7 -15 0 -22 8 -8 15 -7 22 0 8 8 7 15 0 22 -8 8
-15 7 -22 0z"/>
<path d="M1344 1126 c-8 -8 -7 -15 0 -22 8 -8 15 -7 22 0 8 8 7 15 0 22 -8 8
-15 7 -22 0z"/>
<path d="M1404 1126 c-8 -9 -7 -15 3 -24 8 -8 13 -9 13 -2 0 5 8 10 18 11 13
0 14 2 2 6 -8 3 -17 9 -20 13 -3 4 -10 2 -16 -4z"/>
<path d="M1474 1126 c-8 -8 -7 -15 0 -22 8 -8 15 -7 22 0 8 8 7 15 0 22 -8 8
-15 7 -22 0z"/>
<path d="M1550 1130 c0 -5 -8 -10 -17 -11 -14 0 -15 -2 -3 -6 8 -3 17 -9 20
-13 3 -4 10 -2 16 4 8 9 7 15 -3 24 -8 8 -13 9 -13 2z"/>
<path d="M1604 1126 c-8 -8 -7 -15 0 -22 8 -8 15 -7 22 0 8 8 7 15 0 22 -8 8
-15 7 -22 0z"/>
<path d="M1674 1126 c-8 -8 -7 -15 0 -22 8 -8 15 -7 22 0 8 8 7 15 0 22 -8 8
-15 7 -22 0z"/>
<path d="M1734 1126 c-8 -9 -7 -15 3 -24 8 -8 13 -9 13 -2 0 5 8 10 18 11 13
0 14 2 2 6 -8 3 -17 9 -20 13 -3 4 -10 2 -16 -4z"/>
<path d="M1804 1126 c-8 -8 -7 -15 0 -22 8 -8 15 -7 22 0 8 8 7 15 0 22 -8 8
-15 7 -22 0z"/>
<path d="M1880 1130 c0 -5 -8 -10 -17 -11 -14 0 -15 -2 -3 -6 8 -3 17 -9 20
-13 3 -4 10 -2 16 4 8 9 7 15 -3 24 -8 8 -13 9 -13 2z"/>
<path d="M1934 1126 c-8 -8 -7 -15 0 -22 8 -8 15 -7 22 0 8 8 7 15 0 22 -8 8
-15 7 -22 0z"/>
<path d="M2004 1126 c-8 -8 -7 -15 0 -22 8 -8 15 -7 22 0 8 8 7 15 0 22 -8 8
-15 7 -22 0z"/>
<path d="M2064 1126 c-8 -9 -7 -15 3 -24 8 -8 13 -9 13 -2 0 5 8 10 18 11 13
0 14 2 2 6 -8 3 -17 9 -20 13 -3 4 -10 2 -16 -4z"/>
<path d="M2134 1126 c-8 -8 -7 -15 0 -22 8 -8 15 -7 22 0 8 8 7 15 0 22 -8 8
-15 7 -22 0z"/>
<path d="M2210 1130 c0 -5 -8 -10 -17 -11 -14 0 -15 -2 -3 -6 8 -3 17 -9 20
-13 3 -4 10 -2 16 4 8 9 7 15 -3 24 -8 8 -13 9 -13 2z"/>
<path d="M2264 1126 c-8 -8 -7 -15 0 -22 8 -8 15 -7 22 0 8 8 7 15 0 22 -8 8
-15 7 -22 0z"/>
<path d="M2334 1126 c-8 -8 -7 -15 0 -22 8 -8 15 -7 22 0 8 8 7 15 0 22 -8 8
-15 7 -22 0z"/>
<path d="M2394 1126 c-8 -9 -7 -15 3 -24 8 -8 13 -9 13 -2 0 5 8 10 18 11 13
0 14 2 2 6 -8 3 -17 9 -20 13 -3 4 -10 2 -16 -4z"/>
<path d="M2464 1126 c-8 -8 -7 -15 0 -22 8 -8 15 -7 22 0 8 8 7 15 0 22 -8 8
-15 7 -22 0z"/>
<path d="M2540 1130 c0 -5 -8 -10 -17 -11 -14 0 -15 -2 -3 -6 8 -3 17 -9 20
-13 3 -4 10 -2 16 4 8 9 7 15 -3 24 -8 8 -13 9 -13 2z"/>
<path d="M2594 1126 c-8 -8 -7 -15 0 -22 8 -8 15 -7 22 0 8 8 7 15 0 22 -8 8
-15 7 -22 0z"/>
<path d="M2664 1126 c-8 -8 -7 -15 0 -22 8 -8 15 -7 22 0 8 8 7 15 0 22 -8 8
-15 7 -22 0z"/>
<path d="M2724 1126 c-8 -9 -7 -15 3 -24 8 -8 13 -9 13 -2 0 5 8 10 18 11 13
0 14 2 2 6 -8 3 -17 9 -20 13 -3 4 -10 2 -16 -4z"/>
<path d="M2794 1126 c-8 -8 -7 -15 0 -22 8 -8 15 -7 22 0 8 8 7 15 0 22 -8 8
-15 7 -22 0z"/>
<path d="M2870 1130 c0 -5 -8 -10 -17 -11 -14 0 -15 -2 -3 -6 8 -3 17 -9 20
-13 3 -4 10 -2 16 4 8 9 7 15 -3 24 -8 8 -13 9 -13 2z"/>
<path d="M2924 1126 c-8 -8 -7 -15 0 -22 8 -8 15 -7 22 0 8 8 7 15 0 22 -8 8
-15 7 -22 0z"/>
<path d="M2994 1126 c-8 -8 -7 -15 0 -22 8 -8 15 -7 22 0 8 8 7 15 0 22 -8 8
-15 7 -22 0z"/>
<path d="M3054 1126 c-8 -9 -7 -15 3 -24 8 -8 13 -9 13 -2 0 5 8 10 18 11 13
0 14 2 2 6 -8 3 -17 9 -20 13 -3 4 -10 2 -16 -4z"/>
<path d="M3124 1126 c-8 -8 -7 -15 0 -22 8 -8 15 -7 22 0 8 8 7 15 0 22 -8 8
-15 7 -22 0z"/>
<path d="M414 1006 c-8 -9 -7 -15 3 -24 8 -8 13 -9 13 -2 0 5 8 10 18 11 13 0
14 2 2 6 -8 3 -17 9 -20 13 -3 4 -10 2 -16 -4z"/>
<path d="M484 1006 c-8 -8 -7 -15 0 -22 8 -8 15 -7 22 0 8 8 7 15 0 22 -8 8
-15 7 -22 0z"/>
<path d="M560 1010 c0 -5 -8 -10 -17 -11 -14 0 -15 -2 -3 -6 8 -3 17 -9 20
-13 3 -4 10 -2 16 4 8 9 7 15 -3 24 -8 8 -13 9 -13 2z"/>
<path d="M614 1006 c-8 -9 -7 -15 3 -24 8 -8 13 -9 13 -2 0 5 8 10 18 11 13 0
14 2 2 6 -8 3 -17 9 -20 13 -3 4 -10 2 -16 -4z"/>
<path d="M684 1006 c-8 -8 -7 -15 0 -22 8 -8 15 -7 22 0 8 8 7 15 0 22 -8 8
-15 7 -22 0z"/>
<path d="M744 1006 c-8 -9 -7 -15 3 -24 8 -8 13 -9 13 -2 0 5 8 10 18 11 13 0
14 2 2 6 -8 3 -17 9 -20 13 -3 4 -10 2 -16 -4z"/>
<path d="M814 1006 c-8 -8 -7 -15 0 -22 8 -8 15 -7 22 0 8 8 7 15 0 22 -8 8
-15 7 -22 0z"/>
<path d="M890 1010 c0 -5 -8 -10 -17 -11 -14 0 -15 -2 -3 -6 8 -3 17 -9 20
-13 3 -4 10 -2 16 4 8 9 7 15 -3 24 -8 8 -13 9 -13 2z"/>
<path d="M944 1006 c-8 -8 -7 -15 0 -22 8 -8 15 -7 22 0 8 8 7 15 0 22 -8 8
-15 7 -22 0z"/>
<path d="M1550 1010 c0 -5 -8 -10 -17 -11 -14 0 -15 -2 -3 -6 8 -3 17 -9 20
-13 3 -4 10 -2 16 4 8 9 7 15 -3 24 -8 8 -13 9 -13 2z"/>
<path d="M1604 1006 c-8 -8 -7 -15 0 -22 8 -8 15 -7 22 0 8 8 7 15 0 22 -8 8
-15 7 -22 0z"/>
<path d="M1674 1006 c-8 -8 -7 -15 0 -22 8 -8 15 -7 22 0 8 8 7 15 0 22 -8 8
-15 7 -22 0z"/>
<path d="M1734 1006 c-8 -9 -7 -15 3 -24 8 -8 13 -9 13 -2 0 5 8 10 18 11 13
0 14 2 2 6 -8 3 -17 9 -20 13 -3 4 -10 2 -16 -4z"/>
<path d="M1804 1006 c-8 -8 -7 -15 0 -22 8 -8 15 -7 22 0 8 8 7 15 0 22 -8 8
-15 7 -22 0z"/>
<path d="M1880 1010 c0 -5 -8 -10 -17 -11 -14 0 -15 -2 -3 -6 8 -3 17 -9 20
-13 3 -4 10 -2 16 4 8 9 7 15 -3 24 -8 8 -13 9 -13 2z"/>
<path d="M1934 1006 c-8 -8 -7 -15 0 -22 8 -8 15 -7 22 0 8 8 7 15 0 22 -8 8
-15 7 -22 0z"/>
<path d="M2004 1006 c-8 -8 -7 -15 0 -22 8 -8 15 -7 22 0 8 8 7 15 0 22 -8 8
-15 7 -22 0z"/>
<path d="M2064 1006 c-8 -9 -7 -15 3 -24 8 -8 13 -9 13 -2 0 5 8 10 18 11 13
0 14 2 2 6 -8 3 -17 9 -20 13 -3 4 -10 2 -16 -4z"/>
<path d="M2134 1006 c-8 -8 -7 -15 0 -22 8 -8 15 -7 22 0 8 8 7 15 0 22 -8 8
-15 7 -22 0z"/>
<path d="M2210 1010 c0 -5 -8 -10 -17 -11 -14 0 -15 -2 -3 -6 8 -3 17 -9 20
-13 3 -4 10 -2 16 4 8 9 7 15 -3 24 -8 8 -13 9 -13 2z"/>
<path d="M2264 1006 c-8 -8 -7 -15 0 -22 8 -8 15 -7 22 0 8 8 7 15 0 22 -8 8
-15 7 -22 0z"/>
<path d="M2334 1006 c-8 -8 -7 -15 0 -22 8 -8 15 -7 22 0 8 8 7 15 0 22 -8 8
-15 7 -22 0z"/>
<path d="M2394 1006 c-8 -9 -7 -15 3 -24 8 -8 13 -9 13 -2 0 5 8 10 18 11 13
0 14 2 2 6 -8 3 -17 9 -20 13 -3 4 -10 2 -16 -4z"/>
<path d="M2464 1006 c-8 -8 -7 -15 0 -22 8 -8 15 -7 22 0 8 8 7 15 0 22 -8 8
-15 7 -22 0z"/>
<path d="M2540 1010 c0 -5 -8 -10 -17 -11 -14 0 -15 -2 -3 -6 8 -3 17 -9 20
-13 3 -4 10 -2 16 4 8 9 7 15 -3 24 -8 8 -13 9 -13 2z"/>
<path d="M2594 1006 c-8 -8 -7 -15 0 -22 8 -8 15 -7 22 0 8 8 7 15 0 22 -8 8
-15 7 -22 0z"/>
<path d="M2664 1006 c-8 -8 -7 -15 0 -22 8 -8 15 -7 22 0 8 8 7 15 0 22 -8 8
-15 7 -22 0z"/>
<path d="M2724 1006 c-8 -9 -7 -15 3 -24 8 -8 13 -9 13 -2 0 5 8 10 18 11 13
0 14 2 2 6 -8 3 -17 9 -20 13 -3 4 -10 2 -16 -4z"/>
<path d="M2794 1006 c-8 -8 -7 -15 0 -22 8 -8 15 -7 22 0 8 8 7 15 0 22 -8 8
-15 7 -22 0z"/>
<path d="M2870 1010 c0 -5 -8 -10 -17 -11 -14 0 -15 -2 -3 -6 8 -3 17 -9 20
-13 3 -4 10 -2 16 4 8 9 7 15 -3 24 -8 8 -13 9 -13 2z"/>
<path d="M2924 1006 c-8 -8 -7 -15 0 -22 8 -8 15 -7 22 0 8 8 7 15 0 22 -8 8
-15 7 -22 0z"/>
<path d="M354 886 c-8 -8 -7 -15 0 -22 8 -8 15 -7 22 0 8 8 7 15 0 22 -8 8
-15 7 -22 0z"/>
<path d="M414 886 c-8 -9 -7 -15 3 -24 8 -8 13 -9 13 -2 0 5 8 10 18 11 13 0
14 2 2 6 -8 3 -17 9 -20 13 -3 4 -10 2 -16 -4z"/>
<path d="M484 886 c-8 -8 -7 -15 0 -22 8 -8 15 -7 22 0 8 8 7 15 0 22 -8 8
-15 7 -22 0z"/>
<path d="M560 890 c0 -5 -8 -10 -17 -11 -14 0 -15 -2 -3 -6 8 -3 17 -9 20 -13
3 -4 10 -2 16 4 8 9 7 15 -3 24 -8 8 -13 9 -13 2z"/>
<path d="M614 886 c-8 -9 -7 -15 3 -24 8 -8 13 -9 13 -2 0 5 8 10 18 11 13 0
14 2 2 6 -8 3 -17 9 -20 13 -3 4 -10 2 -16 -4z"/>
<path d="M684 886 c-8 -8 -7 -15 0 -22 8 -8 15 -7 22 0 8 8 7 15 0 22 -8 8
-15 7 -22 0z"/>
<path d="M744 886 c-8 -9 -7 -15 3 -24 8 -8 13 -9 13 -2 0 5 8 10 18 11 13 0
14 2 2 6 -8 3 -17 9 -20 13 -3 4 -10 2 -16 -4z"/>
<path d="M814 886 c-8 -8 -7 -15 0 -22 8 -8 15 -7 22 0 8 8 7 15 0 22 -8 8
-15 7 -22 0z"/>
<path d="M890 890 c0 -5 -8 -10 -17 -11 -14 0 -15 -2 -3 -6 8 -3 17 -9 20 -13
3 -4 10 -2 16 4 8 9 7 15 -3 24 -8 8 -13 9 -13 2z"/>
<path d="M944 886 c-8 -8 -7 -15 0 -22 8 -8 15 -7 22 0 8 8 7 15 0 22 -8 8
-15 7 -22 0z"/>
<path d="M1014 886 c-8 -8 -7 -15 0 -22 8 -8 15 -7 22 0 8 8 7 15 0 22 -8 8
-15 7 -22 0z"/>
<path d="M1074 886 c-8 -9 -7 -15 3 -24 8 -8 13 -9 13 -2 0 5 8 10 18 11 13 0
14 2 2 6 -8 3 -17 9 -20 13 -3 4 -10 2 -16 -4z"/>
<path d="M1734 886 c-8 -9 -7 -15 3 -24 8 -8 13 -9 13 -2 0 5 8 10 18 11 13 0
14 2 2 6 -8 3 -17 9 -20 13 -3 4 -10 2 -16 -4z"/>
<path d="M1804 886 c-8 -8 -7 -15 0 -22 8 -8 15 -7 22 0 8 8 7 15 0 22 -8 8
-15 7 -22 0z"/>
<path d="M1880 890 c0 -5 -8 -10 -17 -11 -14 0 -15 -2 -3 -6 8 -3 17 -9 20
-13 3 -4 10 -2 16 4 8 9 7 15 -3 24 -8 8 -13 9 -13 2z"/>
<path d="M1934 886 c-8 -8 -7 -15 0 -22 8 -8 15 -7 22 0 8 8 7 15 0 22 -8 8
-15 7 -22 0z"/>
<path d="M2004 886 c-8 -8 -7 -15 0 -22 8 -8 15 -7 22 0 8 8 7 15 0 22 -8 8
-15 7 -22 0z"/>
<path d="M2064 886 c-8 -9 -7 -15 3 -24 8 -8 13 -9 13 -2 0 5 8 10 18 11 13 0
14 2 2 6 -8 3 -17 9 -20 13 -3 4 -10 2 -16 -4z"/>
<path d="M2134 886 c-8 -8 -7 -15 0 -22 8 -8 15 -7 22 0 8 8 7 15 0 22 -8 8
-15 7 -22 0z"/>
<path d="M2210 890 c0 -5 -8 -10 -17 -11 -14 0 -15 -2 -3 -6 8 -3 17 -9 20
-13 3 -4 10 -2 16 4 8 9 7 15 -3 24 -8 8 -13 9 -13 2z"/>
<path d="M2264 886 c-8 -8 -7 -15 0 -22 8 -8 15 -7 22 0 8 8 7 15 0 22 -8 8
-15 7 -22 0z"/>
<path d="M2334 886 c-8 -8 -7 -15 0 -22 8 -8 15 -7 22 0 8 8 7 15 0 22 -8 8
-15 7 -22 0z"/>
<path d="M2394 886 c-8 -9 -7 -15 3 -24 8 -8 13 -9 13 -2 0 5 8 10 18 11 13 0
14 2 2 6 -8 3 -17 9 -20 13 -3 4 -10 2 -16 -4z"/>
<path d="M2464 886 c-8 -8 -7 -15 0 -22 8 -8 15 -7 22 0 8 8 7 15 0 22 -8 8
-15 7 -22 0z"/>
<path d="M2540 890 c0 -5 -8 -10 -17 -11 -14 0 -15 -2 -3 -6 8 -3 17 -9 20
-13 3 -4 10 -2 16 4 8 9 7 15 -3 24 -8 8 -13 9 -13 2z"/>
<path d="M2594 886 c-8 -8 -7 -15 0 -22 8 -8 15 -7 22 0 8 8 7 15 0 22 -8 8
-15 7 -22 0z"/>
<path d="M2664 886 c-8 -8 -7 -15 0 -22 8 -8 15 -7 22 0 8 8 7 15 0 22 -8 8
-15 7 -22 0z"/>
<path d="M2724 886 c-8 -9 -7 -15 3 -24 8 -8 13 -9 13 -2 0 5 8 10 18 11 13 0
14 2 2 6 -8 3 -17 9 -20 13 -3 4 -10 2 -16 -4z"/>
<path d="M284 766 c-8 -9 -7 -15 3 -24 8 -8 13 -9 13 -2 0 5 8 10 18 11 13 0
14 2 2 6 -8 3 -17 9 -20 13 -3 4 -10 2 -16 -4z"/>
<path d="M354 766 c-8 -8 -7 -15 0 -22 8 -8 15 -7 22 0 8 8 7 15 0 22 -8 8
-15 7 -22 0z"/>
<path d="M414 766 c-8 -9 -7 -15 3 -24 8 -8 13 -9 13 -2 0 5 8 10 18 11 13 0
14 2 2 6 -8 3 -17 9 -20 13 -3 4 -10 2 -16 -4z"/>
<path d="M484 766 c-8 -8 -7 -15 0 -22 8 -8 15 -7 22 0 8 8 7 15 0 22 -8 8
-15 7 -22 0z"/>
<path d="M560 770 c0 -5 -8 -10 -17 -11 -14 0 -15 -2 -3 -6 8 -3 17 -9 20 -13
3 -4 10 -2 16 4 8 9 7 15 -3 24 -8 8 -13 9 -13 2z"/>
<path d="M614 766 c-8 -9 -7 -15 3 -24 8 -8 13 -9 13 -2 0 5 8 10 18 11 13 0
14 2 2 6 -8 3 -17 9 -20 13 -3 4 -10 2 -16 -4z"/>
<path d="M684 766 c-8 -8 -7 -15 0 -22 8 -8 15 -7 22 0 8 8 7 15 0 22 -8 8
-15 7 -22 0z"/>
<path d="M744 766 c-8 -9 -7 -15 3 -24 8 -8 13 -9 13 -2 0 5 8 10 18 11 13 0
14 2 2 6 -8 3 -17 9 -20 13 -3 4 -10 2 -16 -4z"/>
<path d="M814 766 c-8 -8 -7 -15 0 -22 8 -8 15 -7 22 0 8 8 7 15 0 22 -8 8
-15 7 -22 0z"/>
<path d="M890 770 c0 -5 -8 -10 -17 -11 -14 0 -15 -2 -3 -6 8 -3 17 -9 20 -13
3 -4 10 -2 16 4 8 9 7 15 -3 24 -8 8 -13 9 -13 2z"/>
<path d="M944 766 c-8 -8 -7 -15 0 -22 8 -8 15 -7 22 0 8 8 7 15 0 22 -8 8
-15 7 -22 0z"/>
<path d="M1014 766 c-8 -8 -7 -15 0 -22 8 -8 15 -7 22 0 8 8 7 15 0 22 -8 8
-15 7 -22 0z"/>
<path d="M1074 766 c-8 -9 -7 -15 3 -24 8 -8 13 -9 13 -2 0 5 8 10 18 11 13 0
14 2 2 6 -8 3 -17 9 -20 13 -3 4 -10 2 -16 -4z"/>
<path d="M284 646 c-8 -9 -7 -15 3 -24 8 -8 13 -9 13 -2 0 5 8 10 18 11 13 0
14 2 2 6 -8 3 -17 9 -20 13 -3 4 -10 2 -16 -4z"/>
<path d="M354 646 c-8 -8 -7 -15 0 -22 8 -8 15 -7 22 0 8 8 7 15 0 22 -8 8
-15 7 -22 0z"/>
<path d="M414 646 c-8 -9 -7 -15 3 -24 8 -8 13 -9 13 -2 0 5 8 10 18 11 13 0
14 2 2 6 -8 3 -17 9 -20 13 -3 4 -10 2 -16 -4z"/>
<path d="M484 646 c-8 -8 -7 -15 0 -22 8 -8 15 -7 22 0 8 8 7 15 0 22 -8 8
-15 7 -22 0z"/>
<path d="M560 650 c0 -5 -8 -10 -17 -11 -14 0 -15 -2 -3 -6 8 -3 17 -9 20 -13
3 -4 10 -2 16 4 8 9 7 15 -3 24 -8 8 -13 9 -13 2z"/>
<path d="M614 646 c-8 -9 -7 -15 3 -24 8 -8 13 -9 13 -2 0 5 8 10 18 11 13 0
14 2 2 6 -8 3 -17 9 -20 13 -3 4 -10 2 -16 -4z"/>
<path d="M684 646 c-8 -8 -7 -15 0 -22 8 -8 15 -7 22 0 8 8 7 15 0 22 -8 8
-15 7 -22 0z"/>
<path d="M744 646 c-8 -9 -7 -15 3 -24 8 -8 13 -9 13 -2 0 5 8 10 18 11 13 0
14 2 2 6 -8 3 -17 9 -20 13 -3 4 -10 2 -16 -4z"/>
<path d="M814 646 c-8 -8 -7 -15 0 -22 8 -8 15 -7 22 0 8 8 7 15 0 22 -8 8
-15 7 -22 0z"/>
<path d="M890 650 c0 -5 -8 -10 -17 -11 -14 0 -15 -2 -3 -6 8 -3 17 -9 20 -13
3 -4 10 -2 16 4 8 9 7 15 -3 24 -8 8 -13 9 -13 2z"/>
<path d="M944 646 c-8 -8 -7 -15 0 -22 8 -8 15 -7 22 0 8 8 7 15 0 22 -8 8
-15 7 -22 0z"/>
<path d="M1014 646 c-8 -8 -7 -15 0 -22 8 -8 15 -7 22 0 8 8 7 15 0 22 -8 8
-15 7 -22 0z"/>
<path d="M1074 646 c-8 -9 -7 -15 3 -24 8 -8 13 -9 13 -2 0 5 8 10 18 11 13 0
14 2 2 6 -8 3 -17 9 -20 13 -3 4 -10 2 -16 -4z"/>
<path d="M284 526 c-8 -9 -7 -15 3 -24 8 -8 13 -9 13 -2 0 5 8 10 18 11 13 0
14 2 2 6 -8 3 -17 9 -20 13 -3 4 -10 2 -16 -4z"/>
<path d="M354 526 c-8 -8 -7 -15 0 -22 8 -8 15 -7 22 0 8 8 7 15 0 22 -8 8
-15 7 -22 0z"/>
<path d="M414 526 c-8 -9 -7 -15 3 -24 8 -8 13 -9 13 -2 0 5 8 10 18 11 13 0
14 2 2 6 -8 3 -17 9 -20 13 -3 4 -10 2 -16 -4z"/>
<path d="M484 526 c-8 -8 -7 -15 0 -22 8 -8 15 -7 22 0 8 8 7 15 0 22 -8 8
-15 7 -22 0z"/>
<path d="M560 530 c0 -5 -8 -10 -17 -11 -14 0 -15 -2 -3 -6 8 -3 17 -9 20 -13
3 -4 10 -2 16 4 8 9 7 15 -3 24 -8 8 -13 9 -13 2z"/>
<path d="M614 526 c-8 -9 -7 -15 3 -24 8 -8 13 -9 13 -2 0 5 8 10 18 11 13 0
14 2 2 6 -8 3 -17 9 -20 13 -3 4 -10 2 -16 -4z"/>
<path d="M684 526 c-8 -8 -7 -15 0 -22 8 -8 15 -7 22 0 8 8 7 15 0 22 -8 8
-15 7 -22 0z"/>
<path d="M744 526 c-8 -9 -7 -15 3 -24 8 -8 13 -9 13 -2 0 5 8 10 18 11 13 0
14 2 2 6 -8 3 -17 9 -20 13 -3 4 -10 2 -16 -4z"/>
<path d="M814 526 c-8 -8 -7 -15 0 -22 8 -8 15 -7 22 0 8 8 7 15 0 22 -8 8
-15 7 -22 0z"/>
<path d="M890 530 c0 -5 -8 -10 -17 -11 -14 0 -15 -2 -3 -6 8 -3 17 -9 20 -13
3 -4 10 -2 16 4 8 9 7 15 -3 24 -8 8 -13 9 -13 2z"/>
<path d="M944 526 c-8 -8 -7 -15 0 -22 8 -8 15 -7 22 0 8 8 7 15 0 22 -8 8
-15 7 -22 0z"/>
<path d="M1014 526 c-8 -8 -7 -15 0 -22 8 -8 15 -7 22 0 8 8 7 15 0 22 -8 8
-15 7 -22 0z"/>
<path d="M1074 526 c-8 -9 -7 -15 3 -24 8 -8 13 -9 13 -2 0 5 8 10 18 11 13 0
14 2 2 6 -8 3 -17 9 -20 13 -3 4 -10 2 -16 -4z"/>
<path d="M354 406 c-8 -8 -7 -15 0 -22 8 -8 15 -7 22 0 8 8 7 15 0 22 -8 8
-15 7 -22 0z"/>
<path d="M414 406 c-8 -9 -7 -15 3 -24 8 -8 13 -9 13 -2 0 5 8 10 18 11 13 0
14 2 2 6 -8 3 -17 9 -20 13 -3 4 -10 2 -16 -4z"/>
<path d="M484 406 c-8 -8 -7 -15 0 -22 8 -8 15 -7 22 0 8 8 7 15 0 22 -8 8
-15 7 -22 0z"/>
<path d="M560 410 c0 -5 -8 -10 -17 -11 -14 0 -15 -2 -3 -6 8 -3 17 -9 20 -13
3 -4 10 -2 16 4 8 9 7 15 -3 24 -8 8 -13 9 -13 2z"/>
<path d="M614 406 c-8 -9 -7 -15 3 -24 8 -8 13 -9 13 -2 0 5 8 10 18 11 13 0
14 2 2 6 -8 3 -17 9 -20 13 -3 4 -10 2 -16 -4z"/>
<path d="M684 406 c-8 -8 -7 -15 0 -22 8 -8 15 -7 22 0 8 8 7 15 0 22 -8 8
-15 7 -22 0z"/>
<path d="M744 406 c-8 -9 -7 -15 3 -24 8 -8 13 -9 13 -2 0 5 8 10 18 11 13 0
14 2 2 6 -8 3 -17 9 -20 13 -3 4 -10 2 -16 -4z"/>
<path d="M814 406 c-8 -8 -7 -15 0 -22 8 -8 15 -7 22 0 8 8 7 15 0 22 -8 8
-15 7 -22 0z"/>
<path d="M890 410 c0 -5 -8 -10 -17 -11 -14 0 -15 -2 -3 -6 8 -3 17 -9 20 -13
3 -4 10 -2 16 4 8 9 7 15 -3 24 -8 8 -13 9 -13 2z"/>
<path d="M944 406 c-8 -8 -7 -15 0 -22 8 -8 15 -7 22 0 8 8 7 15 0 22 -8 8
-15 7 -22 0z"/>
<path d="M1014 406 c-8 -8 -7 -15 0 -22 8 -8 15 -7 22 0 8 8 7 15 0 22 -8 8
-15 7 -22 0z"/>
<path d="M484 286 c-8 -8 -7 -15 0 -22 8 -8 15 -7 22 0 8 8 7 15 0 22 -8 8
-15 7 -22 0z"/>
<path d="M560 290 c0 -5 -8 -10 -17 -11 -14 0 -15 -2 -3 -6 8 -3 17 -9 20 -13
3 -4 10 -2 16 4 8 9 7 15 -3 24 -8 8 -13 9 -13 2z"/>
<path d="M614 286 c-8 -9 -7 -15 3 -24 8 -8 13 -9 13 -2 0 5 8 10 18 11 13 0
14 2 2 6 -8 3 -17 9 -20 13 -3 4 -10 2 -16 -4z"/>
<path d="M684 286 c-8 -8 -7 -15 0 -22 8 -8 15 -7 22 0 8 8 7 15 0 22 -8 8
-15 7 -22 0z"/>
<path d="M744 286 c-8 -9 -7 -15 3 -24 8 -8 13 -9 13 -2 0 5 8 10 18 11 13 0
14 2 2 6 -8 3 -17 9 -20 13 -3 4 -10 2 -16 -4z"/>
<path d="M814 286 c-8 -8 -7 -15 0 -22 8 -8 15 -7 22 0 8 8 7 15 0 22 -8 8
-15 7 -22 0z"/>
<path d="M890 290 c0 -5 -8 -10 -17 -11 -14 0 -15 -2 -3 -6 8 -3 17 -9 20 -13
3 -4 10 -2 16 4 8 9 7 15 -3 24 -8 8 -13 9 -13 2z"/>
</g>
</svg>
